<svg width="91" height="91" viewBox="0 0 91 91" fill="none" xmlns="http://www.w3.org/2000/svg">
<path fill-rule="evenodd" clip-rule="evenodd" d="M45.5 91C70.629 91 91 70.629 91 45.5C91 20.371 70.629 0 45.5 0C20.371 0 0 20.371 0 45.5C0 70.629 20.371 91 45.5 91ZM52.4161 25.5692C51.6337 24.8141 50.3604 24.8097 49.5723 25.5594L29.5941 44.5641C28.806 45.3138 28.8014 46.5337 29.5839 47.2889L49.4189 66.4308C50.2014 67.1859 51.4746 67.1903 52.2627 66.4406C53.0508 65.6909 53.0554 64.4709 52.2729 63.7158L33.8547 45.9412L52.4059 28.294C53.194 27.5443 53.1986 26.3244 52.4161 25.5692Z" fill="#F2BE43"/>
</svg>
