<svg width="57" height="57" viewBox="0 0 57 57" fill="none" xmlns="http://www.w3.org/2000/svg">
<path opacity="0.8" fill-rule="evenodd" clip-rule="evenodd" d="M14.1421 38.3859C13.0263 39.5017 13.0263 41.3107 14.1421 42.4265C15.2579 43.5423 17.0669 43.5423 18.1827 42.4265L28.2843 32.3249L38.3858 42.4263C39.5016 43.5421 41.3106 43.5421 42.4264 42.4263C43.5422 41.3105 43.5422 39.5015 42.4264 38.3857L32.325 28.2842L42.4264 18.1828C43.5422 17.067 43.5422 15.258 42.4264 14.1422C41.3106 13.0264 39.5016 13.0264 38.3858 14.1422L28.2843 24.2436L18.1827 14.142C17.067 13.0263 15.2579 13.0263 14.1421 14.142C13.0264 15.2578 13.0264 17.0669 14.1421 18.1826L24.2437 28.2842L14.1421 38.3859Z" fill="#F2BE43"/>
</svg>
