<svg width="91" height="91" viewBox="0 0 91 91" fill="none" xmlns="http://www.w3.org/2000/svg">
<path fill-rule="evenodd" clip-rule="evenodd" d="M45.5 91C20.371 91 0 70.629 0 45.5C0 20.371 20.371 0 45.5 0C70.629 0 91 20.371 91 45.5C91 70.629 70.629 91 45.5 91ZM38.5839 25.5692C39.3663 24.8141 40.6396 24.8097 41.4277 25.5594L61.4059 44.5641C62.194 45.3138 62.1986 46.5337 61.4161 47.2889L41.5811 66.4308C40.7986 67.1859 39.5254 67.1903 38.7373 66.4406C37.9492 65.6909 37.9446 64.4709 38.7271 63.7158L57.1453 45.9412L38.5941 28.294C37.806 27.5443 37.8014 26.3244 38.5839 25.5692Z" fill="#F2BE43"/>
</svg>
