<?xml version="1.0" encoding="utf-8"?>
<svg version="1.1" xmlns="http://www.w3.org/2000/svg" xmlns:xlink="http://www.w3.org/1999/xlink">
    <defs>
        <style type="text/css">
            <![CDATA[
               .sprite {
                  display: none;
                }
                .sprite:target {
                  display: block;
                }
                #ico-phone:hover {
                    transform: rotate(50deg);
                }
            ]]>
        </style>
    </defs>

    <symbol id="ico-arrow-left" class="sprite" viewBox="0 0 24 42" fill="none">
        <path d="M20.5723 0.559427C21.3604 -0.190287 22.6337 -0.185899 23.4161 0.569229C24.1986 1.32436 24.194 2.54427 23.4059 3.29399L4.85469 20.9412L23.2729 38.7158C24.0554 39.4709 24.0508 40.6909 23.2627 41.4406C22.4746 42.1903 21.2014 42.1859 20.4189 41.4308L0.583869 22.2889C-0.198601 21.5337 -0.19402 20.3138 0.594098 19.5641L20.5723 0.559427Z" fill="currentColor"/>
    </symbol>

    <symbol id="ico-arrow-right" class="sprite" viewBox="0 0 24 42" fill="none">
        <path d="M3.42767 0.559427C2.63955 -0.190287 1.36634 -0.185899 0.58387 0.569229C-0.198601 1.32436 -0.194019 2.54427 0.594099 3.29399L19.1453 20.9412L0.727083 38.7158C-0.0553856 39.4709 -0.050806 40.6909 0.737312 41.4406C1.52543 42.1903 2.79865 42.1859 3.58112 41.4308L23.4161 22.2889C24.1986 21.5337 24.194 20.3138 23.4059 19.5641L3.42767 0.559427Z" fill="currentColor"/>
    </symbol>

    <symbol id="ico-inst" class="sprite" viewBox="0 0 35 35" fill="none">
      <path d="M17.5 35C15.1302 35 12.863 34.5386 10.6982 33.6157C8.53353 32.6929 6.67074 31.451 5.10986 29.8901C3.54899 28.3293 2.30713 26.4665 1.38428 24.3018C0.461426 22.137 0 19.8698 0 17.5C0 15.1302 0.461426 12.863 1.38428 10.6982C2.30713 8.53353 3.54899 6.67074 5.10986 5.10986C6.67074 3.54899 8.53353 2.30713 10.6982 1.38428C12.863 0.461426 15.1302 0 17.5 0C19.8698 0 22.137 0.461426 24.3018 1.38428C26.4665 2.30713 28.3293 3.54899 29.8901 5.10986C31.451 6.67074 32.6929 8.53353 33.6157 10.6982C34.5386 12.863 35 15.1302 35 17.5C35 19.8698 34.5386 22.137 33.6157 24.3018C32.6929 26.4665 31.451 28.3293 29.8901 29.8901C28.3293 31.451 26.4665 32.6929 24.3018 33.6157C22.137 34.5386 19.8698 35 17.5 35ZM26.25 10.9375C26.25 10.3451 26.0392 9.83236 25.6177 9.39941C25.1961 8.96647 24.6777 8.75 24.0625 8.75H10.9375C10.3451 8.75 9.83236 8.96647 9.39941 9.39941C8.96647 9.83236 8.75 10.3451 8.75 10.9375V13.125H12.6465C13.9681 11.6667 15.5859 10.9375 17.5 10.9375C19.4141 10.9375 21.0319 11.6667 22.3535 13.125H26.25V10.9375ZM13.125 17.5C13.125 18.7077 13.5522 19.7388 14.4067 20.5933C15.2612 21.4478 16.2923 21.875 17.5 21.875C18.7077 21.875 19.7388 21.4478 20.5933 20.5933C21.4478 19.7388 21.875 18.7077 21.875 17.5C21.875 16.2923 21.4478 15.2612 20.5933 14.4067C19.7388 13.5522 18.7077 13.125 17.5 13.125C16.2923 13.125 15.2612 13.5522 14.4067 14.4067C13.5522 15.2612 13.125 16.2923 13.125 17.5ZM26.25 15.3125H23.6523C23.9258 16.0645 24.0625 16.7936 24.0625 17.5C24.0625 19.3229 23.4245 20.8724 22.1484 22.1484C20.8724 23.4245 19.3229 24.0625 17.5 24.0625C15.6771 24.0625 14.1276 23.4245 12.8516 22.1484C11.5755 20.8724 10.9375 19.3229 10.9375 17.5C10.9375 16.7936 11.0742 16.0645 11.3477 15.3125H8.75V24.0625C8.75 24.6777 8.96077 25.1961 9.38232 25.6177C9.80387 26.0392 10.3223 26.25 10.9375 26.25H24.0625C24.6777 26.25 25.1961 26.0392 25.6177 25.6177C26.0392 25.1961 26.25 24.6777 26.25 24.0625V15.3125Z" fill="currentColor"/>
    </symbol>

    <symbol id="ico-vk" class="sprite" viewBox="0 0 35 35" fill="none">
      <path d="M17.5 0C7.83475 0 0 7.83475 0 17.5C0 27.1652 7.83475 35 17.5 35C27.1652 35 35 27.1652 35 17.5C35 7.83475 27.1652 0 17.5 0ZM6.1355 11.375H8.71325C9.37125 11.375 9.61975 11.662 9.86825 12.376C11.1283 16.051 13.2563 19.264 14.1295 19.264C14.4585 19.264 14.609 19.1117 14.609 18.2787V14.4812C14.5127 12.733 13.5835 12.5878 13.5835 11.9665C13.5835 11.6778 13.8285 11.375 14.2397 11.375H18.2927C18.8388 11.375 19.0208 11.6655 19.0208 12.3218V17.4318C19.0208 17.9778 19.2658 18.1702 19.432 18.1702C19.7593 18.1702 20.0305 17.9778 20.6307 17.3775C22.4893 15.3003 23.8035 12.103 23.8035 12.103C23.9662 11.7198 24.2673 11.375 24.9235 11.375H27.5013C28.28 11.375 28.4463 11.7758 28.2835 12.3218C27.9563 13.825 24.8115 18.2525 24.8115 18.2525C24.5385 18.69 24.4282 18.9088 24.8115 19.4005C25.0845 19.7838 25.9875 20.5467 26.5878 21.2555C27.6955 22.5033 28.5302 23.5532 28.7612 24.2778C28.9747 25.004 28.6072 25.375 27.8687 25.375H25.2927C24.3092 25.375 24.0205 24.591 22.2723 22.8428C20.741 21.3675 20.0865 21.175 19.705 21.175C19.1853 21.175 19.0278 21.322 19.0278 22.0588V24.374C19.0278 25.0075 18.8247 25.375 17.185 25.375C14.4532 25.375 11.452 23.7143 9.3205 20.6553C6.125 16.1753 5.25 12.7855 5.25 12.103C5.25 11.7198 5.39875 11.375 6.1355 11.375Z" fill="currentColor"/>
    </symbol>


    <view id='ico-arrow-left'/>
    <view id='ico-arrow-right'/>
    <view id='ico-inst'/>
    <view id='ico-vk'/>

    <use xlink:href="#ico-arrow-left" x="0" y="0"/>
    <use xlink:href="#ico-arrow-right" x="0" y="0"/>
    <use xlink:href="#ico-inst" x="0" y="0"/>
    <use xlink:href="#ico-vk" x="0" y="0"/>

</svg>