<?xml version="1.0" encoding="utf-8"?>
<svg version="1.1" xmlns="http://www.w3.org/2000/svg" xmlns:xlink="http://www.w3.org/1999/xlink">
    <defs>
        <style type="text/css">
            <![CDATA[
               .sprite {
                  display: none;
                }
                .sprite:target {
                  display: block;
                }
                #ico-phone:hover {
                    transform: rotate(50deg);
                }
            ]]>
        </style>
    </defs>

    <symbol id="ico-arrow-left" class="sprite" viewBox="0 0 24 42" fill="none">
        <path d="M20.5723 0.559427C21.3604 -0.190287 22.6337 -0.185899 23.4161 0.569229C24.1986 1.32436 24.194 2.54427 23.4059 3.29399L4.85469 20.9412L23.2729 38.7158C24.0554 39.4709 24.0508 40.6909 23.2627 41.4406C22.4746 42.1903 21.2014 42.1859 20.4189 41.4308L0.583869 22.2889C-0.198601 21.5337 -0.19402 20.3138 0.594098 19.5641L20.5723 0.559427Z" fill="currentColor"/>
    </symbol>

    <symbol id="ico-arrow-right" class="sprite" viewBox="0 0 24 42" fill="none">
        <path d="M3.42767 0.559427C2.63955 -0.190287 1.36634 -0.185899 0.58387 0.569229C-0.198601 1.32436 -0.194019 2.54427 0.594099 3.29399L19.1453 20.9412L0.727083 38.7158C-0.0553856 39.4709 -0.050806 40.6909 0.737312 41.4406C1.52543 42.1903 2.79865 42.1859 3.58112 41.4308L23.4161 22.2889C24.1986 21.5337 24.194 20.3138 23.4059 19.5641L3.42767 0.559427Z" fill="currentColor"/>
    </symbol>

    <symbol id="ico-inst" class="sprite" viewBox="0 0 35 35" fill="none">
      <path d="M17.5 35C15.1302 35 12.863 34.5386 10.6982 33.6157C8.53353 32.6929 6.67074 31.451 5.10986 29.8901C3.54899 28.3293 2.30713 26.4665 1.38428 24.3018C0.461426 22.137 0 19.8698 0 17.5C0 15.1302 0.461426 12.863 1.38428 10.6982C2.30713 8.53353 3.54899 6.67074 5.10986 5.10986C6.67074 3.54899 8.53353 2.30713 10.6982 1.38428C12.863 0.461426 15.1302 0 17.5 0C19.8698 0 22.137 0.461426 24.3018 1.38428C26.4665 2.30713 28.3293 3.54899 29.8901 5.10986C31.451 6.67074 32.6929 8.53353 33.6157 10.6982C34.5386 12.863 35 15.1302 35 17.5C35 19.8698 34.5386 22.137 33.6157 24.3018C32.6929 26.4665 31.451 28.3293 29.8901 29.8901C28.3293 31.451 26.4665 32.6929 24.3018 33.6157C22.137 34.5386 19.8698 35 17.5 35ZM26.25 10.9375C26.25 10.3451 26.0392 9.83236 25.6177 9.39941C25.1961 8.96647 24.6777 8.75 24.0625 8.75H10.9375C10.3451 8.75 9.83236 8.96647 9.39941 9.39941C8.96647 9.83236 8.75 10.3451 8.75 10.9375V13.125H12.6465C13.9681 11.6667 15.5859 10.9375 17.5 10.9375C19.4141 10.9375 21.0319 11.6667 22.3535 13.125H26.25V10.9375ZM13.125 17.5C13.125 18.7077 13.5522 19.7388 14.4067 20.5933C15.2612 21.4478 16.2923 21.875 17.5 21.875C18.7077 21.875 19.7388 21.4478 20.5933 20.5933C21.4478 19.7388 21.875 18.7077 21.875 17.5C21.875 16.2923 21.4478 15.2612 20.5933 14.4067C19.7388 13.5522 18.7077 13.125 17.5 13.125C16.2923 13.125 15.2612 13.5522 14.4067 14.4067C13.5522 15.2612 13.125 16.2923 13.125 17.5ZM26.25 15.3125H23.6523C23.9258 16.0645 24.0625 16.7936 24.0625 17.5C24.0625 19.3229 23.4245 20.8724 22.1484 22.1484C20.8724 23.4245 19.3229 24.0625 17.5 24.0625C15.6771 24.0625 14.1276 23.4245 12.8516 22.1484C11.5755 20.8724 10.9375 19.3229 10.9375 17.5C10.9375 16.7936 11.0742 16.0645 11.3477 15.3125H8.75V24.0625C8.75 24.6777 8.96077 25.1961 9.38232 25.6177C9.80387 26.0392 10.3223 26.25 10.9375 26.25H24.0625C24.6777 26.25 25.1961 26.0392 25.6177 25.6177C26.0392 25.1961 26.25 24.6777 26.25 24.0625V15.3125Z" fill="currentColor"/>
    </symbol>

    <symbol id="ico-vk" class="sprite" viewBox="0 0 35 35" fill="none">
      <path d="M17.5 0C7.83475 0 0 7.83475 0 17.5C0 27.1652 7.83475 35 17.5 35C27.1652 35 35 27.1652 35 17.5C35 7.83475 27.1652 0 17.5 0ZM6.1355 11.375H8.71325C9.37125 11.375 9.61975 11.662 9.86825 12.376C11.1283 16.051 13.2563 19.264 14.1295 19.264C14.4585 19.264 14.609 19.1117 14.609 18.2787V14.4812C14.5127 12.733 13.5835 12.5878 13.5835 11.9665C13.5835 11.6778 13.8285 11.375 14.2397 11.375H18.2927C18.8388 11.375 19.0208 11.6655 19.0208 12.3218V17.4318C19.0208 17.9778 19.2658 18.1702 19.432 18.1702C19.7593 18.1702 20.0305 17.9778 20.6307 17.3775C22.4893 15.3003 23.8035 12.103 23.8035 12.103C23.9662 11.7198 24.2673 11.375 24.9235 11.375H27.5013C28.28 11.375 28.4463 11.7758 28.2835 12.3218C27.9563 13.825 24.8115 18.2525 24.8115 18.2525C24.5385 18.69 24.4282 18.9088 24.8115 19.4005C25.0845 19.7838 25.9875 20.5467 26.5878 21.2555C27.6955 22.5033 28.5302 23.5532 28.7612 24.2778C28.9747 25.004 28.6072 25.375 27.8687 25.375H25.2927C24.3092 25.375 24.0205 24.591 22.2723 22.8428C20.741 21.3675 20.0865 21.175 19.705 21.175C19.1853 21.175 19.0278 21.322 19.0278 22.0588V24.374C19.0278 25.0075 18.8247 25.375 17.185 25.375C14.4532 25.375 11.452 23.7143 9.3205 20.6553C6.125 16.1753 5.25 12.7855 5.25 12.103C5.25 11.7198 5.39875 11.375 6.1355 11.375Z" fill="currentColor"/>
    </symbol>

    <symbol id="ico-mail" class="sprite" viewBox="0 0 33 54" fill="none">
      <path fill-rule="evenodd" clip-rule="evenodd" d="M2.10284 4.97736C2.01916 5.17906 1.98668 5.39733 1.98668 5.61569L1.98668 48.8958C1.98668 49.1142 2.01916 49.3325 2.10284 49.5342C2.16587 49.6861 2.23618 49.8342 2.31333 49.9782C2.50483 50.3355 2.86125 50.6421 3.25287 50.5373C3.46427 50.4808 3.66261 50.3506 3.81063 50.1354L19.1561 27.8225C19.3908 27.4812 19.3908 27.0305 19.1561 26.6892L3.81063 4.37634C3.66251 4.16098 3.46401 4.03084 3.25244 3.97434C2.86089 3.86977 2.50465 4.17635 2.31321 4.53356C2.23611 4.67743 2.16584 4.82551 2.10284 4.97736ZM4.71843 2.31012C4.19046 2.54145 4.30793 3.33473 4.63457 3.80968L19.9801 26.1226C20.4495 26.8052 20.4495 27.7066 19.9801 28.3892L4.63458 50.7021C4.30798 51.177 4.19058 51.9701 4.71848 52.2014C5.33218 52.4703 6.01024 52.6195 6.72315 52.6195L26.3596 52.6195C29.1211 52.6195 31.3596 50.3809 31.3596 47.6195L31.3596 6.89201C31.3596 4.13059 29.1211 1.89201 26.3596 1.89201L6.72314 1.89201C6.01021 1.89201 5.33213 2.04122 4.71843 2.31012ZM0.93508 49.2058C0.967453 49.3242 0.986679 49.446 0.986679 49.5688C0.986679 50.2101 1.25704 50.726 1.65994 51.0737C1.85991 51.2462 2.0672 51.4134 2.24295 51.6106C3.34184 52.8433 4.94184 53.6195 6.72315 53.6195L26.3596 53.6195C29.6733 53.6195 32.3596 50.9332 32.3596 47.6195L32.3596 6.89201C32.3596 3.5783 29.6733 0.892012 26.3596 0.892012L6.72314 0.892013C4.94159 0.892013 3.34139 1.66848 2.2425 2.90145C2.06681 3.09858 1.85959 3.26578 1.6597 3.43831C1.25693 3.78593 0.986677 4.30177 0.986677 4.94301C0.986677 5.06558 0.967479 5.18721 0.935145 5.30544C0.796935 5.81081 0.723142 6.34279 0.723142 6.89201L0.723144 47.6195C0.723144 48.1686 0.796913 48.7005 0.93508 49.2058Z" fill="currentColor"/>
    </symbol>

    <symbol id="ico-phone" class="sprite" viewBox="0 0 32 54" fill="none">
      <path fill-rule="evenodd" clip-rule="evenodd" d="M3 44C1.89543 44 1 44.8954 1 46L1 47.1909C1 49.9523 3.23858 52.1909 6 52.1909L25.6365 52.1909C28.3979 52.1909 30.6365 49.9523 30.6365 47.1909L30.6365 46C30.6365 44.8954 29.7411 44 28.6365 44L3 44ZM-4.01748e-07 44L-4.45459e-07 43L-2.04252e-06 6.46342C-2.18737e-06 3.14971 2.68629 0.463425 6 0.463424L25.6365 0.463424C28.9502 0.463423 31.6365 3.14971 31.6365 6.46342L31.6365 47.1909C31.6365 50.5046 28.9502 53.1909 25.6365 53.1909L6 53.1909C2.6863 53.1909 -1.17422e-07 50.5046 -2.62268e-07 47.1909L-4.01748e-07 44ZM0.999999 41C1 42.1046 1.89543 43 3 43L28.6365 43C29.7411 43 30.6365 42.1046 30.6365 41L30.6365 6.46342C30.6365 3.702 28.3979 1.46342 25.6365 1.46342L6 1.46342C3.23857 1.46342 0.999998 3.702 0.999998 6.46342L0.999999 41ZM15.5 49C16.3284 49 17 48.3284 17 47.5C17 46.6716 16.3284 46 15.5 46C14.6716 46 14 46.6716 14 47.5C14 48.3284 14.6716 49 15.5 49ZM15.5 50C16.8807 50 18 48.8807 18 47.5C18 46.1193 16.8807 45 15.5 45C14.1193 45 13 46.1193 13 47.5C13 48.8807 14.1193 50 15.5 50Z" fill="currentColor"/>
    </symbol>

    <symbol id="ico-marker" class="sprite" width="42" height="56" viewBox="0 0 42 56" fill="none" xmlns="http://www.w3.org/2000/svg">
      <path fill-rule="evenodd" clip-rule="evenodd" d="M21 56C21 56 42 35 42 21C42 9.40202 32.598 0 21 0C9.40202 0 0 9.40202 0 21C0 35 21 56 21 56ZM21 30C26.5228 30 31 25.5228 31 20C31 14.4772 26.5228 10 21 10C15.4772 10 11 14.4772 11 20C11 25.5228 15.4772 30 21 30Z" fill="currentColor"/>
    </symbol>


    <view id='ico-arrow-left'/>
    <view id='ico-arrow-right'/>
    <view id='ico-inst'/>
    <view id='ico-vk'/>
    <view id='ico-mail'/>
    <view id='ico-phone'/>
    <view id='ico-marker'/>

    <use xlink:href="#ico-arrow-left" x="0" y="0"/>
    <use xlink:href="#ico-arrow-right" x="0" y="0"/>
    <use xlink:href="#ico-inst" x="0" y="0"/>
    <use xlink:href="#ico-vk" x="0" y="0"/>
    <use xlink:href="#ico-mail" x="0" y="0"/>
    <use xlink:href="#ico-phone" x="0" y="0"/>
    <use xlink:href="#ico-marker" x="0" y="0"/>

</svg>