<svg width="90" height="90" viewBox="0 0 90 90" fill="none" xmlns="http://www.w3.org/2000/svg">
<path d="M88.3301 88.3284C87.2168 89.4428 85.8838 90 84.3311 90C82.7783 90 81.4453 89.4428 80.332 88.3284L62.9297 70.9091C55.8984 76.129 48.0469 78.739 39.375 78.739C34.043 78.739 28.9453 77.6979 24.082 75.6158C19.2188 73.5337 15.0293 70.7331 11.5137 67.2141C7.99805 63.695 5.2002 59.5161 3.12012 54.6774C1.04004 49.8387 0 44.7361 0 39.3695C0 34.0029 1.04004 28.8856 3.12012 24.0176C5.2002 19.1496 7.99805 14.9707 11.5137 11.4809C15.0293 7.9912 19.2188 5.20528 24.082 3.12317C28.9453 1.04106 34.043 0 39.375 0C44.707 0 49.8047 1.04106 54.668 3.12317C59.5312 5.20528 63.7207 7.9912 67.2363 11.4809C70.752 14.9707 73.5498 19.1496 75.6299 24.0176C77.71 28.8856 78.75 33.9883 78.75 39.3255C78.75 48.0645 76.1426 55.9238 70.9277 62.9032L88.3301 80.3226C89.4434 81.437 90 82.7713 90 84.3255C90 85.8798 89.4434 87.2141 88.3301 88.3284ZM39.375 11.261C34.2773 11.261 29.5752 12.5073 25.2686 15C20.9619 17.4927 17.5488 20.9091 15.0293 25.2493C12.5098 29.5894 11.25 34.2962 11.25 39.3695C11.25 44.4428 12.5098 49.1496 15.0293 53.4897C17.5488 57.8299 20.9619 61.2463 25.2686 63.739C29.5752 66.2317 34.2773 67.478 39.375 67.478C44.4727 67.478 49.1748 66.2317 53.4814 63.739C57.7881 61.2463 61.2012 57.8299 63.7207 53.4897C66.2402 49.1496 67.5 44.4428 67.5 39.3695C67.5 34.2962 66.2402 29.5894 63.7207 25.2493C61.2012 20.9091 57.7881 17.4927 53.4814 15C49.1748 12.5073 44.4727 11.261 39.375 11.261Z" fill="white"/>
</svg>
