<svg width="170" height="50" viewBox="0 0 170 50" fill="none" xmlns="http://www.w3.org/2000/svg">
<path d="M168 0H2C0.89543 0 0 0.89543 0 2V48C0 49.1046 0.89543 50 2 50H168C169.105 50 170 49.1046 170 48V2C170 0.89543 169.105 0 168 0Z" fill="#D84545"/>
<path d="M56.6172 14.6816C56.6172 15.2207 56.6855 15.709 56.8223 16.1465C56.959 16.5801 57.1504 16.9492 57.3965 17.2539C57.6465 17.5586 57.9453 17.7949 58.293 17.9629C58.6445 18.127 59.0312 18.209 59.4531 18.209C59.8203 18.209 60.1484 18.1426 60.4375 18.0098C60.7305 17.877 60.9824 17.7031 61.1934 17.4883C61.4043 17.2695 61.5742 17.0234 61.7031 16.75C61.832 16.4766 61.918 16.1992 61.9609 15.918H63.0742C63.0508 16.168 62.9961 16.4238 62.9102 16.6855C62.8281 16.9434 62.7148 17.1953 62.5703 17.4414C62.4297 17.6836 62.2598 17.9141 62.0605 18.1328C61.8613 18.3477 61.6309 18.5352 61.3691 18.6953C61.1113 18.8555 60.8223 18.9824 60.502 19.0762C60.1816 19.1699 59.832 19.2168 59.4531 19.2168C59.1914 19.2168 58.9102 19.1895 58.6094 19.1348C58.3125 19.0801 58.0156 18.9883 57.7188 18.8594C57.4258 18.7305 57.1426 18.5586 56.8691 18.3438C56.5996 18.125 56.3613 17.8516 56.1543 17.5234C55.9473 17.1953 55.7812 16.8086 55.6562 16.3633C55.5312 15.9141 55.4688 15.3926 55.4688 14.7988C55.4688 14.2168 55.5234 13.6973 55.6328 13.2402C55.7461 12.7832 55.8984 12.3848 56.0898 12.0449C56.2852 11.7012 56.5117 11.4102 56.7695 11.1719C57.0312 10.9336 57.3105 10.7402 57.6074 10.5918C57.9043 10.4434 58.2129 10.3359 58.5332 10.2695C58.8535 10.2031 59.1719 10.1699 59.4883 10.1699C59.8789 10.1699 60.2344 10.2109 60.5547 10.293C60.8789 10.3711 61.168 10.4805 61.4219 10.6211C61.6797 10.7578 61.9043 10.918 62.0957 11.1016C62.2871 11.2852 62.4473 11.4805 62.5762 11.6875C62.709 11.8906 62.8105 12.0996 62.8809 12.3145C62.9551 12.5293 63 12.7383 63.0156 12.9414H61.8906C61.8164 12.6641 61.707 12.416 61.5625 12.1973C61.418 11.9785 61.2422 11.7949 61.0352 11.6465C60.832 11.4941 60.6016 11.3789 60.3438 11.3008C60.0898 11.2188 59.8164 11.1777 59.5234 11.1777C59.082 11.1777 58.6816 11.2598 58.3223 11.4238C57.9668 11.5879 57.6621 11.8223 57.4082 12.127C57.1543 12.4316 56.959 12.8008 56.8223 13.2344C56.6855 13.6641 56.6172 14.1465 56.6172 14.6816ZM64.4629 12.7246H65.541V15.7598L68.7109 12.7246H70.123L67.1758 15.4961L70.1699 19H68.7812L66.332 16.1523L65.541 16.8145V19H64.4629V12.7246ZM71.0254 14.6055C71.0371 14.2227 71.1094 13.9004 71.2422 13.6387C71.375 13.373 71.5547 13.1582 71.7812 12.9941C72.0078 12.8301 72.2754 12.7129 72.584 12.6426C72.8965 12.5684 73.2363 12.5312 73.6035 12.5312C73.9082 12.5312 74.2031 12.5625 74.4883 12.625C74.7773 12.6875 75.0332 12.7891 75.2559 12.9297C75.4785 13.0664 75.6562 13.2461 75.7891 13.4688C75.9258 13.6875 75.9941 13.9551 75.9941 14.2715V17.9219C75.9941 18.0234 76.0215 18.1113 76.0762 18.1855C76.1309 18.2559 76.2188 18.291 76.3398 18.291C76.3945 18.291 76.4512 18.2871 76.5098 18.2793C76.5684 18.2676 76.6289 18.2559 76.6914 18.2441V18.9883C76.6016 19.0117 76.5117 19.0332 76.4219 19.0527C76.3359 19.0723 76.2324 19.082 76.1113 19.082C75.9238 19.082 75.7617 19.0664 75.625 19.0352C75.4922 19.0039 75.3789 18.9531 75.2852 18.8828C75.1953 18.8086 75.125 18.7148 75.0742 18.6016C75.0234 18.4844 74.9902 18.3418 74.9746 18.1738C74.8418 18.3184 74.7012 18.4531 74.5527 18.5781C74.4043 18.6992 74.2383 18.8066 74.0547 18.9004C73.8711 18.9902 73.666 19.0605 73.4395 19.1113C73.2129 19.166 72.957 19.1934 72.6719 19.1934C72.4297 19.1934 72.1934 19.1543 71.9629 19.0762C71.7363 18.998 71.5312 18.8828 71.3477 18.7305C71.168 18.5781 71.0234 18.3906 70.9141 18.168C70.8047 17.9414 70.75 17.6797 70.75 17.3828C70.75 17.0586 70.8047 16.7793 70.9141 16.5449C71.0234 16.3066 71.166 16.1094 71.3418 15.9531C71.5176 15.793 71.7188 15.6699 71.9453 15.584C72.1719 15.498 72.4023 15.4414 72.6367 15.4141L74.4004 15.1973C74.5684 15.1777 74.6992 15.1133 74.793 15.0039C74.8906 14.8906 74.9395 14.7109 74.9395 14.4648C74.9395 14.0859 74.8145 13.8145 74.5645 13.6504C74.3184 13.4824 73.9629 13.3984 73.498 13.3984C73.0215 13.3984 72.666 13.5 72.4316 13.7031C72.1973 13.9023 72.0645 14.2031 72.0332 14.6055H71.0254ZM74.916 15.8066C74.8301 15.8691 74.7227 15.9219 74.5938 15.9648C74.4688 16.0039 74.3301 16.0371 74.1777 16.0645C74.0254 16.0918 73.8633 16.1172 73.6914 16.1406C73.5195 16.1602 73.3477 16.1816 73.1758 16.2051C72.9805 16.2324 72.8008 16.2715 72.6367 16.3223C72.4727 16.373 72.3301 16.4395 72.209 16.5215C72.0879 16.6035 71.9941 16.7031 71.9277 16.8203C71.8613 16.9336 71.8281 17.0684 71.8281 17.2246C71.8281 17.4043 71.8555 17.5625 71.9102 17.6992C71.9688 17.8359 72.0469 17.9512 72.1445 18.0449C72.2461 18.1387 72.3672 18.209 72.5078 18.2559C72.6484 18.3027 72.8027 18.3262 72.9707 18.3262C73.0762 18.3262 73.1973 18.3145 73.334 18.291C73.4707 18.2637 73.6113 18.2246 73.7559 18.1738C73.9004 18.123 74.041 18.0586 74.1777 17.9805C74.3184 17.8984 74.4434 17.8008 74.5527 17.6875C74.6621 17.5742 74.75 17.4453 74.8164 17.3008C74.8828 17.1562 74.916 16.9941 74.916 16.8145V15.8066ZM81.4961 16.4688C81.2617 16.5312 81.0039 16.584 80.7227 16.627C80.4453 16.6699 80.1855 16.6914 79.9434 16.6914C79.1035 16.6914 78.4805 16.5312 78.0742 16.2109C77.668 15.8867 77.4648 15.377 77.4648 14.6816V12.7246H78.543V14.4648C78.543 14.6992 78.5703 14.9023 78.625 15.0742C78.6836 15.2461 78.7773 15.3887 78.9062 15.502C79.0352 15.6113 79.2051 15.6934 79.416 15.748C79.627 15.8027 79.8867 15.8301 80.1953 15.8301C80.2773 15.8301 80.375 15.8223 80.4883 15.8066C80.6055 15.791 80.7246 15.7715 80.8457 15.748C80.9668 15.7246 81.084 15.6992 81.1973 15.6719C81.3145 15.6406 81.4141 15.6094 81.4961 15.5781V12.7246H82.5801V19H81.4961V16.4688ZM84.1621 14.6055C84.1738 14.2227 84.2461 13.9004 84.3789 13.6387C84.5117 13.373 84.6914 13.1582 84.918 12.9941C85.1445 12.8301 85.4121 12.7129 85.7207 12.6426C86.0332 12.5684 86.373 12.5312 86.7402 12.5312C87.0449 12.5312 87.3398 12.5625 87.625 12.625C87.9141 12.6875 88.1699 12.7891 88.3926 12.9297C88.6152 13.0664 88.793 13.2461 88.9258 13.4688C89.0625 13.6875 89.1309 13.9551 89.1309 14.2715V17.9219C89.1309 18.0234 89.1582 18.1113 89.2129 18.1855C89.2676 18.2559 89.3555 18.291 89.4766 18.291C89.5312 18.291 89.5879 18.2871 89.6465 18.2793C89.7051 18.2676 89.7656 18.2559 89.8281 18.2441V18.9883C89.7383 19.0117 89.6484 19.0332 89.5586 19.0527C89.4727 19.0723 89.3691 19.082 89.248 19.082C89.0605 19.082 88.8984 19.0664 88.7617 19.0352C88.6289 19.0039 88.5156 18.9531 88.4219 18.8828C88.332 18.8086 88.2617 18.7148 88.2109 18.6016C88.1602 18.4844 88.127 18.3418 88.1113 18.1738C87.9785 18.3184 87.8379 18.4531 87.6895 18.5781C87.541 18.6992 87.375 18.8066 87.1914 18.9004C87.0078 18.9902 86.8027 19.0605 86.5762 19.1113C86.3496 19.166 86.0938 19.1934 85.8086 19.1934C85.5664 19.1934 85.3301 19.1543 85.0996 19.0762C84.873 18.998 84.668 18.8828 84.4844 18.7305C84.3047 18.5781 84.1602 18.3906 84.0508 18.168C83.9414 17.9414 83.8867 17.6797 83.8867 17.3828C83.8867 17.0586 83.9414 16.7793 84.0508 16.5449C84.1602 16.3066 84.3027 16.1094 84.4785 15.9531C84.6543 15.793 84.8555 15.6699 85.082 15.584C85.3086 15.498 85.5391 15.4414 85.7734 15.4141L87.5371 15.1973C87.7051 15.1777 87.8359 15.1133 87.9297 15.0039C88.0273 14.8906 88.0762 14.7109 88.0762 14.4648C88.0762 14.0859 87.9512 13.8145 87.7012 13.6504C87.4551 13.4824 87.0996 13.3984 86.6348 13.3984C86.1582 13.3984 85.8027 13.5 85.5684 13.7031C85.334 13.9023 85.2012 14.2031 85.1699 14.6055H84.1621ZM88.0527 15.8066C87.9668 15.8691 87.8594 15.9219 87.7305 15.9648C87.6055 16.0039 87.4668 16.0371 87.3145 16.0645C87.1621 16.0918 87 16.1172 86.8281 16.1406C86.6562 16.1602 86.4844 16.1816 86.3125 16.2051C86.1172 16.2324 85.9375 16.2715 85.7734 16.3223C85.6094 16.373 85.4668 16.4395 85.3457 16.5215C85.2246 16.6035 85.1309 16.7031 85.0645 16.8203C84.998 16.9336 84.9648 17.0684 84.9648 17.2246C84.9648 17.4043 84.9922 17.5625 85.0469 17.6992C85.1055 17.8359 85.1836 17.9512 85.2812 18.0449C85.3828 18.1387 85.5039 18.209 85.6445 18.2559C85.7852 18.3027 85.9395 18.3262 86.1074 18.3262C86.2129 18.3262 86.334 18.3145 86.4707 18.291C86.6074 18.2637 86.748 18.2246 86.8926 18.1738C87.0371 18.123 87.1777 18.0586 87.3145 17.9805C87.4551 17.8984 87.5801 17.8008 87.6895 17.6875C87.7988 17.5742 87.8867 17.4453 87.9531 17.3008C88.0195 17.1562 88.0527 16.9941 88.0527 16.8145V15.8066ZM92.5234 13.6621H90.3613V12.7246H95.7637V13.6621H93.6016V19H92.5234V13.6621ZM96.8535 12.7246H97.9316V15.0859H99.6719C100.016 15.0859 100.322 15.1328 100.592 15.2266C100.861 15.3164 101.09 15.4473 101.277 15.6191C101.465 15.7871 101.607 15.9922 101.705 16.2344C101.807 16.4727 101.857 16.7422 101.857 17.043C101.857 17.3477 101.807 17.6211 101.705 17.8633C101.607 18.1016 101.465 18.3066 101.277 18.4785C101.09 18.6465 100.861 18.7754 100.592 18.8652C100.322 18.9551 100.016 19 99.6719 19H96.8535V12.7246ZM97.9316 18.1387H99.4609C99.6484 18.1387 99.8223 18.1191 99.9824 18.0801C100.146 18.041 100.287 17.9785 100.404 17.8926C100.521 17.8027 100.613 17.6895 100.68 17.5527C100.746 17.4121 100.779 17.2422 100.779 17.043C100.779 16.8477 100.744 16.6816 100.674 16.5449C100.607 16.4082 100.512 16.2969 100.387 16.2109C100.266 16.1211 100.117 16.0566 99.9414 16.0176C99.7695 15.9746 99.5762 15.9531 99.3613 15.9531H97.9316V18.1387ZM106.193 12.7246H108.865C109.631 12.7246 110.203 12.8672 110.582 13.1523C110.965 13.4375 111.156 13.8516 111.156 14.3945C111.156 14.6836 111.086 14.9277 110.945 15.127C110.805 15.3262 110.619 15.502 110.389 15.6543C110.721 15.7793 110.984 15.959 111.18 16.1934C111.375 16.4277 111.473 16.7305 111.473 17.1016C111.473 17.3945 111.424 17.6582 111.326 17.8926C111.229 18.127 111.08 18.3262 110.881 18.4902C110.682 18.6543 110.428 18.7812 110.119 18.8711C109.814 18.957 109.453 19 109.035 19H106.193V12.7246ZM107.271 18.1387H108.912C109.197 18.1387 109.434 18.1172 109.621 18.0742C109.812 18.0273 109.965 17.9609 110.078 17.875C110.191 17.7891 110.271 17.6855 110.318 17.5645C110.365 17.4434 110.389 17.3066 110.389 17.1543C110.389 17.002 110.365 16.8652 110.318 16.7441C110.271 16.6191 110.191 16.5156 110.078 16.4336C109.965 16.3477 109.812 16.2832 109.621 16.2402C109.434 16.1934 109.197 16.1699 108.912 16.1699H107.271V18.1387ZM107.271 15.3789H108.9C109.264 15.3789 109.551 15.3066 109.762 15.1621C109.973 15.0176 110.078 14.793 110.078 14.4883C110.078 14.3164 110.049 14.1738 109.99 14.0605C109.932 13.9434 109.854 13.8496 109.756 13.7793C109.658 13.709 109.547 13.6602 109.422 13.6328C109.301 13.6016 109.176 13.5859 109.047 13.5859H107.271V15.3789Z" fill="white"/>
<path d="M63.8438 41L62.2441 36.9131H57.0938L55.5117 41H54L59.0801 28.0977H60.3369L65.3906 41H63.8438ZM61.7783 35.5684L60.2842 31.5869C60.0908 31.083 59.8916 30.4648 59.6865 29.7324C59.5576 30.2949 59.373 30.9131 59.1328 31.5869L57.6211 35.5684H61.7783ZM71.4199 41.1758C70.793 41.1758 70.2188 41.0615 69.6973 40.833C69.1816 40.5986 68.748 40.2412 68.3965 39.7607H68.291C68.3613 40.3232 68.3965 40.8564 68.3965 41.3604V45.3242H66.9375V31.3672H68.124L68.3262 32.6855H68.3965C68.7715 32.1582 69.208 31.7773 69.7061 31.543C70.2041 31.3086 70.7754 31.1914 71.4199 31.1914C72.6973 31.1914 73.6816 31.6279 74.373 32.501C75.0703 33.374 75.4189 34.5986 75.4189 36.1748C75.4189 37.7568 75.0645 38.9873 74.3555 39.8662C73.6523 40.7393 72.6738 41.1758 71.4199 41.1758ZM71.209 32.4307C70.2246 32.4307 69.5127 32.7031 69.0732 33.248C68.6338 33.793 68.4082 34.6602 68.3965 35.8496V36.1748C68.3965 37.5283 68.6221 38.498 69.0732 39.084C69.5244 39.6641 70.248 39.9541 71.2441 39.9541C72.0762 39.9541 72.7266 39.6172 73.1953 38.9434C73.6699 38.2695 73.9072 37.3408 73.9072 36.1572C73.9072 34.9561 73.6699 34.0361 73.1953 33.3975C72.7266 32.7529 72.0645 32.4307 71.209 32.4307ZM82.459 41.1758C81.832 41.1758 81.2578 41.0615 80.7363 40.833C80.2207 40.5986 79.7871 40.2412 79.4355 39.7607H79.3301C79.4004 40.3232 79.4355 40.8564 79.4355 41.3604V45.3242H77.9766V31.3672H79.1631L79.3652 32.6855H79.4355C79.8105 32.1582 80.2471 31.7773 80.7451 31.543C81.2432 31.3086 81.8145 31.1914 82.459 31.1914C83.7363 31.1914 84.7207 31.6279 85.4121 32.501C86.1094 33.374 86.458 34.5986 86.458 36.1748C86.458 37.7568 86.1035 38.9873 85.3945 39.8662C84.6914 40.7393 83.7129 41.1758 82.459 41.1758ZM82.248 32.4307C81.2637 32.4307 80.5518 32.7031 80.1123 33.248C79.6729 33.793 79.4473 34.6602 79.4355 35.8496V36.1748C79.4355 37.5283 79.6611 38.498 80.1123 39.084C80.5635 39.6641 81.2871 39.9541 82.2832 39.9541C83.1152 39.9541 83.7656 39.6172 84.2344 38.9434C84.709 38.2695 84.9463 37.3408 84.9463 36.1572C84.9463 34.9561 84.709 34.0361 84.2344 33.3975C83.7656 32.7529 83.1035 32.4307 82.248 32.4307ZM101.162 37.5811C101.162 38.7119 100.752 39.5938 99.9316 40.2266C99.1113 40.8594 97.998 41.1758 96.5918 41.1758C95.0684 41.1758 93.8965 40.9795 93.0762 40.5869V39.1455C93.6035 39.3682 94.1777 39.5439 94.7988 39.6729C95.4199 39.8018 96.0352 39.8662 96.6445 39.8662C97.6406 39.8662 98.3906 39.6787 98.8945 39.3037C99.3984 38.9229 99.6504 38.3955 99.6504 37.7217C99.6504 37.2764 99.5596 36.9131 99.3779 36.6318C99.2021 36.3447 98.9033 36.0811 98.4814 35.8408C98.0654 35.6006 97.4297 35.3281 96.5742 35.0234C95.3789 34.5957 94.5234 34.0889 94.0078 33.5029C93.498 32.917 93.2432 32.1523 93.2432 31.209C93.2432 30.2188 93.6152 29.4307 94.3594 28.8447C95.1035 28.2588 96.0879 27.9658 97.3125 27.9658C98.5898 27.9658 99.7646 28.2002 100.837 28.6689L100.371 29.9697C99.3105 29.5244 98.2793 29.3018 97.2773 29.3018C96.4863 29.3018 95.8682 29.4717 95.4229 29.8115C94.9775 30.1514 94.7549 30.623 94.7549 31.2266C94.7549 31.6719 94.8369 32.0381 95.001 32.3252C95.165 32.6064 95.4404 32.8672 95.8271 33.1074C96.2197 33.3418 96.8174 33.6025 97.6201 33.8896C98.9678 34.3701 99.8936 34.8857 100.397 35.4365C100.907 35.9873 101.162 36.7021 101.162 37.5811ZM106.682 39.9717C106.939 39.9717 107.188 39.9541 107.429 39.9189C107.669 39.8779 107.859 39.8369 108 39.7959V40.9121C107.842 40.9883 107.607 41.0498 107.297 41.0967C106.992 41.1494 106.717 41.1758 106.471 41.1758C104.607 41.1758 103.676 40.1943 103.676 38.2314V32.501H102.296V31.7979L103.676 31.1914L104.291 29.1348H105.135V31.3672H107.93V32.501H105.135V38.1699C105.135 38.75 105.272 39.1953 105.548 39.5059C105.823 39.8164 106.201 39.9717 106.682 39.9717ZM118.248 36.1748C118.248 37.7451 117.853 38.9727 117.062 39.8574C116.271 40.7363 115.178 41.1758 113.783 41.1758C112.922 41.1758 112.157 40.9736 111.489 40.5693C110.821 40.165 110.306 39.585 109.942 38.8291C109.579 38.0732 109.397 37.1885 109.397 36.1748C109.397 34.6045 109.79 33.3828 110.575 32.5098C111.36 31.6309 112.45 31.1914 113.845 31.1914C115.192 31.1914 116.262 31.6396 117.053 32.5361C117.85 33.4326 118.248 34.6455 118.248 36.1748ZM110.909 36.1748C110.909 37.4053 111.155 38.3428 111.647 38.9873C112.14 39.6318 112.863 39.9541 113.818 39.9541C114.773 39.9541 115.497 39.6348 115.989 38.9961C116.487 38.3516 116.736 37.4111 116.736 36.1748C116.736 34.9502 116.487 34.0215 115.989 33.3887C115.497 32.75 114.768 32.4307 113.801 32.4307C112.846 32.4307 112.125 32.7441 111.639 33.3711C111.152 33.998 110.909 34.9326 110.909 36.1748ZM125.209 31.1914C125.637 31.1914 126.021 31.2266 126.36 31.2969L126.158 32.6504C125.76 32.5625 125.408 32.5186 125.104 32.5186C124.324 32.5186 123.656 32.835 123.1 33.4678C122.549 34.1006 122.273 34.8887 122.273 35.832V41H120.814V31.3672H122.019L122.186 33.1514H122.256C122.613 32.5244 123.044 32.041 123.548 31.7012C124.052 31.3613 124.605 31.1914 125.209 31.1914ZM132.231 41.1758C130.808 41.1758 129.683 40.7422 128.856 39.875C128.036 39.0078 127.626 37.8037 127.626 36.2627C127.626 34.71 128.007 33.4766 128.769 32.5625C129.536 31.6484 130.564 31.1914 131.854 31.1914C133.061 31.1914 134.016 31.5898 134.719 32.3867C135.422 33.1777 135.773 34.2236 135.773 35.5244V36.4473H129.138C129.167 37.5781 129.451 38.4365 129.99 39.0225C130.535 39.6084 131.3 39.9014 132.284 39.9014C133.321 39.9014 134.347 39.6846 135.36 39.251V40.5518C134.845 40.7744 134.355 40.9326 133.893 41.0264C133.436 41.126 132.882 41.1758 132.231 41.1758ZM131.836 32.4131C131.062 32.4131 130.444 32.665 129.981 33.1689C129.524 33.6729 129.255 34.3701 129.173 35.2607H134.209C134.209 34.3408 134.004 33.6377 133.594 33.1514C133.184 32.6592 132.598 32.4131 131.836 32.4131Z" fill="white"/>
<path fill-rule="evenodd" clip-rule="evenodd" d="M36.2103 24.425C36.1781 20.7621 39.1346 18.98 39.2698 18.8971C37.5954 16.3933 35.0002 16.0513 34.0882 16.024C31.9086 15.7887 29.7943 17.3616 28.684 17.3616C27.5515 17.3616 25.8417 16.0467 23.9989 16.0854C21.6276 16.1229 19.4091 17.531 18.1924 19.7176C15.6815 24.1761 17.5542 30.728 19.9599 34.3319C21.1633 36.098 22.5695 38.0675 24.41 37.9982C26.2107 37.9232 26.8833 36.8208 29.0563 36.8208C31.2094 36.8208 31.841 37.9982 33.7181 37.9528C35.6507 37.9232 36.8674 36.181 38.0287 34.3989C39.4194 32.3782 39.9778 30.3837 40 30.2814C39.9557 30.2666 36.2479 28.8153 36.2103 24.425Z" fill="white"/>
<path fill-rule="evenodd" clip-rule="evenodd" d="M32.4478 13.8586C33.465 12.5599 34.1609 10.793 33.9677 9C32.4955 9.06654 30.6543 10.0397 29.594 11.3099C28.6559 12.4292 27.818 14.2638 28.0344 15.9891C29.6883 16.115 31.3863 15.1371 32.4478 13.8586Z" fill="white"/>
</svg>
