<svg xmlns="http://www.w3.org/2000/svg" viewBox="0 0 100 125"><path d="M42.9 63.238c2.2 2.3 4.8 3.7 7.3 4 2.5.2 5.2-.6 8.2-3.9.9-1 1.9-2.2 3.6-2.8 1.7-.6 3.7-.2 5.9 1 4.1 3.1 8.4 6.3 12.5 9.5 1.9 1.9 2.4 4.5 1.8 6.5-.6 2-2 3.5-3.2 4.8-6.9 7.2-15.1 10.7-23.1 9.5-7.8-1.3-15.3-6.8-23.6-15.1l-9.9-9.9c-8.3-8.3-13.7-15.8-15.1-23.6-1.6-9.6 3.5-17.4 9.5-23.1 1.3-1.2 2.8-2.6 4.8-3.2s4.6-.1 6.5 1.8c3.2 4.1 6.4 8.3 9.5 12.5 1.2 2.2 1.5 4.2 1 5.9-.6 1.7-1.8 2.7-2.8 3.6-3.3 3-4.2 5.7-3.9 8.2.3 2.5 1.7 5.1 4 7.3m-2.9 2.8c-2.7-2.6-4.8-5.9-5.1-9.7-.4-3.8 1.2-8 5.2-11.6 1-.9 1.5-1.5 1.7-1.9.1-.4.2-1.1-.6-2.6l-8.9-11.6c-1.1-1.1-1.6-1.1-2.5-.8-.9.3-2.1 1.2-3.2 2.3-7.2 7.2-9.4 13.2-8.3 19.6 1.1 6.4 5.9 13.4 14 21.4l9.9 9.9c8.1 8.1 15.1 12.9 21.4 14 6.4 1.1 12.4-1.1 19.6-8.3 1.1-1.1 2-2.3 2.3-3.2.3-.9.3-1.3-.8-2.5l-11.6-8.9c-1.6-.8-2.2-.8-2.6-.6-.4.1-1 .7-1.9 1.7-3.6 4-7.7 5.6-11.6 5.2-3.8-.4-7.1-2.5-9.7-5.1m4.6-56.2c.1 1 1.1 1.9 2.1 1.9 23.2 0 42 18.8 42 42 0 1.1.9 2 2 2s2-1 2-2c0-25.4-20.6-46-46-46-1.2 0-2.1 1-2.1 2.1zm0 12c.1 1 1.1 1.9 2.1 1.9 16.6 0 30 13.4 30 30 0 1.1.9 2 2 2s2-1 2-2c0-18.8-15.2-34-34-34-1.2 0-2.1 1.1-2.1 2.1z"/></svg>