<svg xmlns="http://www.w3.org/2000/svg" viewBox="0 0 100 125"><path d="M78.8 76.6H21.2c-3.8 0-6.8-3.1-6.8-6.8V30.2c0-3.8 3.1-6.8 6.8-6.8h57.7c3.8 0 6.8 3.1 6.8 6.8v39.6c0 3.8-3.1 6.8-6.9 6.8zM21.2 26.4c-2.1 0-3.8 1.7-3.8 3.8v39.6c0 2.1 1.7 3.8 3.8 3.8h57.7c2.1 0 3.8-1.7 3.8-3.8V30.2c0-2.1-1.7-3.8-3.8-3.8H21.2zm52.3 39.2c-.4 0-.7-.1-1-.4L58.3 51.9l-6.8 6.6c-.6.6-1.5.6-2.1 0l-7.6-7.2-14.2 13.8c-.6.6-1.5.6-2.1 0-.6-.6-.6-1.5 0-2.1l14.1-13.7L25.5 36c-.6-.6-.6-1.5-.1-2.1s1.5-.6 2.1-.1l22.9 21.5 22-21.4c.6-.6 1.5-.6 2.1 0 .6.6.6 1.5 0 2.1L60.4 49.8 74.5 63c.6.6.6 1.5.1 2.1-.3.3-.7.5-1.1.5z"/></svg>