<svg xmlns="http://www.w3.org/2000/svg" viewBox="0 0 100 125"><path d="M50 20c-16.5 0-30 13.5-30 30s13.5 30 30 30 30-13.5 30-30-13.5-30-30-30zm0 57c-14.9 0-27-12.1-27-27s12.1-27 27-27 27 12.1 27 27-12.1 27-27 27zm0-49.7c-12.5 0-22.7 10.2-22.7 22.7S37.5 72.7 50 72.7 72.7 62.5 72.7 50 62.5 27.3 50 27.3zm0 42.4c-10.9 0-19.7-8.8-19.7-19.7S39.1 30.3 50 30.3 69.7 39.1 69.7 50 60.9 69.7 50 69.7zM61 50c0 .8-.7 1.5-1.5 1.5H50c-.8 0-1.5-.7-1.5-1.5V37.5c0-.8.7-1.5 1.5-1.5s1.5.7 1.5 1.5v11h8c.8 0 1.5.7 1.5 1.5z"/></svg>