<svg xmlns="http://www.w3.org/2000/svg" viewBox="0 0 100 125"><path d="M10.7 60h4.5c.7 0 1.4.5 1.6 1.2.5 1.5 1.1 2.9 1.8 4.3.3.7.2 1.5-.3 2l-3.2 3.2c-2.2 2.2-2.2 5.8 0 8l6.1 6.1c1.1 1.1 2.5 1.7 4 1.7s2.9-.6 4-1.7l3.2-3.2c.5-.5 1.3-.6 2-.3 1.4.7 2.8 1.3 4.3 1.8.7.2 1.2.9 1.2 1.6v4.5c0 3.1 2.5 5.7 5.7 5.7h8.6c3.1 0 5.7-2.5 5.7-5.7v-4.5c0-.7.5-1.4 1.2-1.6 1.5-.5 2.9-1.1 4.3-1.8.7-.3 1.5-.2 2 .3l3.2 3.2c1.1 1.1 2.5 1.7 4 1.7s2.9-.6 4-1.7l6.1-6.1c2.2-2.2 2.2-5.8 0-8l-3.2-3.2c-.5-.5-.6-1.3-.3-2 .7-1.4 1.3-2.8 1.8-4.3.2-.7.9-1.2 1.6-1.2h4.5c3.1 0 5.7-2.5 5.7-5.7v-8.6c0-3.1-2.5-5.7-5.7-5.7h-4.5c-.7 0-1.4-.5-1.6-1.2-.5-1.5-1.1-2.9-1.8-4.3-.3-.7-.2-1.5.3-2l3.2-3.2c2.2-2.2 2.2-5.8 0-8l-6.1-6.1c-1.1-1.1-2.5-1.7-4-1.7s-2.9.6-4 1.7l-3.2 3.2c-.5.5-1.3.6-2 .3-1.4-.7-2.8-1.3-4.3-1.8-.7-.2-1.2-.9-1.2-1.6v-4.5C60 7.5 57.5 5 54.3 5h-8.6C42.5 5 40 7.5 40 10.7v4.5c0 .7-.5 1.4-1.2 1.6-1.5.5-2.9 1.1-4.3 1.8-.7.3-1.5.2-2-.3l-3.2-3.2c-1.1-1.1-2.5-1.7-4-1.7s-2.9.6-4 1.7l-6.1 6.1c-2.2 2.2-2.2 5.8 0 8l3.2 3.2c.5.5.6 1.3.3 2-.7 1.4-1.3 2.8-1.8 4.3-.2.7-.9 1.2-1.6 1.2h-4.5C7.5 40 5 42.5 5 45.7v8.6c0 3.2 2.5 5.7 5.7 5.7zM9 45.7c0-.9.8-1.7 1.7-1.7h4.5c2.4 0 4.6-1.6 5.4-3.9.4-1.3 1-2.6 1.6-3.8 1.1-2.2.7-4.9-1-6.6L18 26.4c-.7-.7-.7-1.7 0-2.4l6.1-6.1c.6-.6 1.7-.6 2.4 0l3.2 3.2c1.7 1.7 4.4 2.1 6.6 1 1.2-.6 2.5-1.1 3.8-1.6 2.3-.8 3.9-3 3.9-5.4v-4.5c0-.8.8-1.6 1.7-1.6h8.6c.9 0 1.7.8 1.7 1.7v4.5c0 2.4 1.6 4.6 3.9 5.4 1.3.4 2.6 1 3.8 1.6 2.2 1.1 4.9.7 6.6-1l3.2-3.2c.6-.6 1.7-.6 2.4 0l6.1 6.1c.7.7.7 1.7 0 2.4l-3.2 3.2c-1.7 1.7-2.1 4.4-1 6.6.6 1.2 1.1 2.5 1.6 3.8.8 2.3 3 3.9 5.4 3.9h4.5c.9 0 1.7.8 1.7 1.7v8.6c0 .9-.8 1.7-1.7 1.7h-4.5c-2.4 0-4.6 1.6-5.4 3.9-.4 1.3-1 2.6-1.6 3.8-1.1 2.2-.7 4.9 1 6.6l3.2 3.2c.7.7.7 1.7 0 2.4L75.9 82c-.6.6-1.7.6-2.4 0l-3.2-3.2c-1.7-1.7-4.4-2.1-6.6-1-1.2.6-2.5 1.1-3.8 1.6-2.3.8-3.9 3-3.9 5.4v4.5c0 .9-.8 1.7-1.7 1.7h-8.6c-.9 0-1.7-.8-1.7-1.7v-4.5c0-2.4-1.6-4.6-3.9-5.4-1.3-.4-2.6-1-3.8-1.6-.8-.4-1.7-.6-2.6-.6-1.5 0-2.9.6-4 1.6L26.4 82c-.6.6-1.7.6-2.4 0l-6-6.1c-.7-.7-.7-1.7 0-2.4l3.2-3.2c1.7-1.7 2.1-4.4 1-6.6-.6-1.2-1.1-2.5-1.6-3.8-.8-2.3-3-3.9-5.4-3.9h-4.5c-.9 0-1.7-.8-1.7-1.7v-8.6z"/><path d="M50 69c10.5 0 19-8.5 19-19s-8.5-19-19-19-19 8.5-19 19 8.5 19 19 19zm0-34c8.3 0 15 6.7 15 15s-6.7 15-15 15-15-6.7-15-15 6.7-15 15-15z"/></svg>