<svg xmlns="http://www.w3.org/2000/svg" viewBox="0 0 100 125"><path d="M50 91.3c-.8 0-1.5-.3-2-.9-1.1-1.4-27-34.2-27-52.7 0-16 13-29 29-29s29 13 29 29C79 56.2 53.1 89 52 90.4c-.5.6-1.2.9-2 .9zm0-77.6c-13.2 0-24 10.8-24 24 0 14 18 39 24 47.1 6-8 24-33.1 24-47.1 0-13.3-10.8-24-24-24zm0 36.8c-7.1 0-12.8-5.7-12.8-12.8 0-7.1 5.7-12.8 12.8-12.8s12.8 5.7 12.8 12.8c0 1.4-1.1 2.5-2.5 2.5s-2.5-1.1-2.5-2.5c0-4.3-3.5-7.8-7.8-7.8s-7.8 3.5-7.8 7.8 3.5 7.8 7.8 7.8c2.3 0 4.5-1 6-2.8.9-1.1 2.5-1.2 3.5-.3 1.1.9 1.2 2.5.3 3.5-2.4 2.9-6 4.6-9.8 4.6z"/></svg>