<svg id="svg2" xmlns="http://www.w3.org/2000/svg" xmlns:xlink="http://www.w3.org/1999/xlink" viewBox="0 0 793.7 266.8"><style>.st0{enable-background:new}.st1{fill:#fff}.st2{clip-path:url(#SVGID_2_)}.st3{fill:#c30a0c}</style><g class="st0"><path class="st1" d="M324.4 155.9c-.7 0-.9-.5-.9-1.7 0-.7 0-1.2.1-1.7l.7-2.9c.1-.5.1-.8.3-1.1 0-.3.1-.5.1-.8 0-.8-.1-1.1-.5-1.1s-.9.7-1.6 2.1l-23.3 51.1c-1.5 2.9-2.9 4.4-4.5 4.4h-14.1c-.7 0-.9-.5-.9-1.5 0-.3 0-.5.1-.8 0-.3.1-.7.3-1.1l16.1-76.3c.4-2.3 1.1-3.3 2.1-3.3h17.1c1.3 0 2 1.1 2 3.1 0 .9-.1 2.1-.4 3.5l-9.1 42.9 18.9-40.7c2.9-5.9 5.9-8.9 8.8-8.9h12c2.1 0 3.1 1.6 3.1 4.8 0 .8-.1 1.6-.3 2.4-.1.8-.3 1.7-.5 2.8l-4.5 21.6c-.5 2.3-1.2 3.3-2.1 3.3h-18.8v-.1z"/></g><g class="st0"><path class="st1" d="M343.5 204c-4.5 0-6.8-2.5-6.8-7.6 0-6.1 1.5-12.5 4.5-19.5l10.7-24.4c.8-2 1.7-3.6 2.5-4.5s1.9-1.5 3.1-1.5h14.9c1.2 0 1.9.7 1.9 2 0 1.1-.3 2.4-.9 4L357.9 188c-.8 2.4-1.3 4.3-1.3 5.6 0 1.6.5 2.4 1.7 2.4h9.3c1.1 0 1.7-1.1 2.3-3.2l11.2-53.9c.5-2.4.7-4.1.7-5.5 0-2.9-.9-4.4-2.9-4.4h-20.1c-.3 0-.4-.3-.4-.7 0-.1 0-.3.1-.4 0-.1.1-.4.1-.5l.9-4.7c.1-1.1.4-1.7.9-1.7h38.4c3.3 0 5.1 2.5 5.1 7.7 0 2.1-.4 5.1-1.1 8.9l-11.6 55.2c-.1.5-.1 1.1-.1 1.7 0 1.1.3 1.6.9 1.6h16.1c.3 0 .4.3.4.9l-.9 5.3c-.3 1.1-.7 1.7-1.1 1.7h-63.1z"/></g><g class="st0"><path class="st1" d="M471.7 204c-.7 0-.9-.5-.9-1.7 0-.7 0-1.2.1-1.7l10.9-51.1c.1-.5.1-.9.3-1.2 0-.3.1-.5.1-.8 0-.8-.1-1.1-.4-1.1-.5 0-1.1.7-1.7 2.1l-23.3 51.1c-1.5 2.9-2.9 4.4-4.5 4.4h-14.1c-.7 0-.9-.5-.9-1.5 0-.3 0-.5.1-.8 0-.3.1-.7.3-1.1l10.8-51.1c.1-.5.1-.8.3-1.1 0-.3.1-.5.1-.8 0-.8-.1-1.1-.5-1.1s-.9.7-1.6 2.1l-23.3 51.1c-1.5 2.9-2.9 4.4-4.5 4.4h-14.1c-.7 0-.9-.5-.9-1.5 0-.3 0-.5.1-.8 0-.3.1-.7.3-1.1l16.1-76.3c.4-2.3 1.1-3.3 2.1-3.3h17.1c1.3 0 2 1.1 2 3.1 0 .9-.1 2.1-.4 3.5l-9.1 42.9 18.9-40.7c2.9-5.9 5.9-8.9 8.8-8.9h12c2.1 0 3.1 1.6 3.1 4.8 0 .8-.1 1.6-.3 2.4-.1.8-.3 1.7-.5 2.8l-8.4 39.6 18.9-40.7c2.9-5.9 5.7-8.9 8.7-8.9h12.1c2.1 0 3.1 1.6 3.1 4.8 0 .8-.1 1.6-.3 2.4-.1.8-.3 1.7-.5 2.8l-13.1 61.9c-.1.5-.1 1.1-.1 1.7 0 1.1.3 1.6.9 1.6H512c.1 0 .3.3.3.7v.9l-1.1 4.7c-.1 1.1-.5 1.7-.9 1.7h-38.5v-.2z"/></g><g class="st0"><path class="st1" d="M568.4 180c-1.7 8.1-3.9 14.1-6.5 18.1-2.7 4-6 6-10 6H517c-5.3 0-8-3.9-8-11.5 0-3.3.5-7.6 1.7-12.7L518 145c1.7-8.1 3.9-14.1 6.5-18.1 2.7-4 6-6 10-6h34.8c5.3 0 8 3.9 8 11.6 0 1.7-.1 3.7-.4 5.7s-.7 4.3-1.1 6.8l-7.4 35zm-38.3 9.6c-.3 1.5-.4 2.5-.4 3.3 0 1.9.7 2.8 1.9 2.8h9.2c1.9 0 3.2-2 4.1-6.1l11.5-54c.1-.7.1-1.2.3-1.7 0-.5.1-.9.1-1.5 0-2-.7-3.1-1.9-3.1h-9.2c-1.7 0-3.1 2-4 6.1l-11.6 54.2z"/></g><g class="st0"><path class="st1" d="M577.7 166.3c-1.1 0-1.7-.9-1.7-2.7v-1.3c0-.5.1-.9.3-1.6l3.3-15.7c1.7-8.1 3.9-14.1 6.5-18.1 2.7-4 6-6 10-6h37.2c.5 0 .8.5.8 1.5v.9c0 .3 0 .7-.1 1.1l-.4 2c-.5 2-1.2 2.9-2.1 2.9h-24c-1.9 0-3.2 2-4.1 6.1l-4.1 19.5c-.1.5-.1 1.1-.1 1.7 0 1.1.3 1.6.9 1.6h26.7c1.1 0 1.7.9 1.7 2.8 0 .4 0 .8-.1 1.3 0 .5-.1.9-.3 1.5l-3.5 16.5c-1.7 8.1-3.9 14.1-6.5 18.1-2.7 4-6 6-10 6H562c-.7 0-.9-.5-.9-1.5 0-.3 0-.5.1-.8 0-.3.1-.7.3-1.1l.3-2c.1-.9.5-1.6.8-2.1.4-.5.8-.7 1.3-.7h33.2c1.9 0 3.2-2 4.1-6l3.7-17.9c.4-1.5.5-2.8.5-4 0-1.1-.3-1.7-.8-1.7h-26.8v-.3z"/></g><g id="g16"><defs><path id="SVGID_1_" d="M-132.3-44.5H926v355.7H-132.3z"/></defs><clipPath id="SVGID_2_"><use xlink:href="#SVGID_1_" overflow="visible"/></clipPath><g id="g18" class="st2"><g id="g24" transform="translate(157.852 100.943)"><path id="path26" class="st3" d="M52.6 31.3V31c-.3 2.4-1.1 3.6-2.4 3.6H8.1c-.7 0-1.2-.3-1.3-.8-.3-.5-.4-1.3-.4-2.4 0-.4 0-1.2.3-2.7l1.2-5.6c.4-2.1 1.2-3.2 2.7-3.2h42.1c1.2 0 1.9.9 1.9 2.8 0 .8-.1 1.6-.3 2.4l-1.7 6.2z"/></g><g id="g28" transform="translate(193.401 49.796)"><path id="path30" class="st3" d="M64.5 150.6c-.3 2.4-1.1 3.6-2.4 3.6h-70c-9.3 0-15.6-7.5-18.5-22.1v.1c-1.3-5.5-2-11.9-2-19.2-.1-2.9-.1-6 .1-9.3.3-3.2.4-6.7.7-10.3 0-.3 0-.5.1-.7.1-.3.1-.3.3-.3h40.9c.1 0 .3.3.4.7.1.5.1.9 0 1.3l-1.7 9.6c-.9 6-1.7 11.2-2.3 15.6-.7 4.4-.8 8.1-.7 11.2v.5c.1 5.7 2.3 8.7 6.7 8.7h10.8l8.4-46.9c0-.1.1-.3.4-.7h38.5c.3 0 .4.3.5.7.1.5.1.9 0 1.3l-10.2 56.2z"/></g><g id="g32" transform="translate(159.803 114.892)"><path id="path34" class="st3" d="M53.3-1.3v.8H12.1c-.3 0-.4-.3-.4-.8v-1.6c1.9-7.2 4-13.9 6.5-20.1 2.4-6.3 5.3-12.1 8.5-17.6C35-54.8 43.8-61.8 53.1-61.8h62.8c.7 0 1.1.3 1.3.9.3.7.4 1.3.7 2.1v1.1c0 .3-.1.7-.1 1.1l-1.3 6c-.4 2.3-1.2 3.3-2.4 3.3H72.9c-4.5 0-8 2.7-10.4 8-1.2 2.7-2.3 6.1-3.3 10.4-.9 4.3-2 9.2-3.2 14.8L53.3-1.3z"/></g><g id="g36" transform="translate(206 100.943)"><path id="path38" class="st3" d="M68.7 31.3V31c-.3 2.4-1.1 3.6-2.4 3.6H25.7c-1.1 0-1.7-1.1-2-3.2 0-.1 0-.4.3-.9.1-.4.3-1.1.3-1.7l1.2-5.6c.1-1.1.4-1.9.9-2.4s.9-.8 1.5-.8h40.8c1.1 0 1.6.9 1.6 2.8 0 .8-.1 1.6-.3 2.4h.3l-1.6 6.1z"/></g><g id="g40" transform="translate(468.938 114.293)"><path id="path42" class="st3" d="M156.3.1s-391.7-.8-392.4-.9c5.7-1.9 30.9-7.7 42.9-7.7 119.5 0 238.9 0 358.5.1"/></g></g></g></svg>