<svg xmlns="http://www.w3.org/2000/svg" viewBox="0 0 793.70667 266.78668" height="266.787" width="793.707"><defs><clipPath id="a"><path d="M0 200.09h595.28V0H0z"/></clipPath></defs><text style="-inkscape-font-specification:Sandoval" transform="matrix(1.33333 0 0 1.3283 283.654 204.05)" font-weight="400" font-size="106" font-family="Sandoval" fill="#3d3d3d"><tspan y="0" x="0 42.824001 92.856003 169.812 217.51199">ramos</tspan></text><g clip-path="url(#a)" transform="matrix(1.33333 0 0 -1.33333 0 266.787)"><path d="M157.852 100.943v.15c-.202-1.8-.8-2.7-1.799-2.7h-31.649c-.502 0-.85.199-1.05.6-.202.399-.3.999-.3 1.8 0 .3.05.949.15 1.95l.9 4.2c.3 1.598.95 2.399 1.95 2.399h31.649c.9 0 1.35-.7 1.35-2.1 0-.6-.052-1.2-.15-1.8zm35.549-51.147c-.202-1.8-.802-2.7-1.8-2.7h-52.498c-7 0-11.65 5.55-13.949 16.649v-.15c-1 4.099-1.5 8.899-1.5 14.399a65.326 65.326 0 0 0 .075 6.975c.15 2.449.324 5.025.525 7.724 0 .2.023.375.075.525.05.15.124.225.225.225h30.75c.097 0 .198-.175.3-.524a1.67 1.67 0 0 0 0-.976l-1.35-7.2c-.702-4.5-1.276-8.4-1.726-11.698-.45-3.3-.626-6.101-.525-8.4v-.45c.098-4.3 1.748-6.45 4.95-6.45h8.1l6.3 35.248c0 .099.097.249.3.45h29.097c.2 0 .35-.175.45-.524.1-.352.1-.676 0-.976zm-33.598 65.096v-.6h-30.898c-.202 0-.3.2-.3.6v1.2c1.399 5.4 3.023 10.448 4.874 15.15 1.849 4.698 3.975 9.097 6.375 13.2 6.199 10.596 12.799 15.898 19.799 15.898h47.097c.499 0 .849-.225 1.05-.675.199-.45.35-.975.45-1.575v-.75c0-.202-.051-.45-.15-.75l-.9-4.65c-.3-1.7-.9-2.55-1.8-2.55h-30.898c-3.4 0-6-2-7.8-5.999-.9-2.002-1.724-4.6-2.474-7.8-.75-3.2-1.575-6.9-2.475-11.099zM206 100.943v.15c-.201-1.8-.802-2.7-1.8-2.7h-30.448c-.801 0-1.301.8-1.5 2.4 0 .098.049.323.15.675.098.349.15.773.15 1.275l.9 4.2c.099.799.323 1.399.675 1.8.35.398.725.599 1.125.599h30.599c.798 0 1.199-.7 1.199-2.1 0-.6-.051-1.2-.15-1.8h.15zm262.938 13.35s-293.81.57-294.281.71c4.27 1.44 23.233 5.753 32.172 5.753l268.853-.052" fill="#c30a0c"/></g></svg>