<svg id="svg2" xmlns="http://www.w3.org/2000/svg" xmlns:xlink="http://www.w3.org/1999/xlink" viewBox="0 0 793.7 266.8"><style>.st0{enable-background:new}.st1{fill:#3d3d3d}.st2{clip-path:url(#SVGID_2_)}.st3{fill:#c30a0c}</style><g id="g10" transform="matrix(1.33333 0 0 -1.33333 0 266.787)"><g class="st0"><path class="st1" d="M243.3 83.2c-.5 0-.7.4-.7 1.3 0 .5 0 .9.1 1.3l.5 2.2c.1.4.1.6.2.8 0 .2.1.4.1.6 0 .6-.1.8-.4.8-.3 0-.7-.5-1.2-1.6l-17.5-38.3c-1.1-2.2-2.2-3.3-3.4-3.3h-10.6c-.5 0-.7.4-.7 1.1 0 .2 0 .4.1.6 0 .2.1.5.2.8l12.1 57.2c.3 1.7.8 2.5 1.6 2.5h12.8c1 0 1.5-.8 1.5-2.3 0-.7-.1-1.6-.3-2.6l-6.8-32.2 14.2 30.5c2.2 4.4 4.4 6.7 6.6 6.7h9c1.6 0 2.3-1.2 2.3-3.6 0-.6-.1-1.2-.2-1.8-.1-.6-.2-1.3-.4-2.1L259 85.6c-.4-1.7-.9-2.5-1.6-2.5h-14.1z"/></g><g class="st0"><path class="st1" d="M257.6 47.1c-3.4 0-5.1 1.9-5.1 5.7 0 4.6 1.1 9.4 3.4 14.6l8 18.3c.6 1.5 1.3 2.7 1.9 3.4.6.7 1.4 1.1 2.3 1.1h11.2c.9 0 1.4-.5 1.4-1.5 0-.8-.2-1.8-.7-3l-11.6-26.6c-.6-1.8-1-3.2-1-4.2 0-1.2.4-1.8 1.3-1.8h7c.8 0 1.3.8 1.7 2.4l8.4 40.4c.4 1.8.5 3.1.5 4.1 0 2.2-.7 3.3-2.2 3.3H269c-.2 0-.3.2-.3.5 0 .1 0 .2.1.3 0 .1.1.3.1.4l.7 3.5c.1.8.3 1.3.7 1.3h28.8c2.5 0 3.8-1.9 3.8-5.8 0-1.6-.3-3.8-.8-6.7l-8.7-41.4c-.1-.4-.1-.8-.1-1.3 0-.8.2-1.2.7-1.2h12.1c.2 0 .3-.2.3-.7l-.7-4c-.2-.8-.5-1.3-.8-1.3h-47.3z"/></g><g class="st0"><path class="st1" d="M353.8 47.1c-.5 0-.7.4-.7 1.3 0 .5 0 .9.1 1.3l8.2 38.3c.1.4.1.7.2.9 0 .2.1.4.1.6 0 .6-.1.8-.3.8-.4 0-.8-.5-1.3-1.6l-17.5-38.3c-1.1-2.2-2.2-3.3-3.4-3.3h-10.6c-.5 0-.7.4-.7 1.1 0 .2 0 .4.1.6 0 .2.1.5.2.8l8.1 38.3c.1.4.1.6.2.8 0 .2.1.4.1.6 0 .6-.1.8-.4.8-.3 0-.7-.5-1.2-1.6l-17.5-38.3c-1.1-2.2-2.2-3.3-3.4-3.3h-10.6c-.5 0-.7.4-.7 1.1 0 .2 0 .4.1.6 0 .2.1.5.2.8l12.1 57.2c.3 1.7.8 2.5 1.6 2.5h12.8c1 0 1.5-.8 1.5-2.3 0-.7-.1-1.6-.3-2.6L324 72l14.2 30.5c2.2 4.4 4.4 6.7 6.6 6.7h9c1.6 0 2.3-1.2 2.3-3.6 0-.6-.1-1.2-.2-1.8-.1-.6-.2-1.3-.4-2.1L349.2 72l14.2 30.5c2.2 4.4 4.3 6.7 6.5 6.7h9.1c1.6 0 2.3-1.2 2.3-3.6 0-.6-.1-1.2-.2-1.8-.1-.6-.2-1.3-.4-2.1l-9.8-46.4c-.1-.4-.1-.8-.1-1.3 0-.8.2-1.2.7-1.2H384c.1 0 .2-.2.2-.5v-.7l-.8-3.5c-.1-.8-.4-1.3-.7-1.3h-28.9z"/></g><g class="st0"><path class="st1" d="M426.3 65.1c-1.3-6.1-2.9-10.6-4.9-13.6-2-3-4.5-4.5-7.5-4.5h-26.2c-4 0-6 2.9-6 8.6 0 2.5.4 5.7 1.3 9.5l5.5 26.2c1.3 6.1 2.9 10.6 4.9 13.6 2 3 4.5 4.5 7.5 4.5H427c4 0 6-2.9 6-8.7 0-1.3-.1-2.8-.3-4.3-.2-1.5-.5-3.2-.8-5.1l-5.6-26.2zm-28.7-7.2c-.2-1.1-.3-1.9-.3-2.5 0-1.4.5-2.1 1.4-2.1h6.9c1.4 0 2.4 1.5 3.1 4.6l8.6 40.5c.1.5.1.9.2 1.3 0 .4.1.7.1 1.1 0 1.5-.5 2.3-1.4 2.3h-6.9c-1.3 0-2.3-1.5-3-4.6l-8.7-40.6z"/></g><g class="st0"><path class="st1" d="M433.3 75.4c-.8 0-1.3.7-1.3 2v1c0 .4.1.7.2 1.2l2.5 11.8c1.3 6.1 2.9 10.6 4.9 13.6 2 3 4.5 4.5 7.5 4.5H475c.4 0 .6-.4.6-1.1v-.7c0-.2 0-.5-.1-.8l-.3-1.5c-.4-1.5-.9-2.2-1.6-2.2h-18c-1.4 0-2.4-1.5-3.1-4.6L449.4 84c-.1-.4-.1-.8-.1-1.3 0-.8.2-1.2.7-1.2h20c.8 0 1.3-.7 1.3-2.1 0-.3 0-.6-.1-1 0-.4-.1-.7-.2-1.1l-2.6-12.4c-1.3-6.1-2.9-10.6-4.9-13.6-2-3-4.5-4.5-7.5-4.5h-34.6c-.5 0-.7.4-.7 1.1 0 .2 0 .4.1.6 0 .2.1.5.2.8l.2 1.5c.1.7.4 1.2.6 1.6.3.4.6.5 1 .5h24.9c1.4 0 2.4 1.5 3.1 4.5l2.8 13.4c.3 1.1.4 2.1.4 3 0 .8-.2 1.3-.6 1.3h-20.1z"/></g><g id="g16"><defs><path id="SVGID_1_" d="M-99.2-33.3h793.7v266.8H-99.2z"/></defs><clipPath id="SVGID_2_"><use xlink:href="#SVGID_1_" overflow="visible"/></clipPath><g id="g18" class="st2"><g id="g24" transform="translate(157.852 100.943)"><path id="path26" class="st3" d="M0 0v.2c-.2-1.8-.8-2.7-1.8-2.7h-31.6c-.5 0-.9.2-1 .6-.2.4-.3 1-.3 1.8 0 .3 0 .9.2 2l.9 4.2c.3 1.6.9 2.4 2 2.4H0c.9 0 1.4-.7 1.4-2.1 0-.6-.1-1.2-.2-1.8L0 0z"/></g><g id="g28" transform="translate(193.401 49.796)"><path id="path30" class="st3" d="M0 0c-.2-1.8-.8-2.7-1.8-2.7h-52.5c-7 0-11.7 5.6-13.9 16.6v-.1c-1 4.1-1.5 8.9-1.5 14.4-.1 2.2-.1 4.5.1 7 .2 2.4.3 5 .5 7.7 0 .2 0 .4.1.5.1.2.1.2.2.2h30.7c.1 0 .2-.2.3-.5.1-.4.1-.7 0-1l-1.3-7.2c-.7-4.5-1.3-8.4-1.7-11.7-.5-3.3-.6-6.1-.5-8.4v-.4c.1-4.3 1.7-6.5 5-6.5h8.1l6.3 35.2c0 .1.1.2.3.5H7.3c.2 0 .3-.2.4-.5.1-.4.1-.7 0-1L0 0z"/></g><g id="g32" transform="translate(159.803 114.892)"><path id="path34" class="st3" d="M0 0v-.6h-30.9c-.2 0-.3.2-.3.6v1.2c1.4 5.4 3 10.4 4.9 15.1 1.8 4.7 4 9.1 6.4 13.2C-13.7 40.1-7.1 45.4-.1 45.4H47c.5 0 .8-.2 1-.7.2-.5.3-1 .5-1.6v-.8c0-.2-.1-.5-.1-.8l-1-4.5c-.3-1.7-.9-2.5-1.8-2.5H14.7c-3.4 0-6-2-7.8-6-.9-2-1.7-4.6-2.5-7.8-.7-3.2-1.5-6.9-2.4-11.1L0 0z"/></g><g id="g36" transform="translate(206 100.943)"><path id="path38" class="st3" d="M0 0v.2c-.2-1.8-.8-2.7-1.8-2.7h-30.4c-.8 0-1.3.8-1.5 2.4 0 .1 0 .3.2.7.1.3.2.8.2 1.3l.9 4.2c.1.8.3 1.4.7 1.8.4.4.7.6 1.1.6H0c.8 0 1.2-.7 1.2-2.1 0-.6-.1-1.2-.2-1.8h.2L0 0z"/></g><g id="g40" transform="translate(468.938 114.293)"><path id="path42" class="st3" d="M0 0s-293.8.6-294.3.7c4.3 1.4 23.2 5.8 32.2 5.8 89.6 0 179.2 0 268.9-.1"/></g></g></g></g></svg>