<svg xmlns="http://www.w3.org/2000/svg" width="125" height="36" viewBox="0 0 125 36">
    <g fill="#FFF" fill-rule="evenodd">
        <text font-family="Helvetica" font-size="12">
            <tspan x="38" y="11">Скачать в</tspan>
        </text>
        <text font-family="OpenSans-Bold, Open Sans" font-size="18" font-weight="bold">
            <tspan x="37" y="31">App Store</tspan>
        </text>
        <path d="M19.21 15.425c-.032-3.663 2.925-5.445 3.06-5.528-1.675-2.504-4.27-2.846-5.182-2.873-2.18-.235-4.294 1.338-5.404 1.338-1.132 0-2.842-1.315-4.685-1.277-2.371.038-4.59 1.446-5.807 3.633-2.51 4.458-.638 11.01 1.768 14.614 1.203 1.766 2.61 3.736 4.45 3.666 1.8-.075 2.473-1.177 4.646-1.177 2.153 0 2.785 1.177 4.662 1.132 1.933-.03 3.15-1.772 4.31-3.554 1.391-2.02 1.95-4.015 1.972-4.118-.044-.014-3.752-1.466-3.79-5.856"/>
        <path d="M15.448 4.859c1.017-1.3 1.713-3.066 1.52-4.859-1.473.067-3.314 1.04-4.374 2.31-.938 1.12-1.776 2.954-1.56 4.68 1.654.125 3.352-.853 4.414-2.131"/>
    </g>
</svg>
