<svg width="108" height="44" viewBox="0 0 108 44" fill="none" xmlns="http://www.w3.org/2000/svg">
<path d="M22.4022 0L0 16.2344L4.57129 22.3866L4.52457 22.4178L9.39178 29.141L15.8113 24.3543L11.2115 18.0022L22.4022 9.83827V0Z" fill="#2779F5"/>
<path d="M9.39746 43.1273L31.7996 26.8929L27.2284 20.7407L27.2725 20.7096L22.4053 13.9863L15.9857 18.7705L20.5856 25.1251L9.39746 33.2891V43.1273Z" fill="#F59D18"/>
<path d="M38.9148 23.7443C39.9703 24.7974 41.4006 25.3884 42.8916 25.3875C43.9923 25.3875 44.6646 24.9202 44.6646 24.3232C44.6646 23.6119 43.8625 23.3316 42.536 23.0512C40.4827 22.6411 37.6039 22.1193 37.6039 19.1574C37.6039 17.0808 39.3794 15.2637 42.5723 15.2637C44.5685 15.2637 46.3052 15.8607 47.6317 17.0003L45.8769 19.2976C44.8821 18.488 43.6468 18.0315 42.3647 17.9997C41.3004 17.9997 40.8902 18.4306 40.8902 18.9705C40.8902 19.6247 41.656 19.8479 43.037 20.1101C45.0929 20.541 47.9302 21.1485 47.9302 23.9572C47.9302 26.4596 46.0819 28.1105 42.7385 28.1105C40.2179 28.1105 38.4631 27.3318 37.2119 26.1325L38.9148 23.7443Z" fill="#2E2E2E"/>
<path d="M55.4575 15.2485C59.2656 15.2485 62.1055 17.8989 62.1055 21.6888C62.1055 25.4788 59.2656 28.1317 55.4575 28.1317C51.6494 28.1317 48.8018 25.4814 48.8018 21.6888C48.8018 17.8963 51.6572 15.2485 55.4575 15.2485ZM55.4575 18.0858C53.3808 18.0858 52.0595 19.6433 52.0595 21.6888C52.0595 23.7344 53.386 25.2945 55.4575 25.2945C57.529 25.2945 58.8321 23.7058 58.8321 21.6888C58.8321 19.6719 57.5108 18.0858 55.4575 18.0858Z" fill="#2E2E2E"/>
<path d="M63.731 15.4531H66.942V25.1071H71.9468V27.908H63.731V15.4531Z" fill="#2E2E2E"/>
<path d="M73.6084 15.4531H78.8364C82.7588 15.4531 85.5857 17.805 85.5857 21.6832C85.5857 25.5614 82.7666 27.9132 78.8624 27.9132H73.6084V15.4531ZM78.8364 25.1071C81.0221 25.1071 82.2915 23.5184 82.2915 21.6702C82.2915 19.7467 81.1338 18.254 78.8546 18.254H76.8195V25.1071H78.8364Z" fill="#2E2E2E"/>
<path d="M87.1841 15.4531H96.3059V18.171H90.3874V20.2477H96.1761V22.9733H90.3874V25.2161H96.3059V27.9236H87.1841V15.4531Z" fill="#2E2E2E"/>
<path d="M98.9846 23.7443C100.04 24.7974 101.47 25.3884 102.961 25.3875C104.062 25.3875 104.734 24.9202 104.734 24.3232C104.734 23.6119 103.932 23.3316 102.606 23.0512C100.553 22.6411 97.6737 22.1193 97.6737 19.1574C97.6737 17.0808 99.4493 15.2637 102.642 15.2637C104.638 15.2637 106.375 15.8607 107.701 17.0003L105.947 19.2976C104.953 18.4884 103.718 18.0319 102.437 17.9997C101.373 17.9997 100.96 18.4306 100.96 18.9705C100.96 19.6247 101.726 19.8479 103.109 20.1101C105.163 20.541 108 21.1485 108 23.9572C108 26.4596 106.152 28.1105 102.808 28.1105C100.288 28.1105 98.5329 27.3318 97.2817 26.1325L98.9846 23.7443Z" fill="#2E2E2E"/>
</svg>
