<?xml version="1.0" encoding="utf-8"?>
<svg xmlns="http://www.w3.org/2000/svg" xmlns:xlink="http://www.w3.org/1999/xlink">

  <symbol id="ico-goal" viewBox="0 0 90 90" fill="none">
    <path d="M85.3707 0H4.49319C2.04236 0 0 2.04236 0 4.49319V66.7171C0 69.1679 2.04236 71.2103 4.49319 71.2103H33.6309L29.41 79.1074H24.9168C24.0998 79.1074 23.5552 79.6521 23.5552 80.469V88.5023C23.5552 89.3192 24.0998 89.8639 24.9168 89.8639H65.0832C65.9002 89.8639 66.4448 89.3192 66.4448 88.5023V80.469C66.4448 79.6521 65.9002 79.1074 65.0832 79.1074H60.59L56.3691 71.2103H85.5068C87.9576 71.2103 90 69.1679 90 66.7171V4.49319C89.8638 2.04236 87.8215 0 85.3707 0ZM4.49319 2.72315H85.3707C86.3238 2.72315 87.1407 3.54009 87.1407 4.49319V54.1906H2.72315V4.49319C2.72315 3.54009 3.54009 2.72315 4.49319 2.72315ZM63.7216 87.1407H26.2784V81.8306C42.3449 81.8306 46.9743 81.8306 63.7216 81.8306V87.1407ZM57.3222 79.1074H32.5416L36.7625 71.2103H53.1014L57.3222 79.1074ZM85.3707 68.4872C57.4584 68.4872 33.4947 68.4872 4.49319 68.4872C3.54009 68.4872 2.72315 67.8064 2.72315 66.7171V56.7776H87.1407V66.7171C87.1407 67.8064 86.3238 68.4872 85.3707 68.4872Z" fill="currentColor"/>
    <path d="M44.9322 58.0032C42.4813 58.0032 40.439 60.0455 40.439 62.4964C40.439 64.9472 42.4813 66.9896 44.9322 66.9896C47.383 66.9896 49.4253 64.9472 49.4253 62.4964C49.4253 60.0455 47.383 58.0032 44.9322 58.0032ZM44.9322 64.2664C43.9791 64.2664 43.1621 63.4495 43.1621 62.4964C43.1621 61.5433 43.9791 60.7263 44.9322 60.7263C45.8853 60.7263 46.7022 61.5433 46.7022 62.4964C46.7022 63.5856 45.8853 64.2664 44.9322 64.2664Z" fill="currentColor"/>
    <path d="M14.7059 17.7008L13.7528 23.2832C13.6166 23.8278 13.8889 24.3725 14.2974 24.6448C14.7059 24.9171 15.2505 25.0532 15.7951 24.7809L20.833 22.1939L25.8708 24.7809C26.2792 25.0532 26.8239 24.9171 27.3685 24.6448C27.777 24.3725 28.0493 23.8278 27.9131 23.2832L26.6877 17.7008L30.7724 13.7522C31.1809 13.3437 31.3171 12.7991 31.1809 12.3906C31.0448 11.846 30.6363 11.5737 30.0917 11.4375L24.5092 10.6206L22.0584 5.58275C21.6499 4.62964 20.016 4.62964 19.6075 5.58275L17.1567 10.6206L11.3019 11.4375C10.8935 11.4375 10.3488 11.846 10.2127 12.3906C10.0765 12.9352 10.2127 13.4799 10.6212 13.7522L14.7059 17.7008ZM18.1098 13.2076C18.5183 13.2076 18.9268 12.7991 19.1991 12.5268L20.833 9.259L22.4668 12.5268C22.603 12.9352 23.0115 13.2076 23.5561 13.2076L27.0962 13.7522L24.5092 16.3392C24.2369 16.6115 24.1007 17.1561 24.1007 17.5646L24.6454 21.1047L21.3776 19.4708C21.2414 19.3346 20.9691 19.3346 20.6968 19.3346C20.4245 19.3346 20.2883 19.3346 20.016 19.4708L16.7482 21.1047L17.429 17.5646C17.5652 17.1561 17.2929 16.6115 17.0205 16.3392L14.4336 13.7522L18.1098 13.2076Z" fill="currentColor"/>
    <path d="M38.9419 17.7008L37.9888 23.2832C37.8526 23.8278 38.1249 24.3725 38.5334 24.6448C38.9419 24.9171 39.4865 25.0532 40.0311 24.7809L45.0689 22.1939L50.1068 24.7809C50.5152 25.0532 51.0599 24.9171 51.6045 24.6448C52.013 24.3725 52.2853 23.8278 52.1491 23.2832L50.9237 17.7008L55.0084 13.7522C55.4169 13.3437 55.5531 12.7991 55.4169 12.3906C55.2807 11.846 54.8723 11.5737 54.3276 11.4375L48.7452 10.6206L46.2944 5.58275C45.8859 4.62964 44.252 4.62964 43.8435 5.58275L41.3927 10.6206L35.8102 11.4375C35.2656 11.5737 34.8571 11.846 34.721 12.3906C34.5848 12.9352 34.721 13.4799 35.1295 13.7522L38.9419 17.7008ZM42.3458 13.2076C42.7543 13.2076 43.1627 12.7991 43.4351 12.5268L44.9328 9.259L46.5667 12.5268C46.7028 12.9352 47.1113 13.2076 47.6559 13.2076L51.196 13.7522L48.609 16.3392C48.3367 16.6115 48.2006 17.1561 48.2006 17.5646L48.7452 21.1047L45.4774 19.4708C45.3413 19.3346 45.0689 19.3346 44.7966 19.3346C44.5243 19.3346 44.3882 19.3346 44.1158 19.4708L40.8481 21.1047L41.3927 17.5646C41.5288 17.1561 41.2565 16.6115 40.9842 16.3392L38.3972 13.7522L42.3458 13.2076Z" fill="currentColor"/>
    <path d="M63.1762 17.7003L62.2231 23.2828C62.0869 23.8274 62.3592 24.372 62.7677 24.6444C63.1762 24.9167 63.7208 25.0528 64.2654 24.7805L69.3032 22.1935L74.3411 24.7805C74.7495 25.0528 75.2942 24.9167 75.8388 24.6444C76.2473 24.372 76.5196 23.8274 76.3834 23.2828L75.158 17.7003L79.2427 13.7518C79.6512 13.3433 79.7874 12.7987 79.6512 12.3902C79.515 11.8456 79.1066 11.5732 78.5619 11.4371L72.9795 10.6201L70.5287 5.58232C70.2563 5.17385 69.8479 4.76538 69.3032 4.76538C68.7586 4.76538 68.3501 5.0377 68.0778 5.58232L65.627 10.6201L59.9084 11.4371C59.3638 11.5732 58.9553 11.8456 58.8191 12.3902C58.683 12.9348 58.8191 13.4795 59.2276 13.7518L63.1762 17.7003ZM66.5801 13.2071C66.9886 13.2071 67.397 12.7987 67.6694 12.5263L69.3032 9.25857L70.9371 12.5263C71.0733 12.9348 71.4818 13.2071 72.0264 13.2071L75.5665 13.7518L72.9795 16.3388C72.7072 16.6111 72.571 17.1557 72.571 17.5642L73.2518 21.1043L69.984 19.4704C69.5756 19.1981 69.1671 19.1981 68.7586 19.4704L65.3547 20.9681L65.8993 17.428C66.0355 17.0195 65.7631 16.4749 65.4908 16.2026L62.9038 13.6156L66.5801 13.2071Z" fill="currentColor"/>
    <path d="M34.1754 40.0306C35.8093 38.8052 36.8986 36.899 36.8986 34.5843C36.8986 30.9081 33.9031 27.9126 30.2268 27.9126C26.5506 27.9126 23.5551 30.9081 23.5551 34.5843C23.5551 36.7628 24.6444 38.669 26.2783 39.8944C22.0574 40.9837 18.9258 44.6599 18.9258 49.1531V50.3786C18.9258 51.1955 19.4704 51.7401 20.2874 51.7401H40.0302C40.8471 51.7401 41.3917 51.1955 41.3917 50.3786V49.1531C41.3917 44.7961 38.2601 40.9837 34.1754 40.0306ZM30.2268 30.6357C32.4054 30.6357 34.1754 32.4058 34.1754 34.5843C34.1754 36.7628 32.4054 38.5329 30.2268 38.5329C28.0483 38.5329 26.2783 36.7628 26.2783 34.5843C26.2783 32.4058 28.0483 30.6357 30.2268 30.6357ZM21.6489 49.1531C21.7851 45.4769 24.7805 42.4814 28.4568 42.4814H31.7246C35.4008 42.4814 38.5324 45.4769 38.5324 49.1531H21.6489Z" fill="currentColor"/>
    <path d="M63.7213 40.0306C65.3552 38.8052 66.4445 36.899 66.4445 34.5843C66.4445 30.9081 63.449 27.9126 59.7727 27.9126C56.0965 27.9126 53.101 30.9081 53.101 34.5843C53.101 36.7628 54.1903 38.669 55.8242 39.8944C51.6033 40.9837 48.4717 44.6599 48.4717 49.1531V50.3786C48.4717 51.1955 49.0163 51.7401 49.8333 51.7401H69.5761C70.393 51.7401 70.9376 51.1955 70.9376 50.3786V49.1531C70.9376 44.7961 67.806 40.9837 63.7213 40.0306ZM59.7727 30.6357C61.9513 30.6357 63.7213 32.4058 63.7213 34.5843C63.7213 36.7628 61.9513 38.5329 59.7727 38.5329C57.5942 38.5329 55.8242 36.7628 55.8242 34.5843C55.8242 32.4058 57.5942 30.6357 59.7727 30.6357ZM51.1948 49.1531C51.331 45.4769 54.3264 42.4814 58.0027 42.4814H61.2705C64.9467 42.4814 68.0783 45.4769 68.0783 49.1531H51.1948Z" fill="currentColor"/>
  </symbol>

  <symbol id="ico-plus" viewBox="0 0 18 18" fill="none">
    <path fill-rule="evenodd" clip-rule="evenodd" d="M7 11L7 18H11V11H18V7H11V0H7L7 7H0V11H7Z" fill="currentColor"/>
  </symbol>

  <symbol id="ico-comment" viewBox="0 0 12 13">
    <path fill-rule="evenodd" clip-rule="evenodd" d="M8 9.00803L12 12.0105V0.000732422H0V9.00803H8ZM2 7.00641H8.66667L10 8.00722V2.00235H2V7.00641Z" fill="currentColor"/>
  </symbol>

  <symbol id="ico-vk" viewBox="0 0 28 15" fill="none">
    <path fill-rule="evenodd" clip-rule="evenodd" d="M13.2901 14.2482H14.9101C14.9101 14.2482 15.4501 14.2482 15.5851 13.9961C15.8551 13.7439 15.8551 13.3656 15.8551 13.3656C15.8551 13.3656 15.8551 11.3482 16.8001 11.096C17.7451 10.8438 19.0951 13.1134 20.4451 13.87C21.5251 14.5004 22.2001 14.3743 22.2001 14.3743H25.8451C25.8451 14.3743 27.7351 14.2482 26.7901 12.8612C26.6551 12.7351 26.2501 11.8525 24.0901 9.96115C21.7951 7.94371 22.0651 8.32198 24.9001 4.91753C26.5201 2.90008 27.1951 1.51309 27.0601 1.00872C26.9251 0.378272 25.7101 0.504362 25.7101 0.504362H21.6601C21.6601 0.504362 21.3901 0.504362 21.1201 0.630453C20.8501 0.756543 20.7151 1.00872 20.7151 1.00872C20.7151 1.00872 20.0401 2.6479 19.2301 4.0349C17.4751 6.93498 16.6651 7.06107 16.3951 6.93498C15.7201 6.55671 15.8551 5.2958 15.8551 4.41317C15.8551 1.63918 16.2601 0.504362 14.9101 0.12609C14.5051 -1.22128e-07 14.1001 0 13.0201 0C11.5351 0 10.32 -7.51558e-08 9.64505 0.378272C9.24004 0.378272 8.83504 0.756543 9.10504 0.882634C9.37504 0.882634 10.05 1.00872 10.32 1.387C10.725 1.89136 10.7251 3.15226 10.7251 3.15226C10.7251 3.15226 10.9951 6.43062 10.185 6.80889C9.64505 7.06107 8.83504 6.55671 7.21503 3.90881C6.40503 2.52181 5.73003 1.13481 5.73003 1.13481C5.73003 1.13481 5.59503 0.756543 5.46003 0.630453C5.19002 0.504362 4.78502 0.378272 4.78502 0.378272H0.870004C0.870004 0.378272 0.330002 0.378272 0.0600003 0.630453C-0.0750004 0.882634 0.0600003 1.26091 0.0600003 1.26091C0.0600003 1.26091 3.16502 7.9437 6.54003 11.3481C9.78005 14.3743 13.2901 14.2482 13.2901 14.2482Z" fill="currentColor"/>
  </symbol>

  <symbol id="ico-fb" viewBox="0 0 22 22" fill="none">
    <path fill-rule="evenodd" clip-rule="evenodd" d="M18.5096 22H13.2212V13.75H16.1298L16.5264 11H13.3534V8.3875C13.3534 7.425 13.4856 6.875 14.6755 6.875H16.5264V4.2625C16.3942 4.2625 15.7332 4.125 14.6755 4.125C12.4279 4.125 10.5769 5.6375 10.5769 8.25V11H7.93269V13.75H10.5769V22H2.64423C1.1899 22 0 20.7625 0 19.25V2.75C0 1.2375 1.1899 0 2.64423 0H18.5096C19.9639 0 21.1538 1.2375 21.1538 2.75V19.25C21.1538 20.7625 20.0962 22 18.5096 22ZM13.3534 22H10.7091H13.3534Z" fill="currentColor"/>
  </symbol>

  <symbol id="ico-tg" viewBox="0 0 23 22" fill="none">
    <path d="M21.3165 0.112819L0.4737 9.02004C-0.1579 9.30281 -0.1579 10.4339 0.4737 10.5753L5.77913 12.2719L7.80025 19.1997C8.05289 19.9066 8.81082 20.1894 9.3161 19.6239L12.0951 16.5134L17.5269 20.8963C18.1585 21.4619 19.169 21.0377 19.2954 20.1894L22.8323 1.38528C22.9586 0.536972 22.2007 -0.311334 21.3165 0.112819ZM18.7901 4.21297L9.06345 13.6857C8.93713 13.8271 8.93713 13.9685 8.93713 14.1099L8.55817 17.7859C8.55817 17.9273 8.43185 17.9273 8.30553 17.7859L6.7897 12.2719C6.66338 11.9891 6.78969 11.7063 7.04233 11.565L18.4111 3.78882C18.6638 3.64743 18.9164 3.9302 18.7901 4.21297Z" fill="currentColor"/>
  </symbol>

  <symbol id="ico-inst" viewBox="0 0 22 22" fill="none">
    <path d="M7.33421 11C7.33421 8.97503 8.97539 7.33304 11.0004 7.33304C13.0255 7.33304 14.6675 8.97503 14.6675 11C14.6675 13.025 13.0255 14.667 11.0004 14.667C8.97539 14.667 7.33421 13.025 7.33421 11ZM5.35185 11C5.35185 14.1196 7.88072 16.6484 11.0004 16.6484C14.1202 16.6484 16.649 14.1196 16.649 11C16.649 7.8804 14.1202 5.35163 11.0004 5.35163C7.88072 5.35163 5.35185 7.8804 5.35185 11ZM15.5526 5.12767C15.5525 5.38874 15.6298 5.64398 15.7748 5.86111C15.9197 6.07824 16.1258 6.24751 16.367 6.34752C16.6082 6.44752 16.8736 6.47377 17.1297 6.42294C17.3857 6.37211 17.621 6.24649 17.8057 6.06195C17.9904 5.87742 18.1162 5.64227 18.1672 5.38624C18.2183 5.1302 18.1922 4.86478 18.0924 4.62355C17.9926 4.38231 17.8235 4.17608 17.6065 4.03095C17.3894 3.88582 17.1343 3.8083 16.8732 3.8082H16.8727C16.5227 3.80836 16.1871 3.94741 15.9396 4.19481C15.6921 4.44221 15.5529 4.77773 15.5526 5.12767ZM6.55626 19.9537C5.48376 19.9049 4.90083 19.7263 4.51344 19.5753C3.99985 19.3754 3.6334 19.1373 3.24812 18.7525C2.86284 18.3678 2.62435 18.0017 2.42529 17.4882C2.27427 17.101 2.09563 16.5179 2.04687 15.4454C1.99354 14.2859 1.9829 13.9376 1.9829 11.0001C1.9829 8.06256 1.99442 7.71522 2.04687 6.55477C2.09572 5.48231 2.27568 4.90037 2.42529 4.51202C2.62523 3.99846 2.86337 3.63202 3.24812 3.24676C3.63287 2.8615 3.99897 2.62302 4.51344 2.42396C4.90065 2.27295 5.48376 2.09431 6.55626 2.04556C7.7158 1.99223 8.06411 1.98158 11.0004 1.98158C13.9368 1.98158 14.2854 1.99311 15.4459 2.04556C16.5184 2.0944 17.1004 2.27436 17.4888 2.42396C18.0024 2.62302 18.3688 2.86202 18.7541 3.24676C19.1394 3.6315 19.377 3.99846 19.5769 4.51202C19.7279 4.89922 19.9066 5.48231 19.9553 6.55477C20.0087 7.71522 20.0193 8.06256 20.0193 11.0001C20.0193 13.9376 20.0087 14.285 19.9553 15.4454C19.9065 16.5179 19.727 17.1008 19.5769 17.4882C19.377 18.0017 19.1388 18.3682 18.7541 18.7525C18.3693 19.1369 18.0024 19.3754 17.4888 19.5753C17.1015 19.7263 16.5184 19.905 15.4459 19.9537C14.2864 20.0071 13.9381 20.0177 11.0004 20.0177C8.06279 20.0177 7.71544 20.0071 6.55626 19.9537ZM6.46518 0.066616C5.29412 0.119944 4.4939 0.305624 3.79506 0.577544C3.07132 0.858352 2.45864 1.23508 1.8464 1.84633C1.23416 2.45758 0.858386 3.0712 0.577567 3.79491C0.305636 4.49416 0.119949 5.2939 0.0666187 6.46492C0.0124085 7.63778 0 8.01275 0 11C0 13.9872 0.0124085 14.3622 0.0666187 15.5351C0.119949 16.7062 0.305636 17.5058 0.577567 18.2051C0.858386 18.9284 1.23425 19.5427 1.8464 20.1537C2.45855 20.7647 3.07132 21.1409 3.79506 21.4225C4.49522 21.6944 5.29412 21.8801 6.46518 21.9334C7.63871 21.9867 8.01307 22 11.0004 22C13.9878 22 14.3628 21.9876 15.5357 21.9334C16.7069 21.8801 17.5065 21.6944 18.2058 21.4225C18.9291 21.1409 19.5422 20.7649 20.1545 20.1537C20.7667 19.5424 21.1417 18.9284 21.4233 18.2051C21.6952 17.5058 21.8818 16.7061 21.9343 15.5351C21.9876 14.3613 22 13.9872 22 11C22 8.01275 21.9876 7.63778 21.9343 6.46492C21.8809 5.29382 21.6952 4.49372 21.4233 3.79491C21.1417 3.07164 20.7658 2.45854 20.1545 1.84633C19.5432 1.23411 18.9291 0.858352 18.2067 0.577544C17.5065 0.305624 16.7068 0.119064 15.5366 0.066616C14.3637 0.013288 13.9887 0 11.0013 0C8.01395 0 7.63871 0.012408 6.46518 0.066616Z" fill="currentColor"/>
  </symbol>

  <symbol id="ico-angle-left" viewBox="0 0 34 34" fill="none">
    <path fill-rule="evenodd" clip-rule="evenodd" d="M17.0294 0.0294375L20.565 3.56497L7.12994 17L20.565 30.435L17.0294 33.9706L3.59441 20.5355L0.0588751 17L3.59441 13.4645L17.0294 0.0294375Z" fill="currentColor"/>
  </symbol>

  <symbol id="ico-angle-right" viewBox="0 0 34 34" fill="none">
    <path fill-rule="evenodd" clip-rule="evenodd" d="M16.9706 0.0294375L13.435 3.56497L26.8701 17L13.435 30.435L16.9706 33.9706L30.4056 20.5355L33.9411 17L30.4056 13.4645L16.9706 0.0294375Z" fill="currentColor"/>
  </symbol>


</svg>