<?xml version="1.0" encoding="utf-8"?>
<!-- Generator: Adobe Illustrator 21.0.0, SVG Export Plug-In . SVG Version: 6.00 Build 0)  -->
<svg version="1.1"
	 id="svg2" xmlns:cc="http://creativecommons.org/ns#" xmlns:dc="http://purl.org/dc/elements/1.1/" xmlns:rdf="http://www.w3.org/1999/02/22-rdf-syntax-ns#" xmlns:svg="http://www.w3.org/2000/svg"
	 xmlns="http://www.w3.org/2000/svg" xmlns:xlink="http://www.w3.org/1999/xlink" x="0px" y="0px" viewBox="0 0 793.7 266.8"
	 style="enable-background:new 0 0 793.7 266.8;" xml:space="preserve">
<style type="text/css">
	.st0{enable-background:new    ;}
	.st1{fill:#3D3D3D;}
	.st2{clip-path:url(#SVGID_2_);}
	.st3{fill:#C30A0C;}
</style>
<g id="g10" transform="matrix(1.3333333,0,0,-1.3333333,0,266.78667)">
	<g class="st0">
		<path class="st1" d="M243.3,83.2c-0.5,0-0.7,0.4-0.7,1.3c0,0.5,0,0.9,0.1,1.3l0.5,2.2c0.1,0.4,0.1,0.6,0.2,0.8
			c0,0.2,0.1,0.4,0.1,0.6c0,0.6-0.1,0.8-0.4,0.8c-0.3,0-0.7-0.5-1.2-1.6l-17.5-38.3c-1.1-2.2-2.2-3.3-3.4-3.3h-10.6
			c-0.5,0-0.7,0.4-0.7,1.1c0,0.2,0,0.4,0.1,0.6c0,0.2,0.1,0.5,0.2,0.8l12.1,57.2c0.3,1.7,0.8,2.5,1.6,2.5h12.8c1,0,1.5-0.8,1.5-2.3
			c0-0.7-0.1-1.6-0.3-2.6l-6.8-32.2l14.2,30.5c2.2,4.4,4.4,6.7,6.6,6.7h9c1.6,0,2.3-1.2,2.3-3.6c0-0.6-0.1-1.2-0.2-1.8
			c-0.1-0.6-0.2-1.3-0.4-2.1l-3.4-16.2c-0.4-1.7-0.9-2.5-1.6-2.5H243.3z"/>
	</g>
	<g class="st0">
		<path class="st1" d="M257.6,47.1c-3.4,0-5.1,1.9-5.1,5.7c0,4.6,1.1,9.4,3.4,14.6l8,18.3c0.6,1.5,1.3,2.7,1.9,3.4
			c0.6,0.7,1.4,1.1,2.3,1.1h11.2c0.9,0,1.4-0.5,1.4-1.5c0-0.8-0.2-1.8-0.7-3l-11.6-26.6c-0.6-1.8-1-3.2-1-4.2c0-1.2,0.4-1.8,1.3-1.8
			h7c0.8,0,1.3,0.8,1.7,2.4l8.4,40.4c0.4,1.8,0.5,3.1,0.5,4.1c0,2.2-0.7,3.3-2.2,3.3H269c-0.2,0-0.3,0.2-0.3,0.5
			c0,0.1,0,0.2,0.1,0.3c0,0.1,0.1,0.3,0.1,0.4l0.7,3.5c0.1,0.8,0.3,1.3,0.7,1.3h28.8c2.5,0,3.8-1.9,3.8-5.8c0-1.6-0.3-3.8-0.8-6.7
			l-8.7-41.4c-0.1-0.4-0.1-0.8-0.1-1.3c0-0.8,0.2-1.2,0.7-1.2h12.1c0.2,0,0.3-0.2,0.3-0.7l-0.7-4c-0.2-0.8-0.5-1.3-0.8-1.3H257.6z"
			/>
	</g>
	<g class="st0">
		<path class="st1" d="M353.8,47.1c-0.5,0-0.7,0.4-0.7,1.3c0,0.5,0,0.9,0.1,1.3l8.2,38.3c0.1,0.4,0.1,0.7,0.2,0.9
			c0,0.2,0.1,0.4,0.1,0.6c0,0.6-0.1,0.8-0.3,0.8c-0.4,0-0.8-0.5-1.3-1.6l-17.5-38.3c-1.1-2.2-2.2-3.3-3.4-3.3h-10.6
			c-0.5,0-0.7,0.4-0.7,1.1c0,0.2,0,0.4,0.1,0.6c0,0.2,0.1,0.5,0.2,0.8l8.1,38.3c0.1,0.4,0.1,0.6,0.2,0.8c0,0.2,0.1,0.4,0.1,0.6
			c0,0.6-0.1,0.8-0.4,0.8c-0.3,0-0.7-0.5-1.2-1.6l-17.5-38.3c-1.1-2.2-2.2-3.3-3.4-3.3h-10.6c-0.5,0-0.7,0.4-0.7,1.1
			c0,0.2,0,0.4,0.1,0.6c0,0.2,0.1,0.5,0.2,0.8l12.1,57.2c0.3,1.7,0.8,2.5,1.6,2.5h12.8c1,0,1.5-0.8,1.5-2.3c0-0.7-0.1-1.6-0.3-2.6
			l-6.8-32.2l14.2,30.5c2.2,4.4,4.4,6.7,6.6,6.7h9c1.6,0,2.3-1.2,2.3-3.6c0-0.6-0.1-1.2-0.2-1.8c-0.1-0.6-0.2-1.3-0.4-2.1l-6.3-29.7
			l14.2,30.5c2.2,4.4,4.3,6.7,6.5,6.7h9.1c1.6,0,2.3-1.2,2.3-3.6c0-0.6-0.1-1.2-0.2-1.8c-0.1-0.6-0.2-1.3-0.4-2.1l-9.8-46.4
			c-0.1-0.4-0.1-0.8-0.1-1.3c0-0.8,0.2-1.2,0.7-1.2H384c0.1,0,0.2-0.2,0.2-0.5v-0.7l-0.8-3.5c-0.1-0.8-0.4-1.3-0.7-1.3H353.8z"/>
	</g>
	<g class="st0">
		<path class="st1" d="M426.3,65.1c-1.3-6.1-2.9-10.6-4.9-13.6c-2-3-4.5-4.5-7.5-4.5h-26.2c-4,0-6,2.9-6,8.6c0,2.5,0.4,5.7,1.3,9.5
			l5.5,26.2c1.3,6.1,2.9,10.6,4.9,13.6c2,3,4.5,4.5,7.5,4.5H427c4,0,6-2.9,6-8.7c0-1.3-0.1-2.8-0.3-4.3c-0.2-1.5-0.5-3.2-0.8-5.1
			L426.3,65.1z M397.6,57.9c-0.2-1.1-0.3-1.9-0.3-2.5c0-1.4,0.5-2.1,1.4-2.1h6.9c1.4,0,2.4,1.5,3.1,4.6l8.6,40.5
			c0.1,0.5,0.1,0.9,0.2,1.3c0,0.4,0.1,0.7,0.1,1.1c0,1.5-0.5,2.3-1.4,2.3h-6.9c-1.3,0-2.3-1.5-3-4.6L397.6,57.9z"/>
	</g>
	<g class="st0">
		<path class="st1" d="M433.3,75.4c-0.8,0-1.3,0.7-1.3,2c0,0.3,0,0.6,0,1c0,0.4,0.1,0.7,0.2,1.2l2.5,11.8c1.3,6.1,2.9,10.6,4.9,13.6
			c2,3,4.5,4.5,7.5,4.5H475c0.4,0,0.6-0.4,0.6-1.1c0-0.2,0-0.4,0-0.7c0-0.2,0-0.5-0.1-0.8l-0.3-1.5c-0.4-1.5-0.9-2.2-1.6-2.2h-18
			c-1.4,0-2.4-1.5-3.1-4.6L449.4,84c-0.1-0.4-0.1-0.8-0.1-1.3c0-0.8,0.2-1.2,0.7-1.2H470c0.8,0,1.3-0.7,1.3-2.1c0-0.3,0-0.6-0.1-1
			c0-0.4-0.1-0.7-0.2-1.1l-2.6-12.4c-1.3-6.1-2.9-10.6-4.9-13.6c-2-3-4.5-4.5-7.5-4.5h-34.6c-0.5,0-0.7,0.4-0.7,1.1
			c0,0.2,0,0.4,0.1,0.6c0,0.2,0.1,0.5,0.2,0.8l0.2,1.5c0.1,0.7,0.4,1.2,0.6,1.6c0.3,0.4,0.6,0.5,1,0.5h24.9c1.4,0,2.4,1.5,3.1,4.5
			l2.8,13.4c0.3,1.1,0.4,2.1,0.4,3c0,0.8-0.2,1.3-0.6,1.3H433.3z"/>
	</g>
	<g id="g16">
		<g>
			<defs>
				<rect id="SVGID_1_" x="-99.2" y="-33.3" width="793.7" height="266.8"/>
			</defs>
			<clipPath id="SVGID_2_">
				<use xlink:href="#SVGID_1_"  style="overflow:visible;"/>
			</clipPath>
			<g id="g18" class="st2">
				<g id="g24" transform="translate(157.8525,100.9429)">
					<path id="path26" class="st3" d="M0,0v0.2c-0.2-1.8-0.8-2.7-1.8-2.7h-31.6c-0.5,0-0.9,0.2-1,0.6c-0.2,0.4-0.3,1-0.3,1.8
						c0,0.3,0,0.9,0.2,2l0.9,4.2c0.3,1.6,0.9,2.4,2,2.4h31.6c0.9,0,1.4-0.7,1.4-2.1c0-0.6-0.1-1.2-0.2-1.8L0,0z"/>
				</g>
				<g id="g28" transform="translate(193.4014,49.7959)">
					<path id="path30" class="st3" d="M0,0c-0.2-1.8-0.8-2.7-1.8-2.7h-52.5c-7,0-11.7,5.6-13.9,16.6v-0.1c-1,4.1-1.5,8.9-1.5,14.4
						c-0.1,2.2-0.1,4.5,0.1,7c0.2,2.4,0.3,5,0.5,7.7c0,0.2,0,0.4,0.1,0.5c0.1,0.2,0.1,0.2,0.2,0.2h30.7c0.1,0,0.2-0.2,0.3-0.5
						c0.1-0.4,0.1-0.7,0-1l-1.3-7.2c-0.7-4.5-1.3-8.4-1.7-11.7c-0.5-3.3-0.6-6.1-0.5-8.4v-0.4c0.1-4.3,1.7-6.5,5-6.5h8.1l6.3,35.2
						c0,0.1,0.1,0.2,0.3,0.5H7.3c0.2,0,0.3-0.2,0.4-0.5c0.1-0.4,0.1-0.7,0-1L0,0z"/>
				</g>
				<g id="g32" transform="translate(159.8027,114.8921)">
					<path id="path34" class="st3" d="M0,0v-0.6h-30.9c-0.2,0-0.3,0.2-0.3,0.6v1.2c1.4,5.4,3,10.4,4.9,15.1c1.8,4.7,4,9.1,6.4,13.2
						c6.2,10.6,12.8,15.9,19.8,15.9h47.1c0.5,0,0.8-0.2,1-0.7c0.2-0.5,0.3-1,0.5-1.6v-0.8c0-0.2-0.1-0.5-0.1-0.8L47.4,37
						c-0.3-1.7-0.9-2.5-1.8-2.5H14.7c-3.4,0-6-2-7.8-6c-0.9-2-1.7-4.6-2.5-7.8C3.7,17.5,2.9,13.8,2,9.6L0,0z"/>
				</g>
				<g id="g36" transform="translate(206,100.9429)">
					<path id="path38" class="st3" d="M0,0v0.2c-0.2-1.8-0.8-2.7-1.8-2.7h-30.4c-0.8,0-1.3,0.8-1.5,2.4c0,0.1,0,0.3,0.2,0.7
						c0.1,0.3,0.2,0.8,0.2,1.3l0.9,4.2c0.1,0.8,0.3,1.4,0.7,1.8c0.4,0.4,0.7,0.6,1.1,0.6h30.6c0.8,0,1.2-0.7,1.2-2.1
						c0-0.6-0.1-1.2-0.2-1.8h0.2L0,0z"/>
				</g>
				<g id="g40" transform="translate(468.9375,114.2925)">
					<path id="path42" class="st3" d="M0,0c0,0-293.8,0.6-294.3,0.7c4.3,1.4,23.2,5.8,32.2,5.8c89.6,0,179.2,0,268.9-0.1"/>
				</g>
			</g>
		</g>
	</g>
</g>
</svg>
