<svg width="28" height="27" viewBox="0 0 28 27" fill="none" xmlns="http://www.w3.org/2000/svg">
<path d="M27.4922 13.4252C27.4922 6.01082 21.4755 0 14.054 0C6.63237 0 0.615723 6.01082 0.615723 13.4252C0.615723 20.8396 6.63237 26.8505 14.054 26.8505C21.4755 26.8505 27.4922 20.8396 27.4922 13.4252Z" fill="#D84545"/>
<path d="M16.4811 6.96143C18.7141 6.96143 20.525 8.77054 20.525 11.0014V15.8494C20.525 18.0803 18.7141 19.8894 16.4811 19.8894H11.6284C9.39534 19.8894 7.58447 18.0803 7.58447 15.8494V11.0014C7.58447 8.77054 9.39534 6.96143 11.6284 6.96143H16.4811ZM14.0547 10.9393C12.6804 10.9393 11.5662 12.0525 11.5662 13.4254C11.5662 14.7984 12.6804 15.9116 14.0547 15.9116C15.429 15.9116 16.5433 14.7984 16.5433 13.4254C16.5433 12.0525 15.429 10.9393 14.0547 10.9393ZM14.0547 14.9171C13.2317 14.9171 12.5616 14.2477 12.5616 13.4254C12.5616 12.6026 13.2317 11.9337 14.0547 11.9337C14.8777 11.9337 15.5479 12.6026 15.5479 13.4254C15.5479 14.2477 14.8777 14.9171 14.0547 14.9171ZM17.5387 10.9393C18.0885 10.9393 18.5341 10.494 18.5341 9.94481C18.5341 9.39559 18.0885 8.95035 17.5387 8.95035C16.989 8.95035 16.5433 9.39559 16.5433 9.94481C16.5433 10.494 16.989 10.9393 17.5387 10.9393Z" fill="white"/>
</svg>
