<svg width="28" height="27" viewBox="0 0 28 27" fill="none" xmlns="http://www.w3.org/2000/svg">
<path d="M27.7808 13.4252C27.7808 6.01082 21.7641 0 14.3425 0C6.92094 0 0.904297 6.01082 0.904297 13.4252C0.904297 20.8396 6.92094 26.8505 14.3425 26.8505C21.7641 26.8505 27.7808 20.8396 27.7808 13.4252Z" fill="#D84545"/>
<path d="M19.8067 12.818L17.3774 15.244C16.0367 16.5843 13.8617 16.5843 12.5207 15.244C12.3095 15.0336 12.1442 14.7965 11.9991 14.552L13.1278 13.4245C13.1815 13.3704 13.2477 13.3394 13.3111 13.3029C13.3891 13.5693 13.5253 13.8214 13.735 14.0309C14.4046 14.7004 15.4941 14.6995 16.1633 14.0309L18.5918 11.6049C19.2619 10.9355 19.2619 9.84728 18.5918 9.17841C17.9225 8.50954 16.8333 8.50954 16.1633 9.17841L15.2997 10.0421C14.5989 9.76947 13.8439 9.69617 13.1089 9.80378L14.9491 7.96544C16.2907 6.62545 18.4651 6.62545 19.8067 7.96544C21.1476 9.30536 21.1476 11.4781 19.8067 12.818ZM13.3848 16.8073L12.5207 17.6709C11.8511 18.3395 10.7615 18.3395 10.0919 17.6709C9.42231 17.0015 9.42231 15.9132 10.0919 15.244L12.5207 12.818C13.1907 12.1486 14.2796 12.1486 14.9491 12.818C15.1583 13.027 15.2947 13.2791 15.3734 13.5451C15.4371 13.5081 15.5025 13.4781 15.5562 13.4244L16.6848 12.2973C16.5406 12.0519 16.3745 11.8156 16.1632 11.605C14.8226 10.265 12.6474 10.265 11.3061 11.605L8.87768 14.0311C7.53654 15.3714 7.53654 17.5435 8.87768 18.8838C10.219 20.2233 12.3937 20.2233 13.735 18.8838L15.5756 17.045C14.8402 17.1533 14.085 17.0794 13.3848 16.8073Z" fill="white"/>
</svg>
