<svg width="28" height="27" viewBox="0 0 28 27" fill="none" xmlns="http://www.w3.org/2000/svg">
<path d="M27.6844 13.4252C27.6844 6.01082 21.6677 0 14.2461 0C6.82451 0 0.807861 6.01082 0.807861 13.4252C0.807861 20.8396 6.82451 26.8505 14.2461 26.8505C21.6677 26.8505 27.6844 20.8396 27.6844 13.4252ZM2.02951 13.4252C2.02951 6.68454 7.49888 1.22047 14.2461 1.22047C20.9933 1.22047 26.4627 6.68454 26.4627 13.4252C26.4627 20.1659 20.9933 25.63 14.2461 25.63C7.49888 25.63 2.02951 20.1659 2.02951 13.4252Z" fill="white"/>
<path fill-rule="evenodd" clip-rule="evenodd" d="M20.998 17.0062C20.9807 16.9704 20.9646 16.9407 20.9496 16.917C20.7016 16.4887 20.2277 15.963 19.5281 15.3398L19.5134 15.3256L19.5059 15.3186L19.4985 15.3114H19.491C19.1735 15.0212 18.9724 14.8261 18.8882 14.7262C18.7342 14.5359 18.6997 14.3433 18.7839 14.1481C18.8434 14.0006 19.0668 13.6892 19.4537 13.2134C19.6572 12.9613 19.8183 12.7592 19.9373 12.6069C20.7957 11.5127 21.1679 10.8135 21.0537 10.509L21.0094 10.4378C20.9796 10.395 20.9027 10.3558 20.7788 10.3201C20.6546 10.2844 20.4959 10.2785 20.3023 10.3023L18.1591 10.3165C18.1244 10.3047 18.0748 10.3058 18.0102 10.3201C17.9457 10.3344 17.9134 10.3415 17.9134 10.3415L17.8761 10.3594L17.8465 10.3809C17.8217 10.3951 17.7944 10.42 17.7646 10.4557C17.735 10.4913 17.7102 10.533 17.6904 10.5806C17.457 11.1562 17.1917 11.6914 16.894 12.1861C16.7104 12.4811 16.5418 12.7368 16.3878 12.9532C16.2341 13.1696 16.1051 13.3291 16.001 13.4313C15.8967 13.5336 15.8026 13.6155 15.7181 13.6774C15.6337 13.7393 15.5693 13.7655 15.5247 13.7559C15.48 13.7464 15.4379 13.7369 15.3981 13.7274C15.3286 13.6845 15.2728 13.6263 15.2307 13.5525C15.1884 13.4788 15.16 13.386 15.1451 13.2742C15.1303 13.1624 15.1215 13.0661 15.119 12.9852C15.1167 12.9044 15.1178 12.7901 15.1228 12.6427C15.128 12.4951 15.1303 12.3953 15.1303 12.343C15.1303 12.1622 15.134 11.966 15.1413 11.7543C15.1488 11.5426 15.1549 11.3748 15.16 11.2513C15.1651 11.1276 15.1674 10.9967 15.1674 10.8588C15.1674 10.7208 15.1586 10.6126 15.1413 10.5341C15.1242 10.4556 15.098 10.3795 15.0634 10.3057C15.0286 10.232 14.9777 10.1749 14.9108 10.1344C14.8439 10.094 14.7606 10.0619 14.6615 10.0381C14.3986 9.98102 14.0637 9.95015 13.6568 9.94535C12.734 9.93585 12.1411 9.99299 11.8781 10.1167C11.7739 10.1689 11.6797 10.2403 11.5954 10.3307C11.506 10.4354 11.4936 10.4925 11.5581 10.5019C11.8558 10.5447 12.0666 10.647 12.1906 10.8087L12.2353 10.8944C12.2701 10.9562 12.3048 11.0657 12.3395 11.2227C12.3742 11.3796 12.3966 11.5532 12.4065 11.7434C12.4312 12.0908 12.4312 12.3881 12.4065 12.6354C12.3816 12.8829 12.3582 13.0755 12.3358 13.2134C12.3134 13.3514 12.2799 13.4632 12.2353 13.5488C12.1906 13.6344 12.1609 13.6868 12.146 13.7058C12.1311 13.7247 12.1187 13.7367 12.1088 13.7414C12.0443 13.7651 11.9773 13.7772 11.9078 13.7772C11.8383 13.7772 11.754 13.7438 11.6548 13.6772C11.5556 13.6106 11.4527 13.5191 11.346 13.4025C11.2393 13.2859 11.119 13.123 10.985 12.9137C10.8511 12.7044 10.7122 12.457 10.5683 12.1716L10.4492 11.9646C10.3748 11.8314 10.2732 11.6375 10.1442 11.3831C10.0151 11.1285 9.901 10.8823 9.80182 10.6444C9.76217 10.5445 9.70261 10.4685 9.62324 10.4161L9.58599 10.3947C9.56123 10.3757 9.52148 10.3555 9.46695 10.334C9.41234 10.3126 9.35536 10.2972 9.29577 10.2877L7.25666 10.3019C7.04828 10.3019 6.9069 10.3471 6.83246 10.4375L6.80266 10.4803C6.78778 10.5041 6.78027 10.5422 6.78027 10.5945C6.78027 10.6469 6.79516 10.7111 6.82495 10.7871C7.12262 11.458 7.44634 12.1049 7.79609 12.7281C8.14584 13.3513 8.44977 13.8533 8.7077 14.2336C8.96567 14.6142 9.22863 14.9735 9.49656 15.3111C9.76449 15.6489 9.94184 15.8654 10.0286 15.9605C10.1155 16.0557 10.1837 16.127 10.2333 16.1745L10.4194 16.3458C10.5385 16.46 10.7133 16.5967 10.9441 16.7561C11.1748 16.9155 11.4303 17.0724 11.7106 17.2272C11.991 17.3817 12.3171 17.5077 12.6893 17.6052C13.0614 17.7028 13.4235 17.742 13.7758 17.7231H14.6317C14.8052 17.7087 14.9367 17.6564 15.0261 17.5661L15.0557 17.5303C15.0756 17.5019 15.0943 17.4578 15.1115 17.3984C15.1289 17.339 15.1376 17.2735 15.1376 17.2022C15.1325 16.9977 15.1487 16.8134 15.1858 16.6493C15.2229 16.4852 15.2652 16.3615 15.3125 16.2782C15.3597 16.195 15.4131 16.1247 15.4724 16.0678C15.5319 16.0108 15.5743 15.9762 15.5992 15.9643C15.6239 15.9523 15.6436 15.9442 15.6585 15.9393C15.7775 15.9013 15.9177 15.9381 16.0791 16.05C16.2404 16.1618 16.3916 16.2998 16.5331 16.4639C16.6745 16.6281 16.8444 16.8123 17.0428 17.0169C17.2414 17.2214 17.415 17.3735 17.5637 17.4736L17.7125 17.5592C17.8119 17.6163 17.9409 17.6687 18.0997 17.7162C18.2582 17.7638 18.3971 17.7757 18.5163 17.7519L20.4214 17.7234C20.6098 17.7234 20.7565 17.6935 20.8605 17.6341C20.9647 17.5747 21.0266 17.5092 21.0466 17.4379C21.0665 17.3666 21.0675 17.2857 21.0503 17.1952C21.0327 17.1049 21.0153 17.0418 20.998 17.0062Z" fill="white"/>
</svg>
