<svg width="28" height="27" viewBox="0 0 28 27" fill="none" xmlns="http://www.w3.org/2000/svg">
<path d="M27.3001 13.4252C27.3001 6.01082 21.2834 0 13.8618 0C6.44023 0 0.423584 6.01082 0.423584 13.4252C0.423584 20.8396 6.44023 26.8505 13.8618 26.8505C21.2834 26.8505 27.3001 20.8396 27.3001 13.4252ZM1.64523 13.4252C1.64523 6.68454 7.1146 1.22047 13.8618 1.22047C20.6091 1.22047 26.0784 6.68454 26.0784 13.4252C26.0784 20.1659 20.6091 25.63 13.8618 25.63C7.1146 25.63 1.64523 20.1659 1.64523 13.4252Z" fill="white"/>
<path d="M21.0656 14.1087C20.9784 13.7106 20.7851 13.3767 20.4864 13.107C20.1873 12.8373 19.8432 12.6787 19.4535 12.6315C18.2177 12.4966 16.3539 12.4292 13.8619 12.4292C11.37 12.4292 9.5095 12.4966 8.28032 12.6315C7.88415 12.6787 7.53826 12.8373 7.24262 13.107C6.94705 13.3768 6.75226 13.7107 6.65818 14.1087C6.48358 14.8913 6.39624 16.0717 6.39624 17.6501C6.39624 19.2555 6.48358 20.436 6.65818 21.1916C6.74562 21.5894 6.93875 21.9235 7.23764 22.1931C7.53653 22.4629 7.88076 22.6181 8.27026 22.6586C9.50625 22.8002 11.3702 22.8711 13.862 22.8711C16.3536 22.8711 18.2179 22.8002 19.4534 22.6586C19.8431 22.6181 20.1856 22.4629 20.4812 22.1931C20.7768 21.9235 20.9716 21.5894 21.0656 21.1916C21.2402 20.409 21.3276 19.2285 21.3276 17.6501C21.3276 16.0447 21.2401 14.8642 21.0656 14.1087ZM9.58028 15.1308V20.8879H8.57285V15.1308H7.51493V13.9783H10.6583V15.1308H9.58028ZM12.4818 20.8879V20.3414C12.1191 20.753 11.7764 20.9587 11.454 20.9587C11.1451 20.9587 10.9503 20.8338 10.8698 20.5843C10.8161 20.4224 10.7891 20.1761 10.7891 19.8456V15.8895H11.6858V19.5725C11.6858 19.7882 11.6892 19.9064 11.696 19.9266C11.7161 20.0683 11.7866 20.1391 11.9075 20.1391C12.0888 20.1391 12.2804 19.9974 12.4818 19.7141V15.8895H13.3785V20.8879H12.4818ZM16.8039 19.3903C16.8039 19.8827 16.7737 20.2202 16.7136 20.4024C16.5991 20.7732 16.3608 20.9587 15.9982 20.9587C15.6758 20.9587 15.3635 20.7732 15.0611 20.4024V20.888H14.1646V13.9783H15.0611V16.3753C15.3501 16.0113 15.6623 15.8291 15.9982 15.8291C16.3608 15.8291 16.5991 16.018 16.7136 16.3957C16.7737 16.5711 16.8039 16.9049 16.8039 17.3974V19.3903ZM18.4059 18.5608V19.441C18.4059 19.9065 18.5603 20.1391 18.8693 20.1391C19.0908 20.1391 19.2253 20.0178 19.2723 19.7748C19.2855 19.7074 19.2924 19.5017 19.2924 19.1577H20.2092V19.2892C20.2092 19.6198 20.2023 19.8153 20.189 19.8762C20.169 20.0581 20.0987 20.2402 19.9775 20.4224C19.7357 20.7799 19.3727 20.9587 18.8892 20.9587C18.426 20.9587 18.0632 20.7866 17.8011 20.4428C17.6065 20.1932 17.5091 19.8019 17.5091 19.269V17.5185C17.5091 16.9856 17.6031 16.5944 17.791 16.3448C18.0531 16.0008 18.4124 15.8288 18.8693 15.8288C19.3194 15.8288 19.6756 16.0008 19.9372 16.3448C20.1188 16.5944 20.2092 16.9856 20.2092 17.5185V18.5608H18.4059Z" fill="white"/>
<path fill-rule="evenodd" clip-rule="evenodd" d="M15.7543 16.9048C15.618 16.9048 15.4849 16.9684 15.3545 17.0951V19.698C15.4848 19.8248 15.618 19.8882 15.7543 19.8882C15.9852 19.8882 16.101 19.6952 16.101 19.3087V17.4842C16.101 17.0979 15.9855 16.9048 15.7543 16.9048Z" fill="#FBF3E4"/>
<path fill-rule="evenodd" clip-rule="evenodd" d="M18.7151 16.9048C18.4662 16.9048 18.3418 17.0533 18.3418 17.3499V17.6511H19.0884V17.3499C19.0884 17.0531 18.9639 16.9048 18.7151 16.9048Z" fill="#FBF3E4"/>
<path fill-rule="evenodd" clip-rule="evenodd" d="M10.4666 8.96865V11.6838H11.3271V8.96865L12.3684 4.97119H11.4905L10.9054 7.60614L10.2943 4.97119H9.38208C9.54275 5.5323 9.72922 6.15674 9.94153 6.84473C10.2112 7.7664 10.3861 8.4745 10.4666 8.96865Z" fill="white"/>
<path d="M13.4843 11.6838C13.8702 11.6838 14.1665 11.5105 14.3735 11.1638C14.5301 10.9122 14.6084 10.5111 14.6084 9.96057V8.17603C14.6084 7.63227 14.5299 7.23448 14.3735 6.98294C14.1665 6.63625 13.8702 6.46289 13.4843 6.46289C13.1095 6.46289 12.8159 6.63625 12.6035 6.98294C12.447 7.23448 12.3687 7.63227 12.3687 8.17603V9.96053C12.3687 10.5043 12.4469 10.9054 12.6035 11.1637C12.816 11.5105 13.1095 11.6838 13.4843 11.6838ZM13.1236 7.99246C13.1236 7.52338 13.2438 7.28884 13.4843 7.28884C13.7248 7.28884 13.845 7.52338 13.845 7.99246V10.1337C13.845 10.6098 13.7248 10.8475 13.4843 10.8475C13.2438 10.8475 13.1236 10.6096 13.1236 10.1337V7.99246Z" fill="white"/>
<path fill-rule="evenodd" clip-rule="evenodd" d="M15.9294 11.6838C16.2156 11.6838 16.5103 11.4706 16.8134 11.044V11.6115H17.5942V6.46289H16.8134V10.394C16.6417 10.6898 16.4788 10.8376 16.3241 10.8376C16.2211 10.8376 16.161 10.7619 16.1439 10.6106C16.1382 10.5968 16.1353 10.4763 16.1353 10.2494V6.46289H15.3545V10.5282C15.3545 10.8789 15.3775 11.1368 15.4232 11.302C15.4976 11.5565 15.6663 11.6838 15.9294 11.6838Z" fill="white"/>
</svg>
