<?xml version="1.0" encoding="utf-8"?>
<svg version="1.1" xmlns="http://www.w3.org/2000/svg" xmlns:xlink="http://www.w3.org/1999/xlink">
    <defs>
        <style type="text/css">
            <![CDATA[
               .sprite {
                  display: none;
                }
                .sprite:target {
                  display: block;
                }
                #ico-phone:hover {
                    transform: rotate(50deg);
                }
            ]]>
        </style>
    </defs>

    <symbol id="arrow-left" class="sprite" viewBox="0 0 16 19" fill="none" xmlns="http://www.w3.org/2000/svg">
      <path d="M-4.5897e-07 9.5L15.75 0.406734L15.75 18.5933L-4.5897e-07 9.5Z" fill="#D84545"/>
    </symbol>

    <symbol id="arrow-right" class="sprite" viewBox="0 0 16 19" fill="none" xmlns="http://www.w3.org/2000/svg">
      <path d="M16 9.5L0.250001 0.406734L0.25 18.5933L16 9.5Z" fill="#D84545"/>
    </symbol>

    <symbol id="ico-fb" class="sprite" viewBox="0 0 27 27" fill="none" xmlns="http://www.w3.org/2000/svg">
      <path d="M26.8765 13.4257C26.8765 6.01131 20.8598 0.000488281 13.4382 0.000488281C6.01664 0.000488281 0 6.01131 0 13.4257C0 20.8401 6.01664 26.851 13.4382 26.851C20.8598 26.851 26.8765 20.8401 26.8765 13.4257ZM1.22165 13.4257C1.22165 6.68503 6.69102 1.22096 13.4382 1.22096C20.1855 1.22096 25.6548 6.68503 25.6548 13.4257C25.6548 20.1664 20.1855 25.6305 13.4382 25.6305C6.69102 25.6305 1.22165 20.1664 1.22165 13.4257Z" fill="white"/>
      <path fill-rule="evenodd" clip-rule="evenodd" d="M13.9279 21.8787V13.9123H16.3942L16.7839 11.2723H13.9279V9.9486C13.9279 9.25975 14.1398 8.60225 15.0675 8.60225H16.9216V5.96729H14.2893C12.0761 5.96729 11.4722 7.52062 11.4722 9.67381V11.2711H9.95361V13.9123H11.4722V21.8787H13.9279Z" fill="white"/>
    </symbol>

    <symbol id="ico-vk" class="sprite" viewBox="0 0 28 27" fill="none" xmlns="http://www.w3.org/2000/svg">
      <path d="M27.6844 13.4252C27.6844 6.01082 21.6677 0 14.2461 0C6.82451 0 0.807861 6.01082 0.807861 13.4252C0.807861 20.8396 6.82451 26.8505 14.2461 26.8505C21.6677 26.8505 27.6844 20.8396 27.6844 13.4252ZM2.02951 13.4252C2.02951 6.68454 7.49888 1.22047 14.2461 1.22047C20.9933 1.22047 26.4627 6.68454 26.4627 13.4252C26.4627 20.1659 20.9933 25.63 14.2461 25.63C7.49888 25.63 2.02951 20.1659 2.02951 13.4252Z" fill="white"/>
      <path fill-rule="evenodd" clip-rule="evenodd" d="M20.998 17.0062C20.9807 16.9704 20.9646 16.9407 20.9496 16.917C20.7016 16.4887 20.2277 15.963 19.5281 15.3398L19.5134 15.3256L19.5059 15.3186L19.4985 15.3114H19.491C19.1735 15.0212 18.9724 14.8261 18.8882 14.7262C18.7342 14.5359 18.6997 14.3433 18.7839 14.1481C18.8434 14.0006 19.0668 13.6892 19.4537 13.2134C19.6572 12.9613 19.8183 12.7592 19.9373 12.6069C20.7957 11.5127 21.1679 10.8135 21.0537 10.509L21.0094 10.4378C20.9796 10.395 20.9027 10.3558 20.7788 10.3201C20.6546 10.2844 20.4959 10.2785 20.3023 10.3023L18.1591 10.3165C18.1244 10.3047 18.0748 10.3058 18.0102 10.3201C17.9457 10.3344 17.9134 10.3415 17.9134 10.3415L17.8761 10.3594L17.8465 10.3809C17.8217 10.3951 17.7944 10.42 17.7646 10.4557C17.735 10.4913 17.7102 10.533 17.6904 10.5806C17.457 11.1562 17.1917 11.6914 16.894 12.1861C16.7104 12.4811 16.5418 12.7368 16.3878 12.9532C16.2341 13.1696 16.1051 13.3291 16.001 13.4313C15.8967 13.5336 15.8026 13.6155 15.7181 13.6774C15.6337 13.7393 15.5693 13.7655 15.5247 13.7559C15.48 13.7464 15.4379 13.7369 15.3981 13.7274C15.3286 13.6845 15.2728 13.6263 15.2307 13.5525C15.1884 13.4788 15.16 13.386 15.1451 13.2742C15.1303 13.1624 15.1215 13.0661 15.119 12.9852C15.1167 12.9044 15.1178 12.7901 15.1228 12.6427C15.128 12.4951 15.1303 12.3953 15.1303 12.343C15.1303 12.1622 15.134 11.966 15.1413 11.7543C15.1488 11.5426 15.1549 11.3748 15.16 11.2513C15.1651 11.1276 15.1674 10.9967 15.1674 10.8588C15.1674 10.7208 15.1586 10.6126 15.1413 10.5341C15.1242 10.4556 15.098 10.3795 15.0634 10.3057C15.0286 10.232 14.9777 10.1749 14.9108 10.1344C14.8439 10.094 14.7606 10.0619 14.6615 10.0381C14.3986 9.98102 14.0637 9.95015 13.6568 9.94535C12.734 9.93585 12.1411 9.99299 11.8781 10.1167C11.7739 10.1689 11.6797 10.2403 11.5954 10.3307C11.506 10.4354 11.4936 10.4925 11.5581 10.5019C11.8558 10.5447 12.0666 10.647 12.1906 10.8087L12.2353 10.8944C12.2701 10.9562 12.3048 11.0657 12.3395 11.2227C12.3742 11.3796 12.3966 11.5532 12.4065 11.7434C12.4312 12.0908 12.4312 12.3881 12.4065 12.6354C12.3816 12.8829 12.3582 13.0755 12.3358 13.2134C12.3134 13.3514 12.2799 13.4632 12.2353 13.5488C12.1906 13.6344 12.1609 13.6868 12.146 13.7058C12.1311 13.7247 12.1187 13.7367 12.1088 13.7414C12.0443 13.7651 11.9773 13.7772 11.9078 13.7772C11.8383 13.7772 11.754 13.7438 11.6548 13.6772C11.5556 13.6106 11.4527 13.5191 11.346 13.4025C11.2393 13.2859 11.119 13.123 10.985 12.9137C10.8511 12.7044 10.7122 12.457 10.5683 12.1716L10.4492 11.9646C10.3748 11.8314 10.2732 11.6375 10.1442 11.3831C10.0151 11.1285 9.901 10.8823 9.80182 10.6444C9.76217 10.5445 9.70261 10.4685 9.62324 10.4161L9.58599 10.3947C9.56123 10.3757 9.52148 10.3555 9.46695 10.334C9.41234 10.3126 9.35536 10.2972 9.29577 10.2877L7.25666 10.3019C7.04828 10.3019 6.9069 10.3471 6.83246 10.4375L6.80266 10.4803C6.78778 10.5041 6.78027 10.5422 6.78027 10.5945C6.78027 10.6469 6.79516 10.7111 6.82495 10.7871C7.12262 11.458 7.44634 12.1049 7.79609 12.7281C8.14584 13.3513 8.44977 13.8533 8.7077 14.2336C8.96567 14.6142 9.22863 14.9735 9.49656 15.3111C9.76449 15.6489 9.94184 15.8654 10.0286 15.9605C10.1155 16.0557 10.1837 16.127 10.2333 16.1745L10.4194 16.3458C10.5385 16.46 10.7133 16.5967 10.9441 16.7561C11.1748 16.9155 11.4303 17.0724 11.7106 17.2272C11.991 17.3817 12.3171 17.5077 12.6893 17.6052C13.0614 17.7028 13.4235 17.742 13.7758 17.7231H14.6317C14.8052 17.7087 14.9367 17.6564 15.0261 17.5661L15.0557 17.5303C15.0756 17.5019 15.0943 17.4578 15.1115 17.3984C15.1289 17.339 15.1376 17.2735 15.1376 17.2022C15.1325 16.9977 15.1487 16.8134 15.1858 16.6493C15.2229 16.4852 15.2652 16.3615 15.3125 16.2782C15.3597 16.195 15.4131 16.1247 15.4724 16.0678C15.5319 16.0108 15.5743 15.9762 15.5992 15.9643C15.6239 15.9523 15.6436 15.9442 15.6585 15.9393C15.7775 15.9013 15.9177 15.9381 16.0791 16.05C16.2404 16.1618 16.3916 16.2998 16.5331 16.4639C16.6745 16.6281 16.8444 16.8123 17.0428 17.0169C17.2414 17.2214 17.415 17.3735 17.5637 17.4736L17.7125 17.5592C17.8119 17.6163 17.9409 17.6687 18.0997 17.7162C18.2582 17.7638 18.3971 17.7757 18.5163 17.7519L20.4214 17.7234C20.6098 17.7234 20.7565 17.6935 20.8605 17.6341C20.9647 17.5747 21.0266 17.5092 21.0466 17.4379C21.0665 17.3666 21.0675 17.2857 21.0503 17.1952C21.0327 17.1049 21.0153 17.0418 20.998 17.0062Z" fill="white"/>
    </symbol>

    <symbol id="ico-inst" class="sprite" viewBox="0 0 28 27" fill="none" xmlns="http://www.w3.org/2000/svg">
      <path d="M27.4922 13.4252C27.4922 6.01082 21.4755 0 14.054 0C6.63237 0 0.615723 6.01082 0.615723 13.4252C0.615723 20.8396 6.63237 26.8505 14.054 26.8505C21.4755 26.8505 27.4922 20.8396 27.4922 13.4252ZM1.83737 13.4252C1.83737 6.68454 7.30674 1.22047 14.054 1.22047C20.8012 1.22047 26.2706 6.68454 26.2706 13.4252C26.2706 20.1659 20.8012 25.63 14.054 25.63C7.30674 25.63 1.83737 20.1659 1.83737 13.4252Z" fill="white"/>
      <path d="M16.4811 6.96143C18.7141 6.96143 20.525 8.77054 20.525 11.0014V15.8494C20.525 18.0803 18.7141 19.8894 16.4811 19.8894H11.6284C9.39534 19.8894 7.58447 18.0803 7.58447 15.8494V11.0014C7.58447 8.77054 9.39534 6.96143 11.6284 6.96143H16.4811ZM14.0547 10.9393C12.6804 10.9393 11.5662 12.0525 11.5662 13.4254C11.5662 14.7984 12.6804 15.9116 14.0547 15.9116C15.429 15.9116 16.5433 14.7984 16.5433 13.4254C16.5433 12.0525 15.429 10.9393 14.0547 10.9393ZM14.0547 14.9171C13.2317 14.9171 12.5616 14.2477 12.5616 13.4254C12.5616 12.6026 13.2317 11.9337 14.0547 11.9337C14.8777 11.9337 15.5479 12.6026 15.5479 13.4254C15.5479 14.2477 14.8777 14.9171 14.0547 14.9171ZM17.5387 10.9393C18.0885 10.9393 18.5341 10.494 18.5341 9.94481C18.5341 9.39559 18.0885 8.95035 17.5387 8.95035C16.989 8.95035 16.5433 9.39559 16.5433 9.94481C16.5433 10.494 16.989 10.9393 17.5387 10.9393Z" fill="white"/>
    </symbol>

    <symbol id="ico-you-tube" class="sprite" viewBox="0 0 28 27" fill="none" xmlns="http://www.w3.org/2000/svg">
      <path d="M27.3001 13.4252C27.3001 6.01082 21.2834 0 13.8618 0C6.44023 0 0.423584 6.01082 0.423584 13.4252C0.423584 20.8396 6.44023 26.8505 13.8618 26.8505C21.2834 26.8505 27.3001 20.8396 27.3001 13.4252ZM1.64523 13.4252C1.64523 6.68454 7.1146 1.22047 13.8618 1.22047C20.6091 1.22047 26.0784 6.68454 26.0784 13.4252C26.0784 20.1659 20.6091 25.63 13.8618 25.63C7.1146 25.63 1.64523 20.1659 1.64523 13.4252Z" fill="white"/>
      <path d="M21.0656 14.1087C20.9784 13.7106 20.7851 13.3767 20.4864 13.107C20.1873 12.8373 19.8432 12.6787 19.4535 12.6315C18.2177 12.4966 16.3539 12.4292 13.8619 12.4292C11.37 12.4292 9.5095 12.4966 8.28032 12.6315C7.88415 12.6787 7.53826 12.8373 7.24262 13.107C6.94705 13.3768 6.75226 13.7107 6.65818 14.1087C6.48358 14.8913 6.39624 16.0717 6.39624 17.6501C6.39624 19.2555 6.48358 20.436 6.65818 21.1916C6.74562 21.5894 6.93875 21.9235 7.23764 22.1931C7.53653 22.4629 7.88076 22.6181 8.27026 22.6586C9.50625 22.8002 11.3702 22.8711 13.862 22.8711C16.3536 22.8711 18.2179 22.8002 19.4534 22.6586C19.8431 22.6181 20.1856 22.4629 20.4812 22.1931C20.7768 21.9235 20.9716 21.5894 21.0656 21.1916C21.2402 20.409 21.3276 19.2285 21.3276 17.6501C21.3276 16.0447 21.2401 14.8642 21.0656 14.1087ZM9.58028 15.1308V20.8879H8.57285V15.1308H7.51493V13.9783H10.6583V15.1308H9.58028ZM12.4818 20.8879V20.3414C12.1191 20.753 11.7764 20.9587 11.454 20.9587C11.1451 20.9587 10.9503 20.8338 10.8698 20.5843C10.8161 20.4224 10.7891 20.1761 10.7891 19.8456V15.8895H11.6858V19.5725C11.6858 19.7882 11.6892 19.9064 11.696 19.9266C11.7161 20.0683 11.7866 20.1391 11.9075 20.1391C12.0888 20.1391 12.2804 19.9974 12.4818 19.7141V15.8895H13.3785V20.8879H12.4818ZM16.8039 19.3903C16.8039 19.8827 16.7737 20.2202 16.7136 20.4024C16.5991 20.7732 16.3608 20.9587 15.9982 20.9587C15.6758 20.9587 15.3635 20.7732 15.0611 20.4024V20.888H14.1646V13.9783H15.0611V16.3753C15.3501 16.0113 15.6623 15.8291 15.9982 15.8291C16.3608 15.8291 16.5991 16.018 16.7136 16.3957C16.7737 16.5711 16.8039 16.9049 16.8039 17.3974V19.3903ZM18.4059 18.5608V19.441C18.4059 19.9065 18.5603 20.1391 18.8693 20.1391C19.0908 20.1391 19.2253 20.0178 19.2723 19.7748C19.2855 19.7074 19.2924 19.5017 19.2924 19.1577H20.2092V19.2892C20.2092 19.6198 20.2023 19.8153 20.189 19.8762C20.169 20.0581 20.0987 20.2402 19.9775 20.4224C19.7357 20.7799 19.3727 20.9587 18.8892 20.9587C18.426 20.9587 18.0632 20.7866 17.8011 20.4428C17.6065 20.1932 17.5091 19.8019 17.5091 19.269V17.5185C17.5091 16.9856 17.6031 16.5944 17.791 16.3448C18.0531 16.0008 18.4124 15.8288 18.8693 15.8288C19.3194 15.8288 19.6756 16.0008 19.9372 16.3448C20.1188 16.5944 20.2092 16.9856 20.2092 17.5185V18.5608H18.4059Z" fill="white"/>
      <path fill-rule="evenodd" clip-rule="evenodd" d="M15.7543 16.9048C15.618 16.9048 15.4849 16.9684 15.3545 17.0951V19.698C15.4848 19.8248 15.618 19.8882 15.7543 19.8882C15.9852 19.8882 16.101 19.6952 16.101 19.3087V17.4842C16.101 17.0979 15.9855 16.9048 15.7543 16.9048Z" fill="#FBF3E4"/>
      <path fill-rule="evenodd" clip-rule="evenodd" d="M18.7151 16.9048C18.4662 16.9048 18.3418 17.0533 18.3418 17.3499V17.6511H19.0884V17.3499C19.0884 17.0531 18.9639 16.9048 18.7151 16.9048Z" fill="#FBF3E4"/>
      <path fill-rule="evenodd" clip-rule="evenodd" d="M10.4666 8.96865V11.6838H11.3271V8.96865L12.3684 4.97119H11.4905L10.9054 7.60614L10.2943 4.97119H9.38208C9.54275 5.5323 9.72922 6.15674 9.94153 6.84473C10.2112 7.7664 10.3861 8.4745 10.4666 8.96865Z" fill="white"/>
      <path d="M13.4843 11.6838C13.8702 11.6838 14.1665 11.5105 14.3735 11.1638C14.5301 10.9122 14.6084 10.5111 14.6084 9.96057V8.17603C14.6084 7.63227 14.5299 7.23448 14.3735 6.98294C14.1665 6.63625 13.8702 6.46289 13.4843 6.46289C13.1095 6.46289 12.8159 6.63625 12.6035 6.98294C12.447 7.23448 12.3687 7.63227 12.3687 8.17603V9.96053C12.3687 10.5043 12.4469 10.9054 12.6035 11.1637C12.816 11.5105 13.1095 11.6838 13.4843 11.6838ZM13.1236 7.99246C13.1236 7.52338 13.2438 7.28884 13.4843 7.28884C13.7248 7.28884 13.845 7.52338 13.845 7.99246V10.1337C13.845 10.6098 13.7248 10.8475 13.4843 10.8475C13.2438 10.8475 13.1236 10.6096 13.1236 10.1337V7.99246Z" fill="white"/>
      <path fill-rule="evenodd" clip-rule="evenodd" d="M15.9294 11.6838C16.2156 11.6838 16.5103 11.4706 16.8134 11.044V11.6115H17.5942V6.46289H16.8134V10.394C16.6417 10.6898 16.4788 10.8376 16.3241 10.8376C16.2211 10.8376 16.161 10.7619 16.1439 10.6106C16.1382 10.5968 16.1353 10.4763 16.1353 10.2494V6.46289H15.3545V10.5282C15.3545 10.8789 15.3775 11.1368 15.4232 11.302C15.4976 11.5565 15.6663 11.6838 15.9294 11.6838Z" fill="white"/>
    </symbol>

    <symbol id="ico-link" class="sprite" viewBox="0 0 28 27" fill="none" xmlns="http://www.w3.org/2000/svg">
      <path d="M27.7808 13.4252C27.7808 6.01082 21.7641 0 14.3425 0C6.92094 0 0.904297 6.01082 0.904297 13.4252C0.904297 20.8396 6.92094 26.8505 14.3425 26.8505C21.7641 26.8505 27.7808 20.8396 27.7808 13.4252ZM2.12595 13.4252C2.12595 6.68454 7.59531 1.22047 14.3425 1.22047C21.0898 1.22047 26.5591 6.68454 26.5591 13.4252C26.5591 20.1659 21.0898 25.63 14.3425 25.63C7.59531 25.63 2.12595 20.1659 2.12595 13.4252Z" fill="white"/>
      <path d="M19.8067 12.818L17.3774 15.244C16.0367 16.5843 13.8617 16.5843 12.5207 15.244C12.3095 15.0336 12.1442 14.7965 11.9991 14.552L13.1278 13.4245C13.1815 13.3704 13.2477 13.3394 13.3111 13.3029C13.3891 13.5693 13.5253 13.8214 13.735 14.0309C14.4046 14.7004 15.4941 14.6995 16.1633 14.0309L18.5918 11.6049C19.2619 10.9355 19.2619 9.84728 18.5918 9.17841C17.9225 8.50954 16.8333 8.50954 16.1633 9.17841L15.2997 10.0421C14.5989 9.76947 13.8439 9.69617 13.1089 9.80378L14.9491 7.96544C16.2907 6.62545 18.4651 6.62545 19.8067 7.96544C21.1476 9.30536 21.1476 11.4781 19.8067 12.818ZM13.3848 16.8073L12.5207 17.6709C11.8511 18.3395 10.7615 18.3395 10.0919 17.6709C9.42231 17.0015 9.42231 15.9132 10.0919 15.244L12.5207 12.818C13.1907 12.1486 14.2796 12.1486 14.9491 12.818C15.1583 13.027 15.2947 13.2791 15.3734 13.5451C15.4371 13.5081 15.5025 13.4781 15.5562 13.4244L16.6848 12.2973C16.5406 12.0519 16.3745 11.8156 16.1632 11.605C14.8226 10.265 12.6474 10.265 11.3061 11.605L8.87768 14.0311C7.53654 15.3714 7.53654 17.5435 8.87768 18.8838C10.219 20.2233 12.3937 20.2233 13.735 18.8838L15.5756 17.045C14.8402 17.1533 14.085 17.0794 13.3848 16.8073Z" fill="white"/>
    </symbol>

    <symbol id="ico-num-2" class="sprite" width="80" height="70" viewBox="0 0 80 70" fill="none" xmlns="http://www.w3.org/2000/svg">
      <path d="M80 13.6127C80 13.5957 80 13.5786 80 13.5559V13.5502C80 13.5048 79.9943 13.4594 79.9943 13.4139C79.9943 13.4026 79.9943 13.3912 79.9943 13.3798C79.9886 13.3401 79.9829 13.2947 79.9772 13.2549C79.9772 13.2436 79.9715 13.2265 79.9715 13.2152C79.9658 13.1868 79.9545 13.1584 79.9488 13.1243C79.9431 13.1016 79.9374 13.0732 79.9317 13.0505C79.9317 13.0448 79.926 13.0334 79.9203 13.0277C79.8577 12.829 79.7552 12.6529 79.63 12.4939C79.63 12.4939 79.63 12.4882 79.6243 12.4882C79.6243 12.4826 79.6186 12.4826 79.6186 12.4769C79.4934 12.3235 79.334 12.1929 79.1576 12.0964C79.1462 12.0907 79.1405 12.085 79.1291 12.0793C79.1064 12.068 79.0836 12.0566 79.0665 12.0453C79.0381 12.0339 79.0096 12.0169 78.9811 12.0055C78.9697 11.9998 78.9527 11.9942 78.9413 11.9942C78.9015 11.9771 78.8616 11.9658 78.8218 11.9487C78.8104 11.943 78.799 11.943 78.7933 11.943C78.7478 11.9317 78.7079 11.9203 78.6624 11.909H78.6567C78.6396 11.9033 78.6225 11.9033 78.6055 11.9033C78.5713 11.8976 78.5372 11.8919 78.4973 11.8863C78.4575 11.8806 78.4233 11.8806 78.3835 11.8806C78.3664 11.8806 78.3493 11.8806 78.3323 11.8806H78.3209C78.3152 11.8806 78.3152 11.8806 78.3095 11.8806H16.0398L13.968 1.35161C13.82 0.567905 13.1313 0 12.3287 0H1.67343C0.751334 0 0 0.749635 0 1.66964C0 2.58965 0.751334 3.33928 1.67343 3.33928H10.9513L21.0374 54.871C17.9922 55.933 15.8065 58.8236 15.8065 62.2197C15.8065 66.5131 19.307 70 23.6044 70C27.9075 70 31.4023 66.5074 31.4023 62.2197C31.4023 60.5671 30.8844 59.0394 30.0021 57.7787H63.4137C62.5315 59.0394 62.0135 60.5728 62.0135 62.2197C62.0135 66.5131 65.514 70 69.8114 70C74.1088 70 77.6094 66.5074 77.6094 62.2197C77.6094 57.932 74.1088 54.4394 69.8114 54.4394H24.3614L22.9328 47.1361H72.1053H72.111C72.1679 47.1361 72.2191 47.1305 72.2761 47.1248C72.2874 47.1248 72.2988 47.1191 72.3102 47.1191C72.35 47.1134 72.3899 47.1077 72.4297 47.1021C72.4468 47.0964 72.4639 47.0964 72.4866 47.0907C72.5208 47.085 72.5493 47.0737 72.5777 47.068C72.6005 47.0623 72.6176 47.0566 72.6403 47.051C72.6688 47.0396 72.6916 47.0339 72.72 47.0226C72.7428 47.0112 72.7656 47.0055 72.7883 46.9942C72.8111 46.9828 72.8395 46.9714 72.8623 46.9601C72.8851 46.9487 72.9022 46.9374 72.9249 46.926C72.9534 46.909 72.9762 46.8919 73.0046 46.8806C73.0217 46.8692 73.0388 46.8635 73.0558 46.8522C73.0957 46.8238 73.1355 46.7954 73.1754 46.7613C73.1811 46.7556 73.1925 46.75 73.1981 46.7386C73.2266 46.7102 73.2607 46.6875 73.2892 46.6591C73.3006 46.6477 73.312 46.6364 73.3177 46.625C73.3404 46.5966 73.3689 46.5739 73.3917 46.5455C73.4031 46.5342 73.4144 46.5228 73.4201 46.5058C73.4429 46.4774 73.4657 46.449 73.4827 46.4206C73.4941 46.4035 73.5055 46.3922 73.5112 46.3751C73.5283 46.3467 73.5453 46.3184 73.5624 46.29C73.5738 46.2729 73.5795 46.2559 73.5909 46.2388C73.6023 46.2105 73.6193 46.1821 73.6307 46.1537C73.6421 46.1309 73.6478 46.1139 73.6592 46.0912C73.6706 46.0628 73.6763 46.0401 73.6876 46.0117C73.6933 45.989 73.7047 45.9663 73.7104 45.9379C73.7161 45.9151 73.7218 45.8867 73.7275 45.864C73.7332 45.8356 73.7389 45.8129 73.7446 45.7845V45.7788L79.9602 13.8966C79.9602 13.891 79.9602 13.891 79.9602 13.8853V13.8739C79.9658 13.8569 79.9658 13.8455 79.9658 13.8285C79.9715 13.7887 79.9772 13.7547 79.9829 13.7149C79.9943 13.6808 79.9943 13.6468 80 13.6127ZM73.8356 27.8387H58.0064V15.2255H76.2945L73.8356 27.8387ZM70.7278 43.7912H58.0121V31.178H73.1868L70.7278 43.7912ZM54.6652 31.178V43.7912H38.5799V31.178H54.6652ZM38.5799 27.8387V15.2255H54.6652V27.8387H38.5799ZM35.233 15.2255V27.8387H19.1533L16.683 15.2255H35.233ZM28.0555 62.2197C28.0555 64.6674 26.0576 66.6607 23.6044 66.6607C21.1512 66.6607 19.1533 64.6674 19.1533 62.2197C19.1533 59.772 21.1512 57.7787 23.6044 57.7787C26.0576 57.773 28.0555 59.7663 28.0555 62.2197ZM74.2625 62.2197C74.2625 64.6674 72.2647 66.6607 69.8114 66.6607C67.3582 66.6607 65.3604 64.6674 65.3604 62.2197C65.3604 59.772 67.3582 57.7787 69.8114 57.7787C72.2647 57.7787 74.2625 59.7663 74.2625 62.2197ZM19.8079 31.178H35.233V43.7912H22.2782L19.8079 31.178Z" fill="white"/>
    </symbol>

    <symbol id="ico-num-3" class="sprite" width="70" height="70" viewBox="0 0 70 70" fill="none" xmlns="http://www.w3.org/2000/svg">
      <path d="M70 35C70 30.0372 68.9814 25.2462 66.9797 20.7513C65.0431 16.4103 62.2834 12.5668 58.7834 9.32149C52.3283 3.3401 43.9306 0.0296108 35.1303 0C35.1303 0 35.1303 0 35.1244 0C35.0355 0 34.9467 0 34.8697 0C26.0694 0.0296108 17.6717 3.3401 11.2166 9.32149C7.71658 12.5668 4.96277 16.4103 3.0203 20.7513C1.01861 25.2462 0 30.0372 0 35C0 39.9628 1.01861 44.7538 3.0203 49.2487C4.95685 53.5897 7.71658 57.4332 11.2166 60.6785C17.6717 66.6599 26.0694 69.9645 34.8697 70C34.9112 70 34.9526 70 35 70C35.0415 70 35.0829 70 35.1184 70H35.1244C39.0508 69.9882 42.9002 69.3249 46.5719 68.0398C49.7521 66.9264 52.7369 65.3629 55.4729 63.3849L57.9069 66.5415C58.0964 66.7902 58.3807 66.9501 58.6946 66.9915C58.7479 66.9975 58.7953 67.0034 58.8486 67.0034C59.1091 67.0034 59.3638 66.9205 59.5711 66.7547L66.8731 61.1345C67.3942 60.7377 67.489 59.9915 67.0863 59.4763L63.6811 55.0584C65.6058 52.3105 67.1218 49.308 68.1878 46.1337C69.39 42.5567 70 38.808 70 35ZM67.6074 33.8156H54.4721C54.3596 27.544 53.335 21.5212 51.4873 16.2563C53.7851 15.0305 55.9526 13.5381 57.9484 11.8029C63.835 17.6303 67.3054 25.5423 67.6074 33.8156ZM43.8299 37.0728C43.4332 36.8951 42.9712 36.9543 42.6278 37.2208C42.2843 37.4873 42.1125 37.9137 42.1836 38.346L44.1616 50.8418C41.5618 50.1371 38.8909 49.7403 36.1785 49.6514V36.1844H52.0914C52.0618 37.6709 51.9789 39.1514 51.8486 40.6142L43.8299 37.0728ZM50.6345 14.0237C48.9941 10.0618 46.8799 6.7335 44.4814 4.35279C44.1853 4.05668 43.8832 3.77834 43.5753 3.50592C48.1946 4.76142 52.5 7.02369 56.1895 10.1861C54.4662 11.6667 52.6007 12.9518 50.6345 14.0237ZM33.8156 2.45178V17.9856C29.5161 17.8316 25.335 16.8367 21.4856 15.0838C24.5 7.71066 29.0068 3.10321 33.8156 2.45178ZM36.1844 2.45178C40.9932 3.10321 45.5 7.71066 48.5144 15.0897C44.665 16.8426 40.4898 17.8376 36.1844 17.9915V2.45178ZM25.5127 4.35279C23.1142 6.7335 21 10.0618 19.3596 14.0237C17.3934 12.9459 15.5279 11.6667 13.8046 10.1861C17.4941 7.02961 21.8054 4.76142 26.4188 3.50592C26.1168 3.77834 25.8147 4.05668 25.5127 4.35279ZM33.8156 20.3545V33.8156H17.8968C18.0093 27.9171 18.9509 22.2614 20.6506 17.3105C24.7665 19.1582 29.2259 20.2064 33.8156 20.3545ZM33.8156 36.1844V49.6455C29.2259 49.7936 24.808 50.8181 20.6565 52.6895C18.9569 47.7386 18.0152 42.0829 17.9027 36.1844H33.8156ZM33.8156 67.5482C29.0068 66.8968 24.5 62.2893 21.4856 54.9103C25.3765 53.1337 29.5102 52.1624 33.8156 52.0085V67.5482ZM19.3655 55.9763C21.0059 59.9382 23.1201 63.2606 25.5186 65.6472C25.8147 65.9433 26.1168 66.2217 26.4247 66.4941C21.8054 65.2386 17.5 62.9763 13.8105 59.8139C15.522 58.3452 17.3875 57.0601 19.3655 55.9763ZM36.1844 67.5482V52.0144C39.0448 52.1151 41.8579 52.5888 44.5761 53.4179L45.6599 60.2343C45.6658 60.2817 45.6777 60.3291 45.6954 60.3765C42.9772 64.5398 39.6607 67.0744 36.1844 67.5482ZM36.1844 33.8156V20.3545C40.7741 20.2005 45.2335 19.1582 49.3435 17.3105C51.0431 22.2614 51.9848 27.9171 52.0973 33.8156H36.1844ZM12.0516 11.8029C14.0474 13.5381 16.2149 15.0305 18.5127 16.2563C16.6709 21.5212 15.6464 27.544 15.5279 33.8156H2.39255C2.69459 25.5423 6.16497 17.6303 12.0516 11.8029ZM2.39255 36.1844H15.5338C15.6464 42.456 16.6709 48.4789 18.5186 53.7437C16.209 54.9814 14.0415 56.4738 12.0575 58.1971C6.16498 52.3697 2.69459 44.4577 2.39255 36.1844ZM43.5575 66.5059C43.8655 66.2394 44.1734 65.9552 44.4755 65.6531C46.7259 63.4146 48.7276 60.3469 50.3266 56.6988L54.0279 61.5076C50.8299 63.8173 47.3003 65.4932 43.5575 66.5059ZM59.0618 64.1607L51.0787 53.797C51.0728 53.7851 51.0668 53.7792 51.0609 53.7673C51.0491 53.7496 51.0431 53.7318 51.0313 53.714C51.0254 53.7022 51.0135 53.6844 51.0076 53.6726C50.9958 53.6548 50.9839 53.6371 50.9721 53.6193C50.9602 53.6074 50.9543 53.5897 50.9425 53.5778C50.9306 53.5601 50.9188 53.5482 50.901 53.5305C50.8892 53.5186 50.8773 53.5008 50.8655 53.489C50.8536 53.4772 50.8359 53.4594 50.824 53.4475C50.8122 53.4357 50.7944 53.4179 50.7767 53.4061C50.7648 53.3942 50.747 53.3824 50.7352 53.3765C50.7174 53.3646 50.6997 53.3469 50.6819 53.335C50.6701 53.3232 50.6523 53.3173 50.6404 53.3113C50.6227 53.2995 50.599 53.2876 50.5812 53.2758C50.5753 53.2699 50.5694 53.2699 50.5634 53.264C50.3858 53.1574 50.1785 53.0981 49.9653 53.0981C49.9357 53.0981 49.9002 53.0981 49.8706 53.1041C49.5389 53.1278 49.2369 53.2936 49.0355 53.5482C49.0296 53.5541 49.0237 53.566 49.0178 53.5719C49 53.5897 48.9882 53.6134 48.9763 53.6371C48.9645 53.6489 48.9585 53.6667 48.9467 53.6844C48.9408 53.6963 48.9289 53.7081 48.923 53.72L47.4484 56.4264L44.8604 40.1168L52.3697 43.4272H52.3756L59.9678 46.7733L56.9772 47.5076C56.5863 47.6024 56.2724 47.8866 56.1421 48.2657C56.0118 48.6447 56.077 49.0651 56.3198 49.379L61.247 55.775L61.253 55.7809L64.4865 59.9738L59.0618 64.1607ZM59.3105 49.3849L63.9179 48.2538C64.4095 48.1354 64.7707 47.7149 64.8181 47.2056C64.8596 46.7022 64.5812 46.2225 64.1134 46.0211L54.1345 41.621C54.324 39.8384 54.4306 38.0144 54.4662 36.1844H67.6074C67.3942 42.2606 65.5228 48.0525 62.159 53.0863L59.3105 49.3849Z" fill="white"/>
    </symbol>

    <symbol id="ico-num-4" class="sprite" width="82" height="70" viewBox="0 0 82 70" fill="none" xmlns="http://www.w3.org/2000/svg">
      <path d="M37.6926 34.2832C36.8 34.2832 36.0832 33.5529 36.0832 32.6603V26.7639C35.664 26.1553 33.3784 24.8976 29.497 23.5452C27.3332 22.7879 26.2107 22.9501 24.0739 23.5452C19.9491 24.7083 17.5419 26.1688 17.028 26.7639V32.6739C17.028 33.5664 16.2977 34.2967 15.4186 34.2967C14.526 34.2967 13.8092 33.5664 13.8092 32.6739V26.6151C13.7957 25.8307 13.7552 23.1395 23.2084 20.4617C25.9808 19.6773 27.766 19.488 30.5654 20.4617C36.4078 22.5038 39.356 24.4378 39.3154 26.6151V32.6739C39.3154 33.5529 38.5851 34.2832 37.6926 34.2832Z" fill="white"/>
      <path d="M26.5623 3.05641C23.276 3.05641 20.5983 5.73416 20.5983 9.02048C20.5983 12.3068 23.276 14.9845 26.5623 14.9845C29.8486 14.9845 32.5264 12.3068 32.5264 9.02048C32.5264 5.73416 29.8486 3.05641 26.5623 3.05641ZM26.5623 18.068C21.572 18.068 17.5283 14.0108 17.5283 9.034C17.5283 4.04366 21.5855 0 26.5623 0C31.5527 0 35.5963 4.05719 35.5963 9.034C35.5963 14.0108 31.5391 18.068 26.5623 18.068Z" fill="white"/>
      <path d="M66.4715 34.2832C65.5789 34.2832 64.8621 33.5529 64.8621 32.6603V26.7639C64.4429 26.1553 62.1573 24.8976 58.2759 23.5452C56.1121 22.7879 54.9896 22.9501 52.8528 23.5452C48.728 24.7083 46.3208 26.1688 45.8069 26.7639V32.6739C45.8069 33.5664 45.0766 34.2967 44.1975 34.2967C43.3049 34.2967 42.5746 33.5664 42.5746 32.6739V26.6151C42.5611 25.8307 42.5205 23.1395 51.9738 20.4617C54.7462 19.6773 56.5314 19.488 59.3308 20.4617C65.1732 22.5038 68.1214 24.4378 68.0808 26.6151V32.6739C68.0808 33.5529 67.364 34.2832 66.4715 34.2832Z" fill="white"/>
      <path d="M55.3277 3.05641C52.0414 3.05641 49.3636 5.73416 49.3636 9.02048C49.3636 12.3068 52.0414 14.9845 55.3277 14.9845C58.614 14.9845 61.2918 12.3068 61.2918 9.02048C61.3053 5.73416 58.6276 3.05641 55.3277 3.05641ZM55.3277 18.068C50.3374 18.068 46.2937 14.0108 46.2937 9.034C46.2937 4.04366 50.3509 0 55.3277 0C60.3045 0 64.3617 4.05719 64.3617 9.034C64.3752 14.0108 60.318 18.068 55.3277 18.068Z" fill="white"/>
      <path d="M52.082 69.9866C51.1894 69.9866 50.4726 69.2563 50.4726 68.3637V62.4673C50.0534 61.8587 47.7678 60.601 43.8864 59.2486C41.7091 58.4912 40.6001 58.6535 38.4633 59.2486C34.3385 60.4116 31.9313 61.8722 31.4174 62.4673V68.3772C31.4174 69.2698 30.6871 70.0001 29.808 70.0001C28.9154 70.0001 28.1987 69.2698 28.1987 68.3772V62.3185C28.1851 61.5341 28.1446 58.8428 37.5978 56.1651C40.3702 55.3807 42.1554 55.1914 44.9548 56.1651C50.7972 58.2072 53.7454 60.1411 53.7048 62.3185V68.3772C53.7048 69.2698 52.9745 69.9866 52.082 69.9866Z" fill="white"/>
      <path d="M40.9517 38.7598C37.6654 38.7598 34.9877 41.4375 34.9877 44.7238C34.9877 48.0102 37.6654 50.6879 40.9517 50.6879C44.238 50.6879 46.9158 48.0102 46.9158 44.7238C46.9158 41.4375 44.238 38.7598 40.9517 38.7598ZM40.9517 53.7714C35.9614 53.7714 31.9177 49.7142 31.9177 44.7374C31.9177 39.747 35.9749 35.7034 40.9517 35.7034C45.9421 35.7034 49.9857 39.7606 49.9857 44.7374C49.9857 49.7142 45.9285 53.7714 40.9517 53.7714Z" fill="white"/>
      <path d="M23.8845 69.9866C22.9919 69.9866 22.2751 69.2563 22.2751 68.3637V62.4673C21.8559 61.8587 19.5703 60.601 15.6889 59.2486C13.5251 58.4912 12.4026 58.6535 10.2658 59.2486C6.14102 60.4116 3.73376 61.8722 3.21985 62.4673V68.3772C3.21985 69.2698 2.48955 70.0001 1.61049 70.0001C0.717914 70.0001 0.00114381 69.2698 0.00114381 68.3772V62.3185C-0.0123802 61.5341 -0.0529528 58.8428 9.40029 56.1651C12.1727 55.3807 13.9579 55.1914 16.7573 56.1651C22.5997 58.2072 25.5479 60.1411 25.5073 62.3185V68.3772C25.4938 69.2698 24.777 69.9866 23.8845 69.9866Z" fill="white"/>
      <path d="M12.7408 38.7598C9.45447 38.7598 6.77673 41.4375 6.77673 44.7238C6.77673 48.0102 9.45447 50.6879 12.7408 50.6879C16.0271 50.6879 18.7049 48.0102 18.7049 44.7238C18.7184 41.4375 16.0406 38.7598 12.7408 38.7598ZM12.7408 53.7714C7.75045 53.7714 3.70679 49.7142 3.70679 44.7374C3.70679 39.747 7.76397 35.7034 12.7408 35.7034C17.7311 35.7034 21.7748 39.7606 21.7748 44.7374C21.7883 49.7142 17.7311 53.7714 12.7408 53.7714Z" fill="white"/>
      <path d="M80.2927 69.9866C79.4002 69.9866 78.6834 69.2563 78.6834 68.3637V62.4673C78.2642 61.8587 75.9786 60.601 72.0972 59.2486C69.9334 58.4912 68.8109 58.6535 66.6741 59.2486C62.5493 60.4116 60.1421 61.8722 59.6281 62.4673V68.3772C59.6281 69.2698 58.8979 70.0001 58.0188 70.0001C57.1262 70.0001 56.3959 69.2698 56.3959 68.3772V62.3185C56.3824 61.5341 56.3418 58.8428 65.7951 56.1651C68.5675 55.3807 70.3526 55.1914 73.1521 56.1651C78.9945 58.2072 81.9427 60.1411 81.9021 62.3185V68.3772C81.9021 69.2698 81.1718 69.9866 80.2927 69.9866Z" fill="white"/>
      <path d="M69.149 38.7598C65.8627 38.7598 63.1849 41.4375 63.1849 44.7238C63.1849 48.0102 65.8627 50.6879 69.149 50.6879C72.4353 50.6879 75.1131 48.0102 75.1131 44.7238C75.1131 41.4375 72.4353 38.7598 69.149 38.7598ZM69.149 53.7714C64.1587 53.7714 60.115 49.7142 60.115 44.7374C60.115 39.747 64.1722 35.7034 69.149 35.7034C74.1258 35.7034 78.183 39.7606 78.183 44.7374C78.183 49.7142 74.1258 53.7714 69.149 53.7714Z" fill="white"/>
    </symbol>

    <symbol id="ico-num-1" class="sprite" width="91" height="72" viewBox="0 0 91 72" fill="none" xmlns="http://www.w3.org/2000/svg">
      <path d="M44.306 22.8471C46.334 14.2765 41.0155 5.68807 32.4266 3.66431C23.8377 1.64055 15.231 6.94781 13.2029 15.5184C11.1748 24.089 16.4934 32.6774 25.0823 34.7012C33.6712 36.725 42.2779 31.4177 44.306 22.8471Z" stroke="white" stroke-width="3" stroke-miterlimit="10" stroke-linecap="round" stroke-linejoin="round"/>
      <path d="M15.618 28.23H6.92456V69.9999H84.2104V28.23H41.8489" stroke="white" stroke-width="3" stroke-miterlimit="10" stroke-linecap="round" stroke-linejoin="round"/>
      <path d="M43.6582 13.5378H89.1352V28.23H84.2106H41.8491" stroke="white" stroke-width="3" stroke-miterlimit="10" stroke-linecap="round" stroke-linejoin="round"/>
      <path d="M15.618 28.23H6.92459H2V13.5378H13.809" stroke="white" stroke-width="3" stroke-miterlimit="10" stroke-linecap="round" stroke-linejoin="round"/>
      <path d="M6.92456 12.9863V7.62085" stroke="white" stroke-width="3" stroke-miterlimit="10" stroke-linecap="round" stroke-linejoin="round"/>
      <path d="M84.2106 7.62085H39.7385" stroke="white" stroke-width="3" stroke-miterlimit="10" stroke-linecap="round" stroke-linejoin="round"/>
      <path d="M17.7285 7.62085H6.92456" stroke="white" stroke-width="3" stroke-miterlimit="10" stroke-linecap="round" stroke-linejoin="round"/>
      <path d="M84.2104 7.62085V12.9863" stroke="white" stroke-width="3" stroke-miterlimit="10" stroke-linecap="round" stroke-linejoin="round"/>
      <path d="M79.4367 39.6128H12.3518V70.0001H79.4367V39.6128Z" stroke="white" stroke-width="3" stroke-miterlimit="10" stroke-linecap="round" stroke-linejoin="round"/>
      <path d="M65.5674 70.0001V39.6128" stroke="white" stroke-width="3" stroke-miterlimit="10" stroke-linecap="round" stroke-linejoin="round"/>
      <path d="M69.7883 54.0542V61.1245" stroke="white" stroke-width="3" stroke-miterlimit="10" stroke-linecap="round" stroke-linejoin="round"/>
      <path d="M38.9343 39.6128V70.0001" stroke="white" stroke-width="3" stroke-miterlimit="10" stroke-linecap="round" stroke-linejoin="round"/>
      <path d="M19.7888 47.9366L23.2059 44.5269" stroke="white" stroke-width="3" stroke-miterlimit="10" stroke-linecap="round" stroke-linejoin="round"/>
      <path d="M19.1355 58.2663L28.8842 48.5383" stroke="white" stroke-width="3" stroke-miterlimit="10" stroke-linecap="round" stroke-linejoin="round"/>
      <path d="M27.5273 62.9297L30.6429 59.8208" stroke="white" stroke-width="3" stroke-miterlimit="10" stroke-linecap="round" stroke-linejoin="round"/>
      <path d="M44.6631 50.4939L49.0852 46.1313" stroke="white" stroke-width="3" stroke-miterlimit="10" stroke-linecap="round" stroke-linejoin="round"/>
      <path d="M48.5825 56.9624L59.1855 46.4321" stroke="white" stroke-width="3" stroke-miterlimit="10" stroke-linecap="round" stroke-linejoin="round"/>
      <path d="M49.9897 64.5344L54.1103 60.4226" stroke="white" stroke-width="3" stroke-miterlimit="10" stroke-linecap="round" stroke-linejoin="round"/>
      <path fill-rule="evenodd" clip-rule="evenodd" d="M26.9806 16.3304C25.4186 16.3304 24.1597 17.5912 24.1597 19.1555V21.6304C24.1597 23.1946 25.4186 24.4554 26.9806 24.4554C28.5426 24.4554 29.8015 23.1946 29.8015 21.6304V19.1555C29.7782 17.6146 28.5192 16.3304 26.9806 16.3304ZM26.9806 22.4242C26.6542 22.4242 26.3977 22.1673 26.3977 21.8405V18.922C26.3977 18.5952 26.6542 18.3383 26.9806 18.3383C27.307 18.3383 27.5634 18.5952 27.5634 18.922V21.8405C27.5634 22.1673 27.2836 22.4242 26.9806 22.4242ZM33.1819 15.9569H33.788C34.3942 15.9569 34.9071 15.56 34.9071 14.9529C34.9071 14.3459 34.4175 13.949 33.788 13.949H33.1819C31.6199 13.949 30.361 15.1864 30.361 16.7273V23.3347C30.361 23.9418 30.8506 24.4554 31.48 24.4554C32.0862 24.4554 32.5991 23.9651 32.5991 23.3347V18.9687H33.3684C33.9746 18.9687 34.4874 18.5718 34.4874 17.9648C34.4874 17.3577 33.9979 16.9608 33.3684 16.9608H32.5991V16.6106C32.5991 16.237 32.8089 15.9569 33.1819 15.9569Z" fill="#F7F7F7"/>
      <path d="M36.1001 24.4793C36.7855 24.4793 37.3412 23.9237 37.3412 23.2383C37.3412 22.5529 36.7855 21.9973 36.1001 21.9973C35.4148 21.9973 34.8591 22.5529 34.8591 23.2383C34.8591 23.9237 35.4148 24.4793 36.1001 24.4793Z" fill="#F7F7F7"/>
      <path fill-rule="evenodd" clip-rule="evenodd" d="M37.8057 15.9664H38.4129C39.02 15.9664 39.5338 15.5699 39.5338 14.9635C39.5338 14.3571 39.0434 13.9606 38.4129 13.9606H37.8057C36.241 13.9606 34.98 15.1967 34.98 16.7361V20.5378C34.98 21.1442 35.4704 21.6573 36.1009 21.6573C36.7081 21.6573 37.2219 21.1675 37.2219 20.5378V18.9751H37.9925C38.5997 18.9751 39.1135 18.5786 39.1135 17.9722C39.1135 17.3658 38.623 16.9693 37.9925 16.9693H37.2219V16.6194C37.2219 16.2463 37.432 15.9664 37.8057 15.9664ZM22.486 13.5874C21.8788 13.5874 21.3651 14.0772 21.3651 14.7069V16.9693H19.8471V14.7069C19.8471 14.1005 19.3567 13.5874 18.7262 13.5874C18.0956 13.5874 17.6052 14.0772 17.6052 14.7069V23.3599C17.6052 23.9663 18.0956 24.4794 18.7262 24.4794C19.3567 24.4794 19.8471 23.9896 19.8471 23.3599V18.9751H20.8046C21.1082 18.9751 21.3651 19.2317 21.3651 19.5349V23.3366C21.3651 23.943 21.8555 24.4561 22.486 24.4561C23.0932 24.4561 23.607 23.9663 23.607 23.3366V14.7069C23.607 14.0772 23.0932 13.5874 22.486 13.5874Z" fill="#F7F7F7"/>
    </symbol>

    <view id='arrow-left'/>
    <view id='arrow-right'/>
    <view id='ico-fb'/>
    <view id='ico-vk'/>
    <view id='ico-inst'/>
    <view id='ico-you-tube'/>
    <view id='ico-link'/>

    <view id='ico-num-1'/>
    <view id='ico-num-2'/>
    <view id='ico-num-3'/>
    <view id='ico-num-4'/>

    <use xlink:href="#arrow-left" x="0" y="0"/>
    <use xlink:href="#arrow-right" x="0" y="0"/>
    <use xlink:href="#ico-fb" x="0" y="0"/>
    <use xlink:href="#ico-vk" x="0" y="0"/>
    <use xlink:href="#ico-inst" x="0" y="0"/>
    <use xlink:href="#ico-you-tube" x="0" y="0"/>
    <use xlink:href="#ico-link" x="0" y="0"/>

    <use xlink:href="#ico-num-1" x="0" y="0"/>
    <use xlink:href="#ico-num-2" x="0" y="0"/>
    <use xlink:href="#ico-num-3" x="0" y="0"/>
    <use xlink:href="#ico-num-4" x="0" y="0"/>

</svg>