<svg xmlns="http://www.w3.org/2000/svg" viewBox="0 0 52 65"><path d="M39.9 50c-2.1 0-4.6-.6-7.5-1.8-5.3-2.3-11.3-6.5-16.6-11.9C4.2 24.7-1 11.9 3.8 7.1l3.9-3.9C8.5 2.4 9.5 2 10.6 2s2.1.4 2.9 1.2l7.2 7.2c.8.8 1.2 1.8 1.2 2.9s-.4 2.1-1.2 2.9l-2.4 2.4c-.5.5-.4 1.9.3 3.6.9 2.1 2.5 4.4 4.7 6.5 2.1 2.1 4.4 3.8 6.5 4.7 1.7.7 3.1.8 3.6.3l2.4-2.4c.8-.8 1.8-1.2 2.9-1.2 1.1 0 2.1.4 2.9 1.2l7.2 7.2c1.6 1.6 1.6 4.2 0 5.9l-3.9 3.9c-1.2 1.1-2.9 1.7-5 1.7zM10.6 4c-.6 0-1.1.2-1.5.6L5.2 8.5c-3.5 3.5.5 14.9 12 26.3 5.2 5.2 10.9 9.3 16 11.5 4.8 2.1 8.5 2.2 10.3.5l3.9-3.9c.8-.8.8-2.2 0-3l-7.2-7.2c-.8-.8-2.2-.8-3 0l-2.4 2.4c-1.2 1.2-3.3 1.2-5.8.1-2.3-1-4.8-2.8-7.1-5.1s-4.1-4.8-5.1-7.1c-1.1-2.6-1.1-4.6.1-5.8l2.4-2.4c.4-.4.6-.9.6-1.5s-.2-1.1-.6-1.5l-7.2-7.2c-.4-.4-.9-.6-1.5-.6z"/><path d="M39.9 50.5c-2.2 0-4.8-.6-7.7-1.9-5.4-2.3-11.4-6.6-16.8-12-11.7-11.7-17-24.8-12-29.8l3.9-3.9c.9-.9 2-1.4 3.3-1.4s2.4.5 3.3 1.4l7.2 7.2c.9.9 1.4 2 1.4 3.3s-.5 2.4-1.4 3.3L18.6 19c-.3.3-.4 1.3.4 3.1.9 2 2.5 4.2 4.6 6.3 2.1 2.1 4.3 3.7 6.3 4.6 1.8.8 2.8.7 3.1.4l2.4-2.4c.9-.9 2-1.4 3.3-1.4 1.2 0 2.4.5 3.3 1.4l7.2 7.2c1.8 1.8 1.8 4.8 0 6.6l-3.9 3.9c-1.4 1.1-3.2 1.8-5.4 1.8zm-29.3-48c-1 0-1.9.4-2.6 1.1L4.1 7.5c-4.6 4.6.6 17.1 12 28.4 5.3 5.3 11.2 9.5 16.5 11.8 5.4 2.3 9.7 2.4 11.9.1l3.9-3.9c1.4-1.4 1.4-3.7 0-5.1l-7.2-7.2c-1.4-1.4-3.8-1.4-5.1 0L33.7 34c-.7.7-2.2.6-4.2-.2-2.1-.9-4.5-2.6-6.6-4.8-2.2-2.2-3.8-4.5-4.8-6.6-.8-1.9-.9-3.5-.2-4.2l2.4-2.4c.7-.7 1.1-1.6 1.1-2.6s-.4-1.9-1.1-2.6l-7.2-7.2c-.6-.5-1.5-.9-2.5-.9zm29.3 46c-1.9 0-4.2-.6-6.9-1.7-5.2-2.2-10.9-6.4-16.2-11.6-12-12-15.6-23.4-12-27l3.9-3.9c1-1 2.7-1 3.7 0l7.2 7.2c.5.5.8 1.2.8 1.9s-.3 1.4-.8 1.9l-2.4 2.4c-1 1-1 2.9 0 5.3 1 2.2 2.7 4.7 5 6.9 2.2 2.2 4.7 4 6.9 5 2.4 1 4.2 1 5.3 0l2.4-2.4c1-1 2.7-1 3.7 0l7.2 7.2c1 1 1 2.7 0 3.7l-3.9 3.9c-.9.7-2.2 1.2-3.9 1.2zm-29.3-44c-.4 0-.8.2-1.2.5L5.6 8.9c-3.2 3.2.9 14.5 12 25.6 5.2 5.2 10.8 9.2 15.9 11.4 4.6 2 8.1 2.2 9.7.6l3.9-3.9c.6-.6.6-1.7 0-2.3l-7.2-7.2c-.6-.6-1.7-.6-2.3 0l-2.4 2.4c-1.3 1.3-3.6 1.4-6.4.2-2.3-1-4.9-2.9-7.2-5.2-2.3-2.3-4.2-4.9-5.2-7.2-1.2-2.8-1.1-5 .2-6.4l2.4-2.4c.3-.3.5-.7.5-1.2s-.2-.9-.5-1.2L11.8 5c-.3-.3-.8-.5-1.2-.5z"/><path d="M45.8 46.9c-.3 0-.5-.1-.7-.3L33.5 35c-.4-.4-.4-1 0-1.4s1-.4 1.4 0l11.6 11.6c.4.4.4 1 0 1.4-.2.2-.5.3-.7.3z"/><path d="M45.8 47.4c-.4 0-.8-.2-1.1-.4L33.1 35.3c-.6-.6-.6-1.5 0-2.1.6-.6 1.5-.6 2.1 0l11.6 11.6c.6.6.6 1.5 0 2.1-.2.3-.6.5-1 .5zM34.2 33.8c-.1 0-.3 0-.4.1-.2.2-.2.5 0 .7l11.6 11.6c.2.2.5.2.7 0 .2-.2.2-.5 0-.7L34.5 33.9c-.1-.1-.2-.1-.3-.1zm-16.5-15c-.3 0-.5-.1-.7-.3L5.4 6.9c-.4-.4-.4-1 0-1.4s1-.4 1.4 0l11.6 11.6c.4.4.4 1 0 1.4-.2.2-.4.3-.7.3z"/><path d="M17.7 19.3c-.4 0-.8-.2-1.1-.4L5 7.3c-.5-.6-.5-1.6 0-2.2s1.5-.6 2.1 0l11.6 11.6c.6.6.6 1.5 0 2.1-.2.4-.6.5-1 .5zM6.1 5.7c-.1 0-.3 0-.4.1-.1.2-.1.6.1.8l11.6 11.6c.2.2.5.2.7 0 .2-.2.2-.5 0-.7L6.5 5.9c-.1-.1-.3-.2-.4-.2z"/></svg>