<svg xmlns="http://www.w3.org/2000/svg" viewBox="-273 390.9 48 60"><path d="M-252.8 432.3c-11.7 0-21.2-9.5-21.2-21.2s9.5-21.2 21.2-21.2 21.2 9.5 21.2 21.2-9.5 21.2-21.2 21.2zm0-38.4c-9.5 0-17.2 7.7-17.2 17.2s7.7 17.2 17.2 17.2 17.2-7.7 17.2-17.2-7.7-17.2-17.2-17.2z"/><path d="M-264.3 413.3h-.3c-1.1-.2-1.9-1.2-1.7-2.3.5-3.1 1.9-6 4.1-8.2 2.8-2.8 6.4-4.3 10.3-4.3 3.9 0 7.6 1.5 10.3 4.3.8.8.8 2 0 2.8-.8.8-2 .8-2.8 0-2-2-4.7-3.1-7.5-3.1s-5.5 1.1-7.5 3.1c-1.6 1.6-2.7 3.7-3 6-.1.9-.9 1.7-1.9 1.7zm38.3 26.6c-.5 0-1-.2-1.4-.6l-13.2-13.2c-.8-.8-.8-2 0-2.8.8-.8 2-.8 2.8 0l13.2 13.2c.8.8.8 2 0 2.8-.4.4-.9.6-1.4.6z"/></svg>