<svg xmlns="http://www.w3.org/2000/svg" viewBox="-247 358.9 100 125"><path d="M-214.3 422.9c-.7 0-1.3-.5-1.5-1.2l-6.7-29.8h-5.7c-.8 0-1.5-.7-1.5-1.5s.7-1.5 1.5-1.5h6.9c.7 0 1.3.5 1.5 1.2l7 31c.2.8-.3 1.6-1.1 1.8h-.4zm24 13.8c-3.1 0-5.6-2.5-5.6-5.6s2.5-5.6 5.6-5.6 5.6 2.5 5.6 5.6-2.5 5.6-5.6 5.6zm0-8.3c-1.5 0-2.6 1.2-2.6 2.6s1.2 2.6 2.6 2.6 2.6-1.2 2.6-2.6-1.1-2.6-2.6-2.6zm-19.9 8.3c-3.1 0-5.6-2.5-5.6-5.6s2.5-5.6 5.6-5.6 5.6 2.5 5.6 5.6-2.5 5.6-5.6 5.6zm0-8.2c-1.5 0-2.6 1.2-2.6 2.6s1.2 2.6 2.6 2.6 2.6-1.2 2.6-2.6-1.1-2.6-2.6-2.6z"/><path d="M-187.1 422.9h-26.8c-.8 0-1.5-.7-1.5-1.5s.7-1.5 1.5-1.5h26.8c.8 0 1.5.7 1.5 1.5s-.7 1.5-1.5 1.5zm4-14h-27.1c-.8 0-1.5-.7-1.5-1.5s.7-1.5 1.5-1.5h27.1c.8 0 1.5.7 1.5 1.5s-.7 1.5-1.5 1.5z"/><path d="M-187.1 422.9c-.1 0-.3 0-.4-.1-.8-.2-1.2-1.1-1-1.9l5.9-19.1h-29.2c-.8 0-1.5-.7-1.5-1.5s.7-1.5 1.5-1.5h31.2c.5 0 .9.2 1.2.6.3.4.4.9.2 1.3l-6.5 21c-.2.8-.7 1.2-1.4 1.2z"/></svg>