<svg id="Слой_1" xmlns="http://www.w3.org/2000/svg" viewBox="0 0 127.4 54"><style>.st0{fill:#dbae37}.st1,.st2{fill:#303030}.st2{stroke:#48443e;stroke-miterlimit:10}</style><path class="st0" d="M1.8.4H16v3H5v5.3h8.4v3H5v6h11.1v3H1.8V.4zm44.4 14.4c-1.6 3.8-5.3 6.1-9.7 6.1-6 0-10.6-4.2-10.6-10.5C25.9 4.2 30.4 0 36.5 0c4.7 0 8.1 2.5 9.4 5.6l-3.2.8C41.9 5 40 3 36.4 3c-4.3 0-7.2 2.9-7.2 7.5s3.1 7.5 7.2 7.5c3.1 0 5.5-1.6 6.7-4l3.1.8zM56.7.4h3.2v17.2h10.3v3H56.7V.4zm27.9 15.5l-1.9 4.7h-3.4L87.8.4h3.6l8.5 20.2h-3.5l-1.9-4.7h-9.9zm6.6-7.8C90.5 6.3 89.6 4 89.5 4h-.1s-1 2.3-1.7 4.1l-2 4.9h7.5l-2-4.9zm27.6-4.7v17.2h-3.2V3.4h-6.8v-3h16.9v3h-6.9z"/><path class="st1" d="M15.7 50c-1.2 2.4-3.7 4-6.7 4-4.2 0-7.3-3-7.3-7.2 0-4.1 3.2-7.2 7.3-7.2 2.6 0 5.3 1.2 6.5 4.1l-.9.3c-.3-.6-1.7-3.4-5.6-3.4-3.7 0-6.4 2.6-6.4 6.3 0 3.7 2.7 6.3 6.4 6.3 2.7 0 4.7-1.4 5.8-3.4l.9.2zm11.2-.6L25 53.7h-1l6.1-13.8h1l6.1 13.8h-1l-1.9-4.3h-7.4zm5.4-4.6c-1.1-2.6-1.6-3.9-1.6-3.9h-.1s-.6 1.5-1.8 4.1l-1.6 3.6H34l-1.7-3.8zm18.1-4.9c3.4 0 5.3 1.5 5.3 4s-1.8 4-5.3 4h-3v5.8h-1V39.9h4zm0 7.1c2.8 0 4.3-1.2 4.3-3.1 0-1.9-1.4-3.2-4.3-3.2h-3V47h3zm14.4-7.1h1v13.8h-1V39.9zm16.5.9v12.9h-1V40.8h-5.2v-.9h11.2v.9h-5zm16 8.6l-1.9 4.3h-1l6.1-13.8h1l6.1 13.8h-1l-1.9-4.3h-7.4zm5.4-4.6c-1.1-2.6-1.6-3.9-1.6-3.9h-.1s-.6 1.5-1.8 4.1l-1.6 3.6h6.7l-1.6-3.8zm14.2-4.9h1v12.9h7.9v.9h-8.9V39.9z"/><path class="st2" d="M0 30.9h127.4"/></svg>