<svg id="Слой_1" xmlns="http://www.w3.org/2000/svg" viewBox="0 0 52 65"><style>.st0{stroke:#000;stroke-miterlimit:10}</style><path class="st0" d="M39.9 50c-2.1 0-4.6-.6-7.5-1.8-5.3-2.3-11.3-6.5-16.6-11.9C4.2 24.7-1 11.9 3.8 7.1l3.9-3.9C8.5 2.4 9.5 2 10.6 2s2.1.4 2.9 1.2l7.2 7.2c.8.8 1.2 1.8 1.2 2.9s-.4 2.1-1.2 2.9l-2.4 2.4c-.5.5-.4 1.9.3 3.6.9 2.1 2.5 4.4 4.7 6.5 2.1 2.1 4.4 3.8 6.5 4.7 1.7.7 3.1.8 3.6.3l2.4-2.4c.8-.8 1.8-1.2 2.9-1.2 1.1 0 2.1.4 2.9 1.2l7.2 7.2c1.6 1.6 1.6 4.2 0 5.9l-3.9 3.9c-1.2 1.1-2.9 1.7-5 1.7zM10.6 4c-.6 0-1.1.2-1.5.6L5.2 8.5c-3.5 3.5.5 14.9 12 26.3 5.2 5.2 10.9 9.3 16 11.5 4.8 2.1 8.5 2.2 10.3.5l3.9-3.9c.8-.8.8-2.2 0-3l-7.2-7.2c-.8-.8-2.2-.8-3 0l-2.4 2.4c-1.2 1.2-3.3 1.2-5.8.1-2.3-1-4.8-2.8-7.1-5.1s-4.1-4.8-5.1-7.1c-1.1-2.6-1.1-4.6.1-5.8l2.4-2.4c.4-.4.6-.9.6-1.5s-.2-1.1-.6-1.5l-7.2-7.2c-.4-.4-.9-.6-1.5-.6z"/><path class="st0" d="M45.8 46.9c-.3 0-.5-.1-.7-.3L33.5 35c-.4-.4-.4-1 0-1.4s1-.4 1.4 0l11.6 11.6c.4.4.4 1 0 1.4-.2.2-.5.3-.7.3zM17.7 18.8c-.3 0-.5-.1-.7-.3L5.4 6.9c-.4-.4-.4-1 0-1.4s1-.4 1.4 0l11.6 11.6c.4.4.4 1 0 1.4-.2.2-.4.3-.7.3z"/></svg>