<svg xmlns="http://www.w3.org/2000/svg" viewBox="0 0 481 601.3"><path d="M372.3 31.6c-62 0-108.7 24.1-108.7 56.1s46.7 56.1 108.7 56.1S481 119.7 481 87.7s-46.7-56.1-108.7-56.1zm0 24.1c51.7 0 84.7 19 84.7 32.1s-33 32.1-84.7 32.1-84.7-19-84.7-32.1 33-32.1 84.7-32.1zm94.9 88.4c-4.7.2-9 3.2-10.7 7.8-5.1 13.9-38.7 28.9-84.1 28.9-44.2 0-77.3-14.2-83.7-27.9-2.8-6-10-8.6-16-5.8s-8.6 10-5.8 16c11.7 25 54.1 41.7 105.5 41.7 24.5 0 48.3-4 67.2-11.4 20.8-8.1 34.5-19.6 39.5-33.3 2.2-6.1-1-13-7.2-15.3-1.5-.5-3.1-.8-4.7-.7zm-358.5 9.7C46.7 153.8 0 177.9 0 209.9S46.7 266 108.7 266s108.7-24.1 108.7-56.1-46.7-56.1-108.7-56.1zm0 24c51.7 0 84.7 19 84.7 32.1s-33 32.1-84.7 32.1S24 223 24 209.9s33-32.1 84.7-32.1zm358.5 27.5c-4.7.2-9 3.2-10.7 7.8-5.1 13.9-38.7 28.9-84.1 28.9-44.2 0-77.3-14.2-83.7-27.9-2.8-6-10-8.6-16-5.8s-8.6 10-5.8 16c11.7 25 54.1 41.7 105.5 41.7 24.5 0 48.3-4 67.2-11.4 20.8-8.1 34.5-19.6 39.5-33.3 2.2-6.1-1-13-7.2-15.3-1.5-.5-3.1-.8-4.7-.7zm-263.7 61.1c-4.7.2-9 3.2-10.7 7.8-5.1 13.9-38.7 28.9-84.1 28.9-44.2 0-77.3-14.2-83.7-27.9-2.8-6-10-8.6-16-5.8s-8.6 10-5.8 16c11.7 25 54.1 41.7 105.5 41.7 24.5 0 48.3-4 67.2-11.4 20.8-8.1 34.5-19.6 39.5-33.3 2.2-6.1-1-13-7.2-15.3-1.6-.5-3.1-.8-4.7-.7zm263.7 0c-4.7.2-9 3.2-10.7 7.8-5.1 13.9-38.7 28.9-84.1 28.9-44.2 0-77.3-14.2-83.7-27.9-2.8-6-10-8.6-16-5.8s-8.6 10-5.8 16c11.7 25 54.1 41.7 105.5 41.7 24.5 0 48.3-4 67.2-11.4 20.8-8.1 34.5-19.6 39.5-33.3 2.2-6.1-1-13-7.2-15.3-1.5-.5-3.1-.8-4.7-.7zm-263.7 61.2c-4.7.2-9 3.2-10.7 7.8-5.1 13.9-38.7 28.9-84.1 28.9-44.2 0-77.3-14.2-83.7-27.9-2.8-6-10-8.6-16-5.8s-8.6 10-5.8 16c11.7 25 54.1 41.7 105.5 41.7 24.5 0 48.3-4 67.2-11.4 20.8-8.1 34.5-19.6 39.5-33.3 2.2-6.2-1-13.1-7.2-15.3-1.6-.5-3.1-.8-4.7-.7zm263.7 0c-4.7.2-9 3.2-10.7 7.8-5.1 13.9-38.7 28.9-84.1 28.9-44.2 0-77.3-14.2-83.7-27.9-2.8-6-10-8.6-16-5.8s-8.6 10-5.8 16c11.7 25 54.1 41.7 105.5 41.7 24.5 0 48.3-4 67.2-11.4 20.8-8.1 34.5-19.6 39.5-33.3 2.2-6.2-1-13.1-7.2-15.3-1.5-.5-3.1-.8-4.7-.7zm-263.7 61.1c-4.7.2-9 3.2-10.7 7.8-5.1 13.9-38.7 28.9-84.1 28.9-44.2 0-77.3-14.2-83.7-27.9-2.8-6-10-8.6-16-5.8s-8.6 10-5.8 16c11.7 25 54.1 41.7 105.5 41.7 24.5 0 48.3-4 67.2-11.4 20.8-8.1 34.5-19.6 39.5-33.3 2.2-6.1-1-13-7.2-15.3-1.6-.5-3.1-.8-4.7-.7zm263.7 0c-4.7.2-9 3.2-10.7 7.8-5.1 13.9-38.7 28.9-84.1 28.9-44.2 0-77.3-14.2-83.7-27.9-2.8-6-10-8.6-16-5.8s-8.6 10-5.8 16c11.7 25 54.1 41.7 105.5 41.7 24.5 0 48.3-4 67.2-11.4 20.8-8.1 34.5-19.6 39.5-33.3 2.2-6.1-1-13-7.2-15.3-1.5-.5-3.1-.8-4.7-.7z"/></svg>