<svg xmlns="http://www.w3.org/2000/svg" width="32" height="32" viewBox="0 0 32 32"><path d="M5.676 26.178C.577 21.025.022 20.076.85 17.928c1.126-2.918 4.065-5.615 10.295-9.448 2.556-1.573 5.394-4.124 6.307-5.67C18.366 1.265 19.439 0 19.838 0c.398 0 3.317 2.62 6.486 5.822 5.099 5.153 5.654 6.102 4.825 8.25-1.126 2.918-4.065 5.615-10.295 9.448-2.556 1.573-5.394 4.124-6.307 5.67-.913 1.545-1.986 2.81-2.385 2.81-.398 0-3.317-2.62-6.486-5.822zm15.744-5.454c2.705-1.773 5.834-4.466 6.952-5.984l2.033-2.76-4.896-4.97-4.896-4.971-2.556 3.006c-1.407 1.653-4.77 4.457-7.477 6.23-2.705 1.774-5.834 4.467-6.952 5.985l-2.033 2.76 4.896 4.97 4.896 4.971 2.556-3.006c1.407-1.653 4.77-4.457 7.477-6.23zM11 26.31c0-.55.9-1.815 2-2.81 1.1-.995 2-1.36 2-.81s-.9 1.815-2 2.81c-1.1.995-2 1.36-2 .81zm4-7.199c0-.489.74-.826 1.642-.75.904.077 1.833-.4 2.066-1.059.301-.85-.608-1.03-3.142-.619-3.296.535-3.566.388-3.566-1.936 0-1.673.669-2.689 2-3.037 2.448-.64 2.578.147.3 1.813-1.469 1.074-1.23 1.225 1.75 1.11 3.107-.12 3.46.14 3.55 2.617.083 2.249-.327 2.75-2.25 2.75-1.292 0-2.35-.4-2.35-.889zm3.606-11.263c1.042-1.459 2.094-2.459 2.338-2.222.245.236-.607 1.43-1.894 2.652L16.712 10.5z"/></svg>