<svg xmlns="http://www.w3.org/2000/svg" width="28" height="40" viewBox="0 0 28 40"><path d="M10.562 38.513l-1.487-1.486-1.721-5.264L5.632 26.5l-2.53-4.372-2.53-4.373V9.157l1.68-2.564 1.681-2.565 2.448-1.604L8.83.82l3.788-.462 3.789-.463 3.428 1.803 3.43 1.802 1.987 2.712 1.988 2.711v8.832l-2.53 4.373-2.53 4.372-1.722 5.263-1.721 5.264-1.487 1.486L15.763 40h-3.715zm4.885-1.58l.659-1.066-.457-.457-.457-.457-1.638.628-1.637.629.553.895.554.895h1.764zm1.892-3.987l.933-.913-.433-.374-.433-.375-3.68.46-3.68.458.565 1.474.566 1.473 2.614-.645 2.615-.646zM17.406 30l2-.86-5.31-.07L8.789 29l.618 1 .618 1 2.69-.07 2.692-.07zm4.983-8.967l2.517-4.967v-5.165L23.49 8.165l-1.415-2.736-2.58-1.381-2.582-1.381h-6.018l-2.58 1.381-2.581 1.381L4.32 8.165l-1.414 2.736v5.165l2.516 4.967L7.94 26h11.933zM7.182 12.1l.224-2.4 2.733-2.033 2.734-2.033.645.646.646.645-2.594 1.182L8.976 9.29l-1.009 2.605L6.958 14.5z"/></svg>