<svg xmlns="http://www.w3.org/2000/svg" width="28" height="32" viewBox="0 0 28 32"><path d="M5.626 30.75c-.242-.688-.902-5.057-1.466-9.71-.685-5.645-1.526-8.738-2.528-9.299-2.083-1.165-1.877-3.992.597-8.184L4.327 0h19.605l2.099 3.557c2.473 4.192 2.68 7.019.597 8.184-1.002.561-1.843 3.654-2.528 9.3-.564 4.652-1.224 9.021-1.467 9.709-.303.86-2.955 1.25-8.503 1.25-5.549 0-8.2-.39-8.504-1.25zM21.13 28.5c0-1.19-1.445-1.5-7-1.5-5.556 0-7 .31-7 1.5s1.444 1.5 7 1.5c5.555 0 7-.31 7-1.5zm1.153-7.5l.347-5.001h-17l.346 5L6.323 26h15.614zm.847-7.5c0-1.222-1.667-1.5-9-1.5-7.334 0-9 .278-9 1.5s1.666 1.5 9 1.5c7.333 0 9-.278 9-1.5zm3-5c0-1.25-2-1.5-12-1.5s-12 .25-12 1.5 2 1.5 12 1.5 12-.25 12-1.5zm-2.25-4.75c-.294-.881-3.172-1.25-9.75-1.25-6.578 0-9.457.369-9.75 1.25C4.065 4.695 6.44 5 14.13 5c7.689 0 10.065-.305 9.75-1.25z"/></svg>