<svg xmlns="http://www.w3.org/2000/svg" width="32" height="32" viewBox="0 0 32 32"><path d="M6.988 24.488c-8.796-8.855-8.735-9.505 1.258-13.364 4.803-1.855 6.8-3.17 7.193-4.736 1.06-4.225 3.654-3.771 8.998 1.573 4.208 4.207 4.865 5.338 3.953 6.793-.602.96-1.957 1.876-3.013 2.035-1.328.201-2.646 2.198-4.288 6.5C18.46 30.178 17.312 32 15.603 32c-.634 0-4.511-3.38-8.615-7.512zm11.915-.659l2.393-6.171-2.08-1.684c-3.161-2.56-10.724-3.28-14.415-1.371l-3.062 1.583 6.854 6.907C12.363 26.892 15.686 30 15.978 30c.293 0 1.609-2.777 2.925-6.171zM12 23c0-.55.45-1 1-1s1 .45 1 1-.45 1-1 1-1-.45-1-1zm2.364-3.493c-.346-.903-.15-2.12.436-2.707 1.524-1.524 4.41-.131 4.012 1.935-.443 2.302-3.647 2.858-4.448.772zM18 18.5c0-.825-.675-1.5-1.5-1.5s-1.5.675-1.5 1.5.675 1.5 1.5 1.5 1.5-.675 1.5-1.5zm-9.554-.587c-1.03-1.668 1.287-3.58 2.667-2.2C12.267 16.867 11.545 19 10 19c-.485 0-1.184-.49-1.554-1.087zM11 17c0-.55-.45-1-1-1s-1 .45-1 1 .45 1 1 1 1-.45 1-1zm13.914-2.474c2.715-.05 2.08-2.126-1.812-5.926-3.739-3.651-6.922-4.18-5.68-.944.377.983-.656 1.982-3.182 3.079l-3.74 1.624 3.5.626c1.925.344 4.39 1.127 5.479 1.738 1.088.612 2.438.824 3 .471.561-.353 1.657-.653 2.435-.668zM28 8c0-.55.45-1 1-1s1 .45 1 1-.45 1-1 1-1-.45-1-1zm-.636-4.493c-.346-.903-.15-2.12.436-2.707 1.524-1.524 4.41-.131 4.012 1.935-.443 2.302-3.647 2.858-4.448.772zM31 2.5c0-.825-.675-1.5-1.5-1.5S28 1.675 28 2.5 28.675 4 29.5 4 31 3.325 31 2.5z"/></svg>