<svg xmlns="http://www.w3.org/2000/svg" width="32" height="32" viewBox="0 0 32 32"><path d="M.47 30.783C.168 29.995.05 25.11.21 19.925L.5 10.5h4.214c4.941 0 7.2-1.833 8.177-6.64C14.206-2.606 21 .21 21 7.224c0 2.55.311 2.777 3.809 2.777 2.095 0 4.62.593 5.61 1.318 1.71 1.25 1.72 1.714.206 9.04-2.513 12.15-2.355 12.001-11.976 11.256-9.799-.758-9.246-.758-13.889-.004-2.746.445-3.886.226-4.29-.827zM7 21c0-8.933-.019-9-2.5-9S2 12.067 2 21s.019 9 2.5 9S7 29.933 7 21zm-3.447 7.085a1.117 1.117 0 0 1 .362-1.532 1.117 1.117 0 0 1 1.532.362c.322.52.16 1.21-.362 1.532-.52.322-1.21.16-1.532-.362zm22.951.908c.343-.554-.153-1.305-1.101-1.669-1.522-.584-1.47-.755.437-1.46 2.597-.961 2.85-3.537.41-4.175-1.38-.36-1.297-.481.393-.573 3.093-.167 3.844-2.984 1.09-4.091l-2.233-.898 2.323-.064c1.657-.045 2.228-.565 1.99-1.813-.26-1.37-1.532-1.814-5.867-2.044l-5.534-.294.405-3.47C19.193 5.222 17.779 2 15.989 2c-.422 0-1.062 1.577-1.424 3.504-.42 2.236-1.727 4.295-3.611 5.688C8.152 13.264 8 13.752 8 20.66v7.284l3.25.938c4.426 1.278 14.488 1.352 15.254.112z"/></svg>