<svg xmlns="http://www.w3.org/2000/svg" width="32" height="32" viewBox="0 0 32 32"><path d="M3.617 30.652l-1.16-1.169V14.261l-1.2-1.935-1.2-1.935 1.2-1.935 1.2-1.935V2.837l1.45-1.213L5.36.412l1.45 1.212 1.452 1.213v3.684l1.2 1.935 1.2 1.935-1.2 1.935-1.2 1.935v15.222L7.1 30.652l-1.16 1.169H4.778zm2.709-8.085v-7.305H4.391v14.611h1.935zm1.451-12.176V7.956l-2.18-.312-2.182-.312-.583 1.53-.583 1.53.583 1.529.583 1.529 2.181-.312 2.181-.312zM6.326 4.06V2.599H4.391V5.52h1.935zm7.933 26.592l-1.161-1.169V25.95l-1.2-1.935-1.2-1.935 1.2-1.935 1.2-1.935V2.837l1.45-1.213L16 .412l1.451 1.212 1.451 1.213V18.21l1.2 1.935 1.2 1.935-1.2 1.935-1.2 1.935v3.533l-1.16 1.169-1.162 1.169h-1.16zm2.708-2.24V26.95h-1.934v2.923h1.934zm1.451-6.332v-2.435l-2.18-.312-2.181-.312-.583 1.53-.583 1.53.583 1.529.583 1.529 2.18-.312 2.181-.312zm-1.45-12.176V2.6h-1.935v14.61h1.934zM24.9 30.652l-1.16-1.169V14.261l-1.2-1.935-1.201-1.935 1.2-1.935 1.2-1.935V2.837l1.451-1.213L26.641.412l1.451 1.212 1.452 1.213v3.684l1.2 1.935 1.2 1.935-1.2 1.935-1.2 1.935v15.222l-1.161 1.169-1.161 1.169H26.06zm2.709-8.085v-7.305h-1.935v14.611h1.935zm1.45-12.176V7.956l-2.18-.312-2.181-.312-.583 1.53-.583 1.53.583 1.529.583 1.529 2.18-.312 2.182-.312zM27.61 4.06V2.599h-1.935V5.52h1.935z"/></svg>