<svg xmlns="http://www.w3.org/2000/svg" width="56" height="62" viewBox="0 0 56 62"><path d="M26.862 59.75c-.934-3.485-.802-3.75 1.87-3.75 2.846 0 2.838-.02 1.524 3.435-1.203 3.165-2.596 3.294-3.394.315zM.689 52.25c.986-5.441 4.251-8.22 11.67-9.931 3.505-.808 7.16-2.18 8.122-3.05 2.81-2.535 2.162-6.708-1.692-10.915-4.08-4.455-5.066-7.58-3.348-10.625.692-1.226 1.296-4.56 1.343-7.409.047-2.849.612-5.813 1.255-6.588.643-.775 3.671-1.968 6.73-2.653 4.72-1.056 5.905-1.02 7.835.246 1.25.82 3.366 1.644 4.7 1.832 2.26.32 2.448.806 2.723 7.093.163 3.712.725 6.75 1.25 6.75 2.015 0 .873 6.242-1.796 9.817-1.512 2.026-3.087 3.833-3.5 4.016-1.349.6-.786 6.988.751 8.525.825.825 4.013 2.022 7.083 2.66 6.995 1.452 11.26 5.064 12.082 10.232l.596 3.75h-12.13c-6.673 0-12.132-.196-12.132-.435 0-.24.416-1.527.923-2.862.626-1.647.446-4.321-.56-8.316-1.37-5.436-1.698-5.887-4.296-5.887-2.662 0-2.875.337-3.967 6.264-.8 4.341-.84 6.854-.127 8.185.565 1.056 1.027 2.174 1.027 2.485 0 .311-5.675.566-12.61.566H.008z"/></svg>