<svg xmlns="http://www.w3.org/2000/svg" width="41" height="32" viewBox="0 0 41 32"><path d="M1.927 31.594C.68 30.346 1.14 7.738 2.439 6.439c.66-.66 3.135-1.2 5.5-1.2 3.552 0 4.3-.33 4.3-1.893 0-2.421 1.876-3.107 8.5-3.107 6.623 0 8.5.686 8.5 3.107 0 1.569.749 1.893 4.377 1.893 2.52 0 4.868.59 5.533 1.392.768.925 1.06 5.362.872 13.25l-.282 11.858-18.562.271c-10.21.15-18.872-.038-19.25-.416zm24.472-7.007c3.624-3.265 2.577-11.084-1.705-12.727-6.883-2.641-12.256 1.517-11.473 8.879.617 5.801 8.466 8.094 13.178 3.848z"/></svg>