<svg xmlns="http://www.w3.org/2000/svg" width="32" height="28" viewBox="0 0 32 28"><path d="M1.252 26.852l-1.2-1.2.006-5.05.005-5.05.93-3.5.931-3.5 1.103-4.25L4.129.052h23.846l1.103 4.25 1.102 4.25.93 3.5.931 3.5.006 5.05.005 5.05-1.2 1.2-1.2 1.2h-27.2zm28.62-4.64l.32-3.34-2.221-8.41-2.222-8.41H6.355l-2.165 8.25-2.165 8.25.014 3.084.013 3.083.695.694.694.695 13.056-.278 13.055-.278zm-19.82-2.16l-1.07-2h-4.93V14.86l1.571-5.404 1.571-5.404H24.91l1.571 5.404 1.571 5.404v3.192h-4.929l-1.07 2-1.071 2h-9.86zm10-2l1.07-2h5.147l-.657-2.616-.656-2.617-.577-2.883-.577-2.884h-15.5l-.576 2.884-.577 2.883-.657 2.617-.657 2.616h5.147l1.07 2 1.07 2h5.86z"/></svg>