<svg xmlns="http://www.w3.org/2000/svg" width="28" height="27" viewBox="0 0 28 27"><path d="M5.533 26.053c-.317-.512-.303-2.646.031-4.742.516-3.239.219-4.175-1.979-6.235C-.27 11.46.2 9.31 5.027 8.496c3.388-.573 4.343-1.3 6.02-4.588C12.144 1.758 13.472 0 14 0s1.856 1.758 2.953 3.908c1.677 3.288 2.632 4.015 6.02 4.587 4.827.816 5.298 2.965 1.442 6.58-2.198 2.06-2.495 2.997-1.979 6.236.85 5.33.054 5.98-4.49 3.661L14 22.96l-3.946 2.013c-2.213 1.13-4.198 1.604-4.521 1.081zm14.952-5.307c-.556-3.708-.312-4.56 1.908-6.645C25.415 11.26 24.963 10 20.925 10c-2.395 0-3.275-.665-4.626-3.5C15.38 4.575 14.346 3 14 3c-.346 0-1.38 1.575-2.299 3.5C10.35 9.335 9.471 10 7.075 10c-4.041 0-4.49 1.262-1.459 4.105 2.153 2.018 2.461 2.985 1.958 6.145-.679 4.26-.58 4.321 3.536 2.193 2.797-1.446 3.237-1.416 6.2.417 1.755 1.086 3.33 2.012 3.501 2.057.171.046.025-1.831-.326-4.17z"/></svg>