<svg xmlns="http://www.w3.org/2000/svg" width="32" height="32" viewBox="0 0 32 32"><path d="M.473 31.092c-.989-1.6 1.09-3.492 5.402-4.915l3.903-1.288-2.002-4.527C4.257 12.408 6.93 2.98 13.352.692c8.836-3.146 15.573 9.043 10.872 19.67l-2.002 4.527 3.903 1.288c4.311 1.423 6.39 3.315 5.402 4.915-.401.65-6.268 1.044-15.527 1.044S.874 31.74.473 31.092zM26.5 28.417c-2.024-1.105-5.44-1.638-10.5-1.638s-8.476.533-10.5 1.638c-2.902 1.585-2.56 1.639 10.5 1.639s13.402-.054 10.5-1.639zm-6.129-5.31C26.65 15.646 23.832 2.135 16 2.135c-7.832 0-10.649 13.51-4.371 20.97 3.222 3.83 5.52 3.83 8.742 0z"/></svg>