<svg xmlns="http://www.w3.org/2000/svg" width="29" height="29" viewBox="0 0 29 29"><path d="M7.299 26.04C-4.183 19.04 1.005 1 14.5 1c7.605 0 13.493 5.89 13.493 13.5 0 10.578-11.633 17.065-20.694 11.54zm3.531-1.94c-.652-1.045-1.793-1.668-2.534-1.383C6.618 23.36 8.495 26 10.631 26c1.111 0 1.15-.376.2-1.9zm3.027-3.6c0-5.157-.151-5.5-2.428-5.5-1.812 0-2.464.572-2.565 2.25l-.136 2.25-.434-2.25C7.962 15.527 7.174 15 4.93 15c-3.411 0-3.444.115-1.316 4.599 1.765 3.72 2.563 4.08 4.574 2.07 1.462-1.462 4.18-1.075 3.232.46-.5.81 1.185 3.871 2.131 3.871.168 0 .306-2.475.306-5.5zm3.745 1.904c-.691-1.8 1.616-2.329 3.21-.734 2.01 2.01 2.809 1.648 4.574-2.071C27.514 15.115 27.481 15 24.07 15c-2.244 0-3.032.527-3.364 2.25l-.434 2.25-.136-2.25c-.101-1.678-.753-2.25-2.565-2.25-2.28 0-2.428.34-2.428 5.563 0 4.788.205 5.393 1.474 4.34.81-.673 1.254-1.797.985-2.499zm3.301 2.213c.877-1.057.83-1.506-.2-1.9-.74-.285-1.88.338-2.533 1.383-.952 1.524-.912 1.9.2 1.9.761 0 1.902-.622 2.533-1.383zM8.294 11.75l.434-2.25.136 2.25c.103 1.697.75 2.25 2.636 2.25 2.38 0 2.498-.274 2.467-5.75l-.034-5.75-2.01 2.414c-1.57 1.886-1.727 2.594-.716 3.235 2.05 1.3-.899 1.086-3.39-.247-2.344-1.255-4.14.054-5.277 3.848C1.945 13.733 2.22 14 4.863 14c2.314 0 3.097-.513 3.431-2.25zm12 0l.434-2.25.136 2.25c.11 1.815.73 2.25 3.203 2.25 2.715 0 2.99-.259 2.393-2.25-1.138-3.794-2.933-5.103-5.278-3.848-2.49 1.333-5.44 1.548-3.389.247 1.01-.641.854-1.349-.716-3.235L15.067 2.5l-.034 5.75c-.031 5.432.101 5.75 2.397 5.75 1.726 0 2.557-.653 2.864-2.25zM10.768 5c1-1.602.999-1.994-.01-1.968-1.789.045-4.854 2.54-4.076 3.317C7.885 7.55 9.51 7.015 10.768 5zm11.55 1.349c.778-.778-2.287-3.272-4.076-3.317-1.009-.026-1.01.366-.01 1.968 1.259 2.015 2.883 2.551 4.086 1.349z"/></svg>