<?xml version="1.0" encoding="utf-8"?>
<!-- Generator: Adobe Illustrator 21.0.0, SVG Export Plug-In . SVG Version: 6.00 Build 0)  -->
<svg version="1.1"
	 id="svg2" xmlns:cc="http://creativecommons.org/ns#" xmlns:dc="http://purl.org/dc/elements/1.1/" xmlns:rdf="http://www.w3.org/1999/02/22-rdf-syntax-ns#" xmlns:svg="http://www.w3.org/2000/svg"
	 xmlns="http://www.w3.org/2000/svg" xmlns:xlink="http://www.w3.org/1999/xlink" x="0px" y="0px" viewBox="0 0 793.7 266.8"
	 style="enable-background:new 0 0 793.7 266.8;" xml:space="preserve">
<style type="text/css">
	.st0{enable-background:new    ;}
	.st1{fill:#FFFFFF;}
	.st2{clip-path:url(#SVGID_2_);}
	.st3{fill:#C30A0C;}
</style>
<g class="st0">
	<path class="st1" d="M324.4,155.9c-0.7,0-0.9-0.5-0.9-1.7c0-0.7,0-1.2,0.1-1.7l0.7-2.9c0.1-0.5,0.1-0.8,0.3-1.1
		c0-0.3,0.1-0.5,0.1-0.8c0-0.8-0.1-1.1-0.5-1.1s-0.9,0.7-1.6,2.1l-23.3,51.1c-1.5,2.9-2.9,4.4-4.5,4.4h-14.1c-0.7,0-0.9-0.5-0.9-1.5
		c0-0.3,0-0.5,0.1-0.8c0-0.3,0.1-0.7,0.3-1.1l16.1-76.3c0.4-2.3,1.1-3.3,2.1-3.3h17.1c1.3,0,2,1.1,2,3.1c0,0.9-0.1,2.1-0.4,3.5
		l-9.1,42.9l18.9-40.7c2.9-5.9,5.9-8.9,8.8-8.9h12c2.1,0,3.1,1.6,3.1,4.8c0,0.8-0.1,1.6-0.3,2.4c-0.1,0.8-0.3,1.7-0.5,2.8l-4.5,21.6
		c-0.5,2.3-1.2,3.3-2.1,3.3h-18.8V155.9z"/>
</g>
<g class="st0">
	<path class="st1" d="M343.5,204c-4.5,0-6.8-2.5-6.8-7.6c0-6.1,1.5-12.5,4.5-19.5l10.7-24.4c0.8-2,1.7-3.6,2.5-4.5s1.9-1.5,3.1-1.5
		h14.9c1.2,0,1.9,0.7,1.9,2c0,1.1-0.3,2.4-0.9,4L357.9,188c-0.8,2.4-1.3,4.3-1.3,5.6c0,1.6,0.5,2.4,1.7,2.4h9.3
		c1.1,0,1.7-1.1,2.3-3.2l11.2-53.9c0.5-2.4,0.7-4.1,0.7-5.5c0-2.9-0.9-4.4-2.9-4.4h-20.1c-0.3,0-0.4-0.3-0.4-0.7
		c0-0.1,0-0.3,0.1-0.4c0-0.1,0.1-0.4,0.1-0.5l0.9-4.7c0.1-1.1,0.4-1.7,0.9-1.7h38.4c3.3,0,5.1,2.5,5.1,7.7c0,2.1-0.4,5.1-1.1,8.9
		l-11.6,55.2c-0.1,0.5-0.1,1.1-0.1,1.7c0,1.1,0.3,1.6,0.9,1.6h16.1c0.3,0,0.4,0.3,0.4,0.9l-0.9,5.3c-0.3,1.1-0.7,1.7-1.1,1.7h-63.1
		V204z"/>
</g>
<g class="st0">
	<path class="st1" d="M471.7,204c-0.7,0-0.9-0.5-0.9-1.7c0-0.7,0-1.2,0.1-1.7l10.9-51.1c0.1-0.5,0.1-0.9,0.3-1.2
		c0-0.3,0.1-0.5,0.1-0.8c0-0.8-0.1-1.1-0.4-1.1c-0.5,0-1.1,0.7-1.7,2.1l-23.3,51.1c-1.5,2.9-2.9,4.4-4.5,4.4h-14.1
		c-0.7,0-0.9-0.5-0.9-1.5c0-0.3,0-0.5,0.1-0.8c0-0.3,0.1-0.7,0.3-1.1l10.8-51.1c0.1-0.5,0.1-0.8,0.3-1.1c0-0.3,0.1-0.5,0.1-0.8
		c0-0.8-0.1-1.1-0.5-1.1c-0.4,0-0.9,0.7-1.6,2.1l-23.3,51.1c-1.5,2.9-2.9,4.4-4.5,4.4h-14.1c-0.7,0-0.9-0.5-0.9-1.5
		c0-0.3,0-0.5,0.1-0.8c0-0.3,0.1-0.7,0.3-1.1l16.1-76.3c0.4-2.3,1.1-3.3,2.1-3.3h17.1c1.3,0,2,1.1,2,3.1c0,0.9-0.1,2.1-0.4,3.5
		l-9.1,42.9l18.9-40.7c2.9-5.9,5.9-8.9,8.8-8.9h12c2.1,0,3.1,1.6,3.1,4.8c0,0.8-0.1,1.6-0.3,2.4c-0.1,0.8-0.3,1.7-0.5,2.8l-8.4,39.6
		l18.9-40.7c2.9-5.9,5.7-8.9,8.7-8.9h12.1c2.1,0,3.1,1.6,3.1,4.8c0,0.8-0.1,1.6-0.3,2.4c-0.1,0.8-0.3,1.7-0.5,2.8l-13.1,61.9
		c-0.1,0.5-0.1,1.1-0.1,1.7c0,1.1,0.3,1.6,0.9,1.6H512c0.1,0,0.3,0.3,0.3,0.7v0.9l-1.1,4.7c-0.1,1.1-0.5,1.7-0.9,1.7h-38.5V204z"/>
</g>
<g class="st0">
	<path class="st1" d="M568.4,180c-1.7,8.1-3.9,14.1-6.5,18.1c-2.7,4-6,6-10,6h-34.9c-5.3,0-8-3.9-8-11.5c0-3.3,0.5-7.6,1.7-12.7
		l7.3-34.9c1.7-8.1,3.9-14.1,6.5-18.1c2.7-4,6-6,10-6h34.8c5.3,0,8,3.9,8,11.6c0,1.7-0.1,3.7-0.4,5.7s-0.7,4.3-1.1,6.8L568.4,180z
		 M530.1,189.6c-0.3,1.5-0.4,2.5-0.4,3.3c0,1.9,0.7,2.8,1.9,2.8h9.2c1.9,0,3.2-2,4.1-6.1l11.5-54c0.1-0.7,0.1-1.2,0.3-1.7
		c0-0.5,0.1-0.9,0.1-1.5c0-2-0.7-3.1-1.9-3.1h-9.2c-1.7,0-3.1,2-4,6.1L530.1,189.6z"/>
</g>
<g class="st0">
	<path class="st1" d="M577.7,166.3c-1.1,0-1.7-0.9-1.7-2.7c0-0.4,0-0.8,0-1.3c0-0.5,0.1-0.9,0.3-1.6l3.3-15.7
		c1.7-8.1,3.9-14.1,6.5-18.1c2.7-4,6-6,10-6h37.2c0.5,0,0.8,0.5,0.8,1.5c0,0.3,0,0.5,0,0.9c0,0.3,0,0.7-0.1,1.1l-0.4,2
		c-0.5,2-1.2,2.9-2.1,2.9h-24c-1.9,0-3.2,2-4.1,6.1l-4.1,19.5c-0.1,0.5-0.1,1.1-0.1,1.7c0,1.1,0.3,1.6,0.9,1.6h26.7
		c1.1,0,1.7,0.9,1.7,2.8c0,0.4,0,0.8-0.1,1.3c0,0.5-0.1,0.9-0.3,1.5l-3.5,16.5c-1.7,8.1-3.9,14.1-6.5,18.1c-2.7,4-6,6-10,6h-46.1
		c-0.7,0-0.9-0.5-0.9-1.5c0-0.3,0-0.5,0.1-0.8c0-0.3,0.1-0.7,0.3-1.1l0.3-2c0.1-0.9,0.5-1.6,0.8-2.1c0.4-0.5,0.8-0.7,1.3-0.7h33.2
		c1.9,0,3.2-2,4.1-6l3.7-17.9c0.4-1.5,0.5-2.8,0.5-4c0-1.1-0.3-1.7-0.8-1.7h-26.8V166.3z"/>
</g>
<g id="g16">
	<g>
		<g>
			<defs>
				<rect id="SVGID_1_" x="-132.3" y="-44.5" width="1058.3" height="355.7"/>
			</defs>
			<clipPath id="SVGID_2_">
				<use xlink:href="#SVGID_1_"  style="overflow:visible;"/>
			</clipPath>
			<g id="g18" class="st2">
				<g id="g24" transform="translate(157.8525,100.9429)">
					<path id="path26" class="st3" d="M52.6,31.3V31c-0.3,2.4-1.1,3.6-2.4,3.6H8.1c-0.7,0-1.2-0.3-1.3-0.8c-0.3-0.5-0.4-1.3-0.4-2.4
						c0-0.4,0-1.2,0.3-2.7l1.2-5.6c0.4-2.1,1.2-3.2,2.7-3.2h42.1c1.2,0,1.9,0.9,1.9,2.8c0,0.8-0.1,1.6-0.3,2.4L52.6,31.3z"/>
				</g>
				<g id="g28" transform="translate(193.4014,49.7959)">
					<path id="path30" class="st3" d="M64.5,150.6c-0.3,2.4-1.1,3.6-2.4,3.6h-70c-9.3,0-15.6-7.5-18.5-22.1v0.1
						c-1.3-5.5-2-11.9-2-19.2c-0.1-2.9-0.1-6,0.1-9.3c0.3-3.2,0.4-6.7,0.7-10.3c0-0.3,0-0.5,0.1-0.7c0.1-0.3,0.1-0.3,0.3-0.3h40.9
						c0.1,0,0.3,0.3,0.4,0.7c0.1,0.5,0.1,0.9,0,1.3l-1.7,9.6c-0.9,6-1.7,11.2-2.3,15.6c-0.7,4.4-0.8,8.1-0.7,11.2v0.5
						c0.1,5.7,2.3,8.7,6.7,8.7h10.8l8.4-46.9c0-0.1,0.1-0.3,0.4-0.7h38.5c0.3,0,0.4,0.3,0.5,0.7c0.1,0.5,0.1,0.9,0,1.3L64.5,150.6z"
						/>
				</g>
				<g id="g32" transform="translate(159.8027,114.8921)">
					<path id="path34" class="st3" d="M53.3-1.3v0.8H12.1c-0.3,0-0.4-0.3-0.4-0.8v-1.6c1.9-7.2,4-13.9,6.5-20.1
						c2.4-6.3,5.3-12.1,8.5-17.6C35-54.8,43.8-61.8,53.1-61.8h62.8c0.7,0,1.1,0.3,1.3,0.9c0.3,0.7,0.4,1.3,0.7,2.1v1.1
						c0,0.3-0.1,0.7-0.1,1.1l-1.3,6c-0.4,2.3-1.2,3.3-2.4,3.3H72.9c-4.5,0-8,2.7-10.4,8c-1.2,2.7-2.3,6.1-3.3,10.4
						c-0.9,4.3-2,9.2-3.2,14.8L53.3-1.3z"/>
				</g>
				<g id="g36" transform="translate(206,100.9429)">
					<path id="path38" class="st3" d="M68.7,31.3V31c-0.3,2.4-1.1,3.6-2.4,3.6H25.7c-1.1,0-1.7-1.1-2-3.2c0-0.1,0-0.4,0.3-0.9
						c0.1-0.4,0.3-1.1,0.3-1.7l1.2-5.6c0.1-1.1,0.4-1.9,0.9-2.4c0.5-0.5,0.9-0.8,1.5-0.8h40.8c1.1,0,1.6,0.9,1.6,2.8
						c0,0.8-0.1,1.6-0.3,2.4h0.3L68.7,31.3z"/>
				</g>
				<g id="g40" transform="translate(468.9375,114.2925)">
					<path id="path42" class="st3" d="M156.3,0.1c0,0-391.7-0.8-392.4-0.9c5.7-1.9,30.9-7.7,42.9-7.7c119.5,0,238.9,0,358.5,0.1"/>
				</g>
			</g>
		</g>
	</g>
</g>
</svg>
